<svg id="Layer_1" data-name="Layer 1" xmlns="http://www.w3.org/2000/svg" viewBox="0 0 338 275"><defs><style>.cls-1{fill:#aeb2b7;}.cls-2{fill:#b6b6b7;}.cls-3{fill:#f5c396;}.cls-4{fill:#f4d5c1;}.cls-5{fill:#ddd;}.cls-6{fill:#2f323a;}.cls-7{fill:#72d6bf;}.cls-8{fill:#ba875d;}.cls-9{fill:#c6c6c6;}.cls-10{fill:#efceb4;}.cls-11{fill:#ccc;}.cls-12,.cls-14{fill:none;stroke-miterlimit:10;stroke-width:3px;}.cls-12{stroke:#1a1a1a;}.cls-13{fill:#e8ab79;}.cls-14{stroke:#2f323a;stroke-linecap:round;}.cls-15{fill:#f4d1b3;}.cls-16{fill:#f2f2f2;}.cls-17{fill:#4d515b;}</style></defs><rect class="cls-1" x="27.6" y="90.34" width="287.76" height="10.49"/><rect class="cls-2" x="85.88" y="116.28" width="10.72" height="20.97" transform="translate(226.17 205.43) rotate(155.99)"/><path class="cls-3" d="M85.21,131.86l8.12,30.07v88.69H114V162.08a25.89,25.89,0,0,0-.63-5.21l-13.75-30Z"/><polygon class="cls-4" points="110.79 154.86 106.02 156.85 96.76 130.46 99.27 129.89 110.79 154.86"/><rect class="cls-2" x="58.81" y="116.28" width="10.72" height="20.97" transform="translate(57.13 -15.14) rotate(24.01)"/><path class="cls-3" d="M70.21,131.86l-8.13,30.07v88.69H41.45V162.08a25.89,25.89,0,0,1,.63-5.21l13.75-30Z"/><polygon class="cls-4" points="44.62 154.86 49.39 156.85 58.65 130.46 56.14 129.89 44.62 154.86"/><path class="cls-2" d="M74.58,110H89.14c5.07,0,9.19-3.58,9.19-8L87.54,50h-13Z"/><path class="cls-5" d="M98.33,102.49a20.63,20.63,0,0,1-41.25,0c0-.12,0-.24,0-.35V102h0l1.12-6.23L66.46,50H77.71V81.86A20.62,20.62,0,0,1,98.33,102.49Z"/><path class="cls-5" d="M57.09,102v.17a.61.61,0,0,1,0-.14Z"/><path class="cls-5" d="M58.21,95.73,57.09,102A20.39,20.39,0,0,1,58.21,95.73Z"/><circle class="cls-6" cx="77.71" cy="102.49" r="10"/><rect class="cls-7" x="202.36" y="84.19" width="11.07" height="74.6" transform="translate(19.54 -28.53) rotate(8.23)"/><path class="cls-3" d="M225,82.82l7.94-54.88-41.53-6L163.76,212.86l41.53,6,8-55.45a3.42,3.42,0,0,0-2.89-3.87l-8.56-1.24a4.84,4.84,0,0,1-4.1-5.48l9.3-64.27a4.84,4.84,0,0,1,5.48-4.09l8.56,1.24A3.41,3.41,0,0,0,225,82.82Zm-15.65-49.9a9.32,9.32,0,0,1,9.56,10.56.28.28,0,0,1,0,.09,9.34,9.34,0,0,1-9.15,8,9.55,9.55,0,0,1-1.41-.1,9.33,9.33,0,0,1-7.94-10.23c0-.11,0-.23,0-.34A9.32,9.32,0,0,1,209.33,32.92Zm-22,175a9.32,9.32,0,0,1-9.56-10.56s0-.06,0-.09a9.34,9.34,0,0,1,9.15-8,9.78,9.78,0,0,1,1.42.1,9.32,9.32,0,0,1,7.93,10.23c0,.11,0,.23,0,.34A9.33,9.33,0,0,1,187.35,207.88Z"/><path class="cls-3" d="M200.38,41.24c0-.11,0-.23,0-.34a9.32,9.32,0,0,1,18.47,2.58.28.28,0,0,1,0,.09,9.34,9.34,0,0,1-9.15,8,9.55,9.55,0,0,1-1.41-.1A9.33,9.33,0,0,1,200.38,41.24Z"/><path class="cls-3" d="M177.8,197.23a9.34,9.34,0,0,1,9.15-8,9.78,9.78,0,0,1,1.42.1,9.32,9.32,0,0,1,7.93,10.23c0,.11,0,.23,0,.34a9.32,9.32,0,0,1-18.47-2.58S177.8,197.26,177.8,197.23Z"/><rect class="cls-3" x="191.59" y="19.14" width="41.96" height="5.83" transform="translate(5.35 -30.22) rotate(8.23)"/><rect class="cls-3" x="163.42" y="215.86" width="41.96" height="1.75" transform="translate(32.94 -24.18) rotate(8.23)"/><rect class="cls-8" x="191.59" y="19.14" width="41.96" height="5.83" transform="translate(5.35 -30.22) rotate(8.23)"/><path class="cls-8" d="M218.88,43.57a9.34,9.34,0,0,1-9.15,8,9.55,9.55,0,0,1-1.41-.1,9.33,9.33,0,0,1-7.94-10.23c0-.11,0-.23,0-.34a9.32,9.32,0,0,1,18.47,2.58A.28.28,0,0,1,218.88,43.57Z"/><path class="cls-5" d="M218.88,43.57a9.34,9.34,0,0,1-9.15,8l-9.35-10.33c0-.11,0-.23,0-.34a9.32,9.32,0,0,1,8.91-8l9.56,10.56A.28.28,0,0,1,218.88,43.57Z"/><rect class="cls-8" x="163.13" y="215.84" width="41.96" height="5.83" transform="translate(33.23 -24.11) rotate(8.23)"/><path class="cls-8" d="M196.26,199.9a9.32,9.32,0,0,1-18.47-2.58s0-.06,0-.09a9.34,9.34,0,0,1,9.15-8,9.78,9.78,0,0,1,1.42.1,9.32,9.32,0,0,1,7.93,10.23C196.29,199.67,196.28,199.79,196.26,199.9Z"/><path class="cls-5" d="M196.26,199.9a9.33,9.33,0,0,1-8.91,8l-9.56-10.56s0-.06,0-.09a9.34,9.34,0,0,1,9.15-8l9.35,10.33C196.29,199.67,196.28,199.79,196.26,199.9Z"/><path class="cls-9" d="M164.76,131.14a25.06,25.06,0,0,1-13.37,25.43L163,245.05l-17.44,2.3-11.66-88.48a24.87,24.87,0,0,1-9.59-44.34l3,22.55,13.16,5.33,11.33-8.55-3-22.75A25,25,0,0,1,164.76,131.14Z"/><rect class="cls-6" x="315.69" y="19.99" width="12.66" height="23.22" rx="0.77"/><path class="cls-6" d="M315.94,23.37V38.89c-4.26,1.56-7.71,5.49-9.41,10.58-.1.26-.18.54-.26.81H281.15c-1.51-8.13-8-14.25-15.72-14.25a15.17,15.17,0,0,0-11.34,5.25L251.68,38C253.16,27.6,265.63,17.45,282,14.19a50.85,50.85,0,0,1,6-.84h12.13l.35.59C303.78,19.64,309.48,23.37,315.94,23.37Z"/><rect class="cls-6" x="287.67" y="50.18" width="10.85" height="94.43"/><rect class="cls-3" x="282.55" y="142.3" width="21.97" height="7.15"/><path class="cls-3" d="M280.83,163h25a0,0,0,0,1,0,0v44.79a12.49,12.49,0,0,1-12.49,12.49h0a12.49,12.49,0,0,1-12.49-12.49V163a0,0,0,0,1,0,0Z"/><polygon class="cls-10" points="305.81 162.97 280.83 162.97 285.56 149.19 301.07 149.19 305.81 162.97"/><rect class="cls-6" x="113.13" y="124.09" width="53.31" height="2.7"/><rect class="cls-6" x="160.52" y="123.42" width="5.92" height="4.05"/><polygon class="cls-11" points="173.88 137.24 165.33 130.16 165.33 120.05 173.88 112.97 173.88 137.24"/><path class="cls-6" d="M212.32,150.05h19.62a0,0,0,0,1,0,0v17.39a0,0,0,0,1,0,0h-9.63a10,10,0,0,1-10-10v-7.41A0,0,0,0,1,212.32,150.05Z"/><path class="cls-3" d="M211,100.83h54.06a24.61,24.61,0,0,1,24.61,24.61v0a24.61,24.61,0,0,1-24.61,24.61H211a7.54,7.54,0,0,1-7.54-7.54V108.37a7.54,7.54,0,0,1,7.54-7.54Z"/><rect class="cls-6" x="192.93" y="108.25" width="10.53" height="34.39"/><path class="cls-6" d="M182.72,110.94h10.21a0,0,0,0,1,0,0V139.6a0,0,0,0,1,0,0H182.72a9.2,9.2,0,0,1-9.2-9.2V120.15A9.2,9.2,0,0,1,182.72,110.94Z"/><line class="cls-12" x1="178.45" y1="136.4" x2="187.83" y2="136.4"/><line class="cls-12" x1="178.45" y1="133.7" x2="187.83" y2="133.7"/><line class="cls-12" x1="178.45" y1="131" x2="187.83" y2="131"/><line class="cls-12" x1="178.45" y1="128.31" x2="187.83" y2="128.31"/><line class="cls-12" x1="178.45" y1="125.61" x2="187.83" y2="125.61"/><line class="cls-12" x1="178.45" y1="122.91" x2="187.83" y2="122.91"/><line class="cls-12" x1="178.45" y1="120.22" x2="187.83" y2="120.22"/><line class="cls-12" x1="178.45" y1="117.52" x2="187.83" y2="117.52"/><line class="cls-12" x1="178.45" y1="114.82" x2="187.83" y2="114.82"/><rect class="cls-13" x="212.34" y="119.72" width="28.55" height="8.08" rx="4.04"/><ellipse class="cls-6" cx="226.66" cy="124.26" rx="5.43" ry="5.56"/><path class="cls-6" d="M202,220.85h89.19a0,0,0,0,1,0,0v0a16.91,16.91,0,0,1-16.91,16.91H218.87A16.91,16.91,0,0,1,202,220.85v0A0,0,0,0,1,202,220.85Z"/><path class="cls-3" d="M213.89,208.92H286.7a4.44,4.44,0,0,1,4.44,4.44v7.49a0,0,0,0,1,0,0H202a0,0,0,0,1,0,0v0a11.94,11.94,0,0,1,11.94-11.94Z"/><polygon class="cls-3" points="276.57 211.57 236.26 211.57 216.88 148.57 246.57 148.57 276.57 211.57"/><polygon class="cls-6" points="273.13 204.28 243.76 204.28 225.94 152.88 248.76 152.88 273.13 204.28"/><line class="cls-14" x1="269.57" y1="134.97" x2="278.95" y2="134.97"/><line class="cls-14" x1="269.57" y1="130.3" x2="282.27" y2="130.3"/><line class="cls-14" x1="269.57" y1="125.62" x2="284.67" y2="125.41"/><line class="cls-14" x1="269.57" y1="120.94" x2="282.27" y2="120.94"/><line class="cls-14" x1="269.57" y1="116.27" x2="278.95" y2="116.27"/><rect class="cls-15" x="207.51" y="103.42" width="56.62" height="4.81" rx="2.41"/><polygon class="cls-16" points="171.98 118.22 165.69 121.19 165.69 120.44 172.72 114.89 171.98 118.22"/><path class="cls-6" d="M331.5,69.93V264.65H9.5V69.93a3.8,3.8,0,0,1,3.8-3.8H25.07a3.8,3.8,0,0,1,3.8,3.8v99.53a10.46,10.46,0,0,0,10.46,10.46h265.3a7.5,7.5,0,0,0,7.5-7.51V69.93a3.8,3.8,0,0,1,3.8-3.8H327.7A3.8,3.8,0,0,1,331.5,69.93Z"/><path class="cls-17" d="M15.21,66.13h7.94a5.71,5.71,0,0,1,5.71,5.71V173.46a0,0,0,0,1,0,0H9.5a0,0,0,0,1,0,0V71.84A5.71,5.71,0,0,1,15.21,66.13Z"/><path class="cls-17" d="M317.84,66.13h7.94a5.71,5.71,0,0,1,5.71,5.71V173.46a0,0,0,0,1,0,0H312.13a0,0,0,0,1,0,0V71.84A5.71,5.71,0,0,1,317.84,66.13Z"/></svg>