<svg id="Layer_1" data-name="Layer 1" xmlns="http://www.w3.org/2000/svg" viewBox="0 0 1459.38 857.87"><defs><style>.cls-1{fill:#2f323a;}.cls-2{fill:#cc9e79;}.cls-3{fill:#fff;}.cls-4{fill:#1d2128;}.cls-5{fill:#e0b394;}</style></defs><path class="cls-1" d="M1435.24,743.43H20.55c0-390.66,316.69-707.35,707.34-707.35S1435.24,352.77,1435.24,743.43Z"/><rect class="cls-2" x="546.17" y="249.34" width="89.1" height="87.32"/><rect class="cls-3" x="579.08" y="249.34" width="20.76" height="15.07"/><path class="cls-4" d="M317.26,201.64V724.15h821.28V201.64Zm717.32,7.47h94.36V454.25h-94.36ZM519.21,709.22H326.86v-240H519.21Zm0-255H326.86V209.11H519.21Zm245.19,255H528.81v-240H764.4Zm0-255H528.81V209.11H764.4Zm260.58,255H774v-240h251Zm0-255H774V209.11h251Zm9.6,255v-240h94.36v240Z"/><rect class="cls-2" x="803.09" y="635.66" width="203.31" height="68.42"/><rect class="cls-3" x="878.18" y="635.66" width="47.36" height="11.81"/><rect class="cls-2" x="804.85" y="557.07" width="75.1" height="68.42"/><rect class="cls-3" x="832.59" y="557.07" width="17.49" height="11.81"/><rect class="cls-2" x="549.88" y="634.91" width="62.02" height="66.69"/><rect class="cls-3" x="572.79" y="634.91" width="14.45" height="11.51"/><rect class="cls-2" x="549.65" y="559.4" width="62.47" height="66.69"/><rect class="cls-3" x="572.73" y="559.4" width="14.55" height="11.51"/><rect class="cls-2" x="621.68" y="545.7" width="121.87" height="156.77"/><rect class="cls-3" x="666.69" y="545.7" width="28.39" height="27.05"/><rect class="cls-2" x="345.39" y="624.08" width="152.05" height="79.29"/><rect class="cls-3" x="401.56" y="624.08" width="35.42" height="13.68"/><rect class="cls-2" x="346.47" y="533.1" width="152.05" height="79.29"/><rect class="cls-3" x="402.63" y="533.1" width="35.42" height="13.68"/><rect class="cls-2" x="352.08" y="315.79" width="102.41" height="133.38"/><rect class="cls-3" x="389.91" y="315.79" width="23.86" height="23.02"/><rect class="cls-2" x="794.15" y="381.75" width="98.25" height="66.69"/><rect class="cls-3" x="830.44" y="381.75" width="22.89" height="11.51"/><rect class="cls-2" x="544.7" y="381.88" width="194.12" height="66.69"/><rect class="cls-3" x="616.4" y="381.88" width="45.22" height="11.51"/><rect class="cls-2" x="546.17" y="346" width="98.25" height="29.39"/><rect class="cls-3" x="582.46" y="346" width="22.89" height="5.07"/><rect class="cls-2" x="652.18" y="283.04" width="89.1" height="87.32"/><rect class="cls-3" x="685.09" y="283.04" width="20.76" height="15.07"/><rect class="cls-2" x="906.58" y="381.75" width="98.25" height="66.69"/><rect class="cls-3" x="942.87" y="381.75" width="22.89" height="11.51"/><rect class="cls-2" x="796.23" y="309.25" width="98.25" height="66.69"/><rect class="cls-3" x="832.52" y="309.25" width="22.89" height="11.51"/><rect class="cls-2" x="906.58" y="305.8" width="54.48" height="66.69"/><rect class="cls-3" x="926.7" y="305.8" width="12.69" height="11.51"/><rect class="cls-2" x="1057.92" y="382.48" width="54.48" height="66.69"/><rect class="cls-3" x="1078.04" y="382.48" width="12.69" height="11.51"/><rect class="cls-2" x="1050.81" y="636.68" width="54.48" height="66.69"/><rect class="cls-3" x="1070.93" y="636.68" width="12.69" height="11.51"/><rect class="cls-2" x="1050.81" y="563.12" width="54.48" height="66.69"/><rect class="cls-3" x="1070.93" y="563.12" width="12.69" height="11.51"/><rect class="cls-2" x="1050.81" y="489.56" width="54.48" height="66.69"/><rect class="cls-3" x="1070.93" y="489.56" width="12.69" height="11.51"/><path class="cls-4" d="M403.29,783.5v13.68H117.18V783.5h.09V643.25H79.85a2.59,2.59,0,0,1-2.59-2.6V638a2.59,2.59,0,0,1,2.59-2.59h46.33v148Z"/><rect class="cls-5" x="158.09" y="695.48" width="88.06" height="88.06"/><rect class="cls-3" x="190.61" y="695.48" width="20.51" height="15.19"/><path class="cls-4" d="M190.06,841.07a22.86,22.86,0,1,1,22.86-22.85A22.88,22.88,0,0,1,190.06,841.07Zm0-38.71a15.86,15.86,0,1,0,15.86,15.86A15.88,15.88,0,0,0,190.06,802.36Z"/><path class="cls-4" d="M350.83,841.07a22.86,22.86,0,1,1,22.86-22.85A22.88,22.88,0,0,1,350.83,841.07Zm0-38.71a15.86,15.86,0,1,0,15.86,15.86A15.87,15.87,0,0,0,350.83,802.36Z"/><rect class="cls-5" x="297.83" y="695.51" width="88" height="88"/><rect class="cls-3" x="330.33" y="695.51" width="20.5" height="15.18"/></svg>