<svg id="Layer_1" data-name="Layer 1" xmlns="http://www.w3.org/2000/svg" xmlns:xlink="http://www.w3.org/1999/xlink" viewBox="0 0 240 138"><defs><style>.cls-1{fill:none;}.cls-2{fill:#ed1248;}.cls-3{fill:#00abbf;}.cls-4{clip-path:url(#clip-path);}.cls-5{clip-path:url(#clip-path-2);}.cls-6{clip-path:url(#clip-path-3);}.cls-7{clip-path:url(#clip-path-4);}.cls-8{clip-path:url(#clip-path-5);}.cls-9{clip-path:url(#clip-path-6);}.cls-10{clip-path:url(#clip-path-7);}.cls-11{clip-path:url(#clip-path-8);}.cls-12{clip-path:url(#clip-path-9);}.cls-13{clip-path:url(#clip-path-10);}.cls-14{clip-path:url(#clip-path-11);}.cls-15{clip-path:url(#clip-path-12);}.cls-16{clip-path:url(#clip-path-13);}</style><clipPath id="clip-path"><rect class="cls-1" x="74.49" y="93.12" width="8.21" height="12.2"/></clipPath><clipPath id="clip-path-2"><rect class="cls-1" x="82.7" y="93.12" width="11.19" height="12.2"/></clipPath><clipPath id="clip-path-3"><rect class="cls-1" x="94.63" y="93.12" width="2.98" height="12.2"/></clipPath><clipPath id="clip-path-4"><rect class="cls-1" x="99.11" y="93.12" width="9.7" height="12.2"/></clipPath><clipPath id="clip-path-5"><rect class="cls-1" x="110.3" y="93.12" width="8.95" height="12.2"/></clipPath><clipPath id="clip-path-6"><rect class="cls-1" x="119.25" y="93.12" width="8.95" height="12.2"/></clipPath><clipPath id="clip-path-7"><rect class="cls-1" x="131.94" y="93.12" width="8.21" height="12.2"/></clipPath><clipPath id="clip-path-8"><rect class="cls-1" x="140.89" y="93.12" width="2.24" height="12.2"/></clipPath><clipPath id="clip-path-9"><rect class="cls-1" x="145.37" y="93.12" width="11.94" height="12.2"/></clipPath><clipPath id="clip-path-10"><rect class="cls-1" x="159.54" y="93.12" width="2.24" height="12.2"/></clipPath><clipPath id="clip-path-11"><rect class="cls-1" x="162.52" y="93.12" width="9.7" height="12.2"/></clipPath><clipPath id="clip-path-12"><rect class="cls-1" x="172.97" y="93.12" width="8.21" height="12.2"/></clipPath><clipPath id="clip-path-13"><rect class="cls-1" x="182.67" y="93.12" width="9.7" height="12.2"/></clipPath></defs><g id="surface1"><path class="cls-2" d="M62.22,36.11l-.59,0h-.18l-.09,0h-.54l-.08,0h-.05l-.08,0h0l-.06,0H60.4l-.07,0-.08,0h0l-.06,0h-.09l-.08,0h0l-.07,0,0,0-.07,0-.06,0h-.05l0,0-.06,0,0,0h-.06l0,0,0,0-.05,0,0,0-.05,0,0,0,0,0-.05,0,0,0-.06,0-.05,0h0l0,0,0,0-.05,0,0,0,0,0,0,0,0,0,0,0,0,0,0,0,0,0,0,0,0,0,0,0,0,0h0l0,0h0l0,0s0,0,0,0l0,0,0,0,0,0h0a.1.1,0,0,0-.05,0h0l0,0h0l0,0h0l0,0h0a4.35,4.35,0,0,0-.68.65c-2.1,2.09-6.62,6.69-6.84,6.92a1.71,1.71,0,0,1-1.28.64,1.63,1.63,0,0,1-1.06-.72l0,0,0,0-3.32-4.24v0a3.51,3.51,0,0,0-2.54-1.25,5.1,5.1,0,0,0-3.69,1.77c-1,1-8.88,9-9,9.12a.34.34,0,0,1-.06.06l0,.06-.05,0-.07.07s0,0,0,0a8.48,8.48,0,0,1-2.79,1.82,3.84,3.84,0,0,1-1.23.29H9.8L8.13,54.48H24.91a5.24,5.24,0,0,0,1.72-.34,10.49,10.49,0,0,0,3.77-2.51h0L36,46.09a3.35,3.35,0,0,1,2.36-1.19,1.79,1.79,0,0,1,1.28.65l3.84,4.77a2.19,2.19,0,0,0,1.54.92,3.42,3.42,0,0,0,2.92-1.19h0c.08-.09,8.2-8.5,10.32-10.62l0,0,0,0a4,4,0,0,1,1-.8,5.68,5.68,0,0,1,2.94-.77H65.8l1.68-1.68"/><path class="cls-3" d="M23.79,38.63v-.05a4.42,4.42,0,0,0-.91-3.69c-1.27-1.46-3.69-2.16-7.38-2.13H9.77L8.09,34.43h7.42a15,15,0,0,1,4.08.42,4,4,0,0,1,2,1.13,2.42,2.42,0,0,1,.58,1.68,4.16,4.16,0,0,1-.05.6A16.18,16.18,0,0,1,21,41,14.92,14.92,0,0,0,19.9,44c-.11.41-.21.77-.3,1s-.07.18-.11.27a3.37,3.37,0,0,1-.87,1.45,4.71,4.71,0,0,1-2.89,1.06h-6L8.09,49.5h7.75c4-.32,4.86-2.62,5.22-3.59l.08-.22a10.36,10.36,0,0,0,.38-1.21,12.68,12.68,0,0,1,1-2.74,17.38,17.38,0,0,0,1.28-3Zm12-4.2H55.81l1.67-1.67H35.78a6.18,6.18,0,0,0-4.53,1.94l-3.66,3.66a2.44,2.44,0,0,0-.25.29l-2.82,2.84a3.75,3.75,0,0,0-1.32,2.27c0,.14,0,.28,0,.41a3.49,3.49,0,0,0,.8,2.16l7.21,9.38a6.34,6.34,0,0,0,4.9,2.15H47.45l1.68-1.68H42.36a5,5,0,0,1-2.66-.74,4,4,0,0,1-.91-.76l-10-12.78a2,2,0,0,1-.46-1.2,1.67,1.67,0,0,1,.06-.44,1.51,1.51,0,0,1,.26-.51c1.82-1.84,3.81-3.86,3.82-3.86a.2.2,0,0,1,.07-.06l.06-.06.06-.06.06-.05.07-.07.06-.05.08-.07,0,0,.09-.06a.08.08,0,0,0,0,0l.11-.07,0,0,.13-.08h0l.12-.07,0,0,.11-.06,0,0,.11,0,0,0,.14-.07h0a5.05,5.05,0,0,1,.74-.27,3.39,3.39,0,0,1,1-.14h0"/><path class="cls-2" d="M90.65,63.5V78.79L75.73,63.15h-.79V88.27h4.25V73L94.11,88.63h.79V63.5"/><path class="cls-2" d="M103.72,84.2V80.84h10.22v-4H103.72V67.57h11.54V63.5h-16V88.27h16.53V84.2"/><path class="cls-2" d="M228.39,80.82l-.2.27a8.18,8.18,0,0,1-6.94,3.36c-4.66,0-8-3.6-8-8.56s3.31-8.57,7.88-8.57a7.41,7.41,0,0,1,6.55,3.15l.21.28,3.47-2.46-.21-.29a11.46,11.46,0,0,0-9.91-4.82,12.71,12.71,0,0,0-.11,25.41c4.69,0,8-1.56,10.58-5.06l.23-.3"/><path class="cls-2" d="M194,80.84l3.46-8.25c1.27,3,2.89,6.94,3.41,8.25ZM197.82,63h-.68L186.29,88.27h4.6l1.38-3.36h10.28l1.38,3.36h4.77"/><path class="cls-2" d="M173.46,84.2V63.5H169V88.27h14.32l1.6-4.07"/><path class="cls-2" d="M154.31,63.31l-.8,4.07c4.18.48,7.12,3.91,7.12,8.51,0,5-3.43,8.56-8.14,8.56s-8.14-3.6-8.14-8.56,3.42-8.57,8.14-8.57h.19l-1.68-4a12.76,12.76,0,1,0,3.31,0"/><path class="cls-2" d="M126.17,78.58H124.3v-11h1.87c4.15,0,6.16,1.79,6.16,5.49s-2,5.52-6.16,5.52m6.11,2.62a8.62,8.62,0,0,0,4.65-8.14c0-6-4-9.56-10.61-9.56H119.8V88.27h4.5V82.54h2a12.85,12.85,0,0,0,1.56-.09L132,88.27h5.37s-4.63-6.48-5.06-7.07"/><path class="cls-2" d="M84.38,44.4c.24-.29,8.87-11.21,8.87-11.21h-5L79.11,44.83V33.19H74.76V58.12h4.35V50.7l2.44-3c.36.5,7.68,10.41,7.68,10.41h5.29S84.61,44.7,84.38,44.4"/><path class="cls-2" d="M104.13,50.79c.26-.6,3.29-7.83,3.69-8.76l3.63,8.76Zm4-18.1h-.54L96.66,58.12h4.43s1.28-3.13,1.4-3.41h10.59c.12.28,1.4,3.41,1.4,3.41h4.61"/><path class="cls-2" d="M137.83,33.19V48.88L122.52,32.83h-.65V58.12H126V42.43l15.3,16h.65V33.19"/><path class="cls-2" d="M155.92,43.74,154.23,43c-2.76-1.23-3.69-1.93-3.69-3.65s1.1-2.59,2.87-2.59A4,4,0,0,1,157.19,39l.14.23L160.65,37l-.12-.21a7.75,7.75,0,0,0-7.19-4c-4.14,0-7,2.72-7,6.61,0,4.18,3,6.07,6.19,7.48l1.69.75c2.08.94,3.73,1.69,3.73,3.84,0,1.79-1.6,3-4.06,3a5.63,5.63,0,0,1-5.31-3.17l-.12-.22L144.74,53l.12.22a9.73,9.73,0,0,0,9,5.27c5.13,0,8.33-2.68,8.33-7,0-4.52-3-6.22-6.3-7.7"/><path class="cls-2" d="M171.22,50.79,174.9,42c1.35,3.25,3.15,7.57,3.63,8.76Zm4-18.1h-.54L163.75,58.12h4.42s1.28-3.13,1.4-3.41h10.59c.12.28,1.4,3.41,1.4,3.41h4.61"/><path class="cls-2" d="M189.06,58.12h4.34V33.19h-4.34Z"/><g class="cls-4"><path class="cls-2" d="M77.41,100.84c2.2,0,3.1-1,3.1-2.76s-.92-2.78-3.1-2.78H76.34v5.54Zm-1.07,4.31h-1.8V93.7h2.93c3.15,0,4.88,1.73,4.88,4.38s-1.74,4.36-4.88,4.36H76.34"/></g><g class="cls-5"><path class="cls-2" d="M88.42,97.42,86.51,102h3.78s-1.87-4.53-1.87-4.53m-3.24,7.73H83.37l5-11.69h.1l5,11.69H91.61l-.65-1.6H85.84"/></g><g class="cls-6"><path class="cls-2" d="M95.17,105.15H97V93.7h-1.8Z"/></g><g class="cls-7"><path class="cls-2" d="M101.19,97.62v7.53H99.51V93.53h.14l7.34,7.69V93.7h1.68v11.61h-.13"/></g><g class="cls-8"><path class="cls-2" d="M113.71,95.3H110.3V93.7h8.6v1.6h-3.4v9.85h-1.79"/></g><g class="cls-9"><path class="cls-2" d="M121.2,102.13a2.74,2.74,0,0,0,2.59,1.55c1.21,0,2-.57,2-1.5s-.81-1.44-1.82-1.9l-.79-.35c-1.68-.74-2.83-1.62-2.83-3.4a3,3,0,0,1,3.19-3,3.53,3.53,0,0,1,3.26,1.8l-1.36.89a2,2,0,0,0-1.87-1.11,1.31,1.31,0,0,0-1.47,1.33c0,.91.56,1.26,1.8,1.82l.79.35c1.74.78,2.88,1.56,2.88,3.5,0,2.11-1.62,3.17-3.78,3.17a4.44,4.44,0,0,1-4.13-2.41"/></g><g class="cls-10"><path class="cls-2" d="M132.56,93.7h1.8v9.85h5v1.6h-6.85"/></g><g class="cls-11"><path class="cls-2" d="M141.28,105.15h1.8V93.7h-1.8Z"/></g><g class="cls-12"><path class="cls-2" d="M146.75,93.46h.1l4.53,7,4.53-7h.1l1.27,11.69h-1.76l-.74-7.09-3.4,5.33h-.07l-3.41-5.33-.74,7.09h-1.67"/></g><g class="cls-13"><path class="cls-2" d="M159.68,105.15h1.8V93.7h-1.8Z"/></g><g class="cls-14"><path class="cls-2" d="M166.58,95.3h-3.4V93.7h8.6v1.6h-3.4v9.85h-1.8"/></g><g class="cls-15"><path class="cls-2" d="M173.44,93.7h7.28v1.6h-5.48v4.75h4.86v1.56h-4.86v1.94H181v1.6h-7.52"/></g><g class="cls-16"><path class="cls-2" d="M186.2,103.55c3,0,4.26-1.7,4.26-4.13s-1.3-4.12-4.26-4.12h-1.33v8.25Zm-3.14-9.85h3.24c3.74,0,6,2.34,6,5.72s-2.28,5.73-6,5.73h-3.24"/></g></g></svg>