<svg id="Layer_1" data-name="Layer 1" xmlns="http://www.w3.org/2000/svg" viewBox="0 0 240 138"><defs><style>.cls-1{fill:#ea1e24;}.cls-2{fill:#201d1e;}.cls-3{fill:#e71f25;}.cls-4{fill:#211e1f;}.cls-5{fill:#e61f26;}.cls-6{fill:#e81f26;}.cls-7{font-size:6.98px;fill:#fff;font-family:MyriadPro-Regular, Myriad Pro;letter-spacing:0.29em;}.cls-8{letter-spacing:0.25em;}.cls-9{letter-spacing:0.29em;}.cls-10{letter-spacing:0.25em;}</style></defs><path class="cls-1" d="M132.07,37.79c5-2.16,8.66.34,8.25,5.48a17,17,0,0,1-4.55,9.8,45.52,45.52,0,0,1-13.14,10c-2.34,1.27-4,1.22-5.14-1.52,5-3.14,10-6.31,14.35-10.41a23.32,23.32,0,0,0,4-4.73C138.56,42,137.4,39.16,132.07,37.79Z"/><path class="cls-2" d="M117.77,70.8c1.61-1.35.58-2.5-.49-3.49-1.51-1.41-3.27-2.57-4.34-4.41a8.79,8.79,0,0,1-1.25-2.65c-.27-1.47-1-3.53.91-4.16s1.81,1.59,2.35,2.73a17.75,17.75,0,0,0,3.48,5.39,6.86,6.86,0,0,1,2.36,5c0,1.63-.11,3.27-1.91,4A4.34,4.34,0,0,1,114,71.87a2.58,2.58,0,0,1-.54-3,1.56,1.56,0,0,1,1.66-1c1.16.12,1.63,1,1.92,2C117.17,70.16,117,70.65,117.77,70.8Z"/><path class="cls-3" d="M136.08,29c-5.73-.95-13.44,3.09-16,8.06a3.19,3.19,0,0,0,0,3.62c.33.46,1,.87.48,1.52s-1.27.41-1.9.17c-2.27-.86-2.87-2.6-2.23-4.78,1.48-5,11.42-11.41,16.59-10.69C134.27,27.1,134.58,27.3,136.08,29Z"/><path class="cls-4" d="M120.25,45.24c1.32-.08,2.08.52,2.1,1.87,0,1.13-.49,2-1.74,1.9-5-.17-7.58,3.07-9.81,6.87-.41.71-.67,1.91-1.87,1.34s-.86-1.51-.49-2.54C110.29,49.57,115.75,45.16,120.25,45.24Z"/><path class="cls-5" d="M101.31,59.77c1.62,4.73,2.74,5.23,8,4.22,1.41-.26,3.1-1.31,4.08.89.48,1.09.67,1.77-.9,2a34.28,34.28,0,0,1-6.78.48C100.76,67,99.38,64.81,101.31,59.77Z"/><path class="cls-6" d="M128.93,40.38a3.36,3.36,0,0,1-3.5,3.16,3.61,3.61,0,0,1-3.65-3.8,3.55,3.55,0,0,1,3.85-3.57C127.62,36.29,129,37.87,128.93,40.38Z"/><path d="M84.93,80.34,80.37,84l-.78-.26a13.15,13.15,0,0,0-4.22-.58,8.19,8.19,0,0,0-4.73,1.09,17,17,0,0,0,2.51.72c3.43.77,5.1,1.69,5.73,3.16a3.36,3.36,0,0,1-.37,3.13C76.77,94.15,71.76,96,65.45,96a20.34,20.34,0,0,1-6.91-1l-2.2-1,4.28-3.63.83.33a15.07,15.07,0,0,0,5.12.8c3.2,0,5-.82,5.62-1.46a11.4,11.4,0,0,0-2.33-.71c-3.48-.72-5.33-1.7-6-3.19a3.09,3.09,0,0,1,.29-3c1.61-2.69,6.52-4.5,12.21-4.5a19.5,19.5,0,0,1,6,.77Z"/><polygon points="100.08 83.39 99.1 85.01 109.25 85.01 106.58 89.48 96.43 89.48 92.69 95.75 85.75 95.75 95.81 78.9 113.74 78.9 111.06 83.39 100.08 83.39"/><path d="M151.37,78.9l-8,16.85h-6.71l3.86-8-1.08.84-9.15,7H125.7l-.47-8c0-.16,0-.33,0-.49-.47.67-.94,1.35-1.42,2l-4.72,6.57h-7L124.4,78.9H131l.68,8.08c0,.53.06,1,.06,1.5.91-.76,2-1.59,3.19-2.55l9.2-7Z"/><path d="M186.24,80.18l-4.36,3.72-.78-.22a16.79,16.79,0,0,0-4.64-.52c-5.94,0-10.77,1.91-12.6,5-.33.55-.66,1.29-.38,1.79.42.74,2.24,1.53,6.07,1.53a29.38,29.38,0,0,0,5.68-.54l2-.44L176.8,95l-1.06.24a38.58,38.58,0,0,1-7.81.7c-4,0-9-.65-10.8-3.76-.63-1.11-1.06-3,.46-5.51,2.87-4.8,10.76-8,19.64-8a22.51,22.51,0,0,1,6.46.69Z"/><polygon class="cls-1" points="183.49 111.12 53.76 111.12 56.25 101.85 185.97 101.85 183.49 111.12"/><text class="cls-7" transform="matrix(0.97, 0, -0.26, 0.97, 61.45, 108.46)">P I P E S &amp; F I<tspan class="cls-8" x="66.05" y="0"> </tspan><tspan class="cls-9" x="69.28" y="0">T</tspan><tspan class="cls-10" x="74.78" y="0"> </tspan><tspan x="78" y="0">T I N G S</tspan></text></svg>