<svg id="Layer_1" data-name="Layer 1" xmlns="http://www.w3.org/2000/svg" viewBox="0 0 235 162"><defs><style>.cls-1{fill:#693a7c;}</style></defs><path class="cls-1" d="M207.79,122.19a13.94,13.94,0,1,1,13.94-13.94A13.95,13.95,0,0,1,207.79,122.19Zm0-24a10.11,10.11,0,1,0,10.11,10.1A10.11,10.11,0,0,0,207.79,98.15Z"/><path class="cls-1" d="M105.27,122.19a13.94,13.94,0,1,1,13.94-13.94A13.95,13.95,0,0,1,105.27,122.19Zm0-24a10.11,10.11,0,1,0,10.11,10.1A10.11,10.11,0,0,0,105.27,98.15Z"/><polygon class="cls-1" points="234.11 110.03 219.81 110.03 219.81 106.2 230.28 106.2 230.28 84.98 206.65 62.13 184.57 62.13 184.57 106.2 195.78 106.2 195.78 110.03 180.74 110.03 180.74 58.29 208.2 58.29 234.11 83.35 234.11 110.03"/><path class="cls-1" d="M218.84,87.22H193.08A4.42,4.42,0,0,1,188.66,83l-.52-12.45a4.44,4.44,0,0,1,4.43-4.62h13.82a4.4,4.4,0,0,1,3.13,1.3L222,79.65a4.44,4.44,0,0,1-3.13,7.57ZM192.57,69.74a.6.6,0,0,0-.44.18.63.63,0,0,0-.16.44l.52,12.45a.59.59,0,0,0,.59.58h25.76a.56.56,0,0,0,.55-.37.56.56,0,0,0-.13-.66L206.81,69.91a.61.61,0,0,0-.42-.17Z"/><path class="cls-1" d="M71,102H3.28a2.4,2.4,0,0,1,0-4.79H71A2.4,2.4,0,1,1,71,102Z"/><path class="cls-1" d="M70.67,81.11H26.23a1.92,1.92,0,0,1,0-3.84H70.67a1.92,1.92,0,0,1,0,3.84Z"/><path class="cls-1" d="M69.21,59.44h0L10.57,59a1,1,0,0,1-1-1,1,1,0,0,1,1-.95l58.64.47a1,1,0,1,1,0,1.91Z"/><polygon class="cls-1" points="179.21 109.75 117.28 109.75 117.28 105.92 175.38 105.92 175.38 43.64 81.48 43.64 81.48 105.92 93.26 105.92 93.26 109.75 77.65 109.75 77.65 39.81 179.21 39.81 179.21 109.75"/></svg>