<svg id="Layer_1" data-name="Layer 1" xmlns="http://www.w3.org/2000/svg" viewBox="0 0 170 191"><defs><style>.cls-1{fill:#fff;}</style></defs><path class="cls-1" d="M132.08,50.34H38.45A23.31,23.31,0,0,0,15.16,73.63v93.63a23.3,23.3,0,0,0,23.29,23.29H65.79a3.86,3.86,0,0,0,3.9-3.89V132.13h31.15v54.53a3.91,3.91,0,0,0,3.9,3.89h27.34a23.3,23.3,0,0,0,23.29-23.29V73.63A23.31,23.31,0,0,0,132.08,50.34Zm15.5,116.92a15.49,15.49,0,0,1-15.5,15.5H108.63V124.34H61.9v58.42H38.45A15.54,15.54,0,0,1,23,167.26V73.63a15.54,15.54,0,0,1,15.5-15.5h93.63a15.49,15.49,0,0,1,15.5,15.5Z"/><path class="cls-1" d="M85.29,107.79a14.61,14.61,0,1,1,14.6-14.61A14.62,14.62,0,0,1,85.29,107.79Zm0-23.37a8.77,8.77,0,1,0,8.76,8.76A8.78,8.78,0,0,0,85.29,84.42Z"/><path class="cls-1" d="M167.08,57.16a2.88,2.88,0,0,1-1.59-.48L87.59,6.05a2.92,2.92,0,1,1,3.18-4.9l77.9,50.64a2.92,2.92,0,0,1-1.59,5.37Z"/><path class="cls-1" d="M3.49,57.16A2.92,2.92,0,0,1,1.9,51.79L79.8,1.15A2.92,2.92,0,0,1,83,6.05L5.08,56.68A2.88,2.88,0,0,1,3.49,57.16Z"/></svg>