<svg id="Layer_1" data-name="Layer 1" xmlns="http://www.w3.org/2000/svg" viewBox="0 0 215 215"><defs><style>.cls-1{fill:#fff;}.cls-2{fill:#61a3aa;}</style></defs><circle class="cls-1" cx="107.5" cy="107.5" r="105.92"/><path class="cls-2" d="M108.29,34.86c-20.85,0-23.46.09-31.65.46S62.88,37,58,38.89A39.25,39.25,0,0,0,35.54,61.34,56.81,56.81,0,0,0,32,80c-.37,8.19-.46,10.81-.46,31.66s.09,23.46.46,31.65,1.68,13.76,3.57,18.64A39.3,39.3,0,0,0,58,184.39c4.88,1.89,10.46,3.19,18.64,3.57s10.8.46,31.65.46,23.47-.09,31.66-.46a56.81,56.81,0,0,0,18.64-3.57A39.25,39.25,0,0,0,181,161.93c1.9-4.88,3.2-10.46,3.57-18.64s.46-10.8.46-31.65S185,88.17,184.61,80,182.94,66.23,181,61.34a39.19,39.19,0,0,0-22.45-22.45c-4.89-1.9-10.47-3.2-18.64-3.57S129.14,34.86,108.29,34.86Zm0,13.83c20.5,0,22.93.08,31,.45,7.48.34,11.55,1.59,14.25,2.64a25.49,25.49,0,0,1,14.58,14.58c1,2.7,2.3,6.77,2.64,14.25.37,8.1.45,10.53.45,31s-.08,22.93-.45,31c-.34,7.49-1.59,11.55-2.64,14.26a25.44,25.44,0,0,1-14.58,14.57c-2.7,1-6.77,2.3-14.25,2.65-8.1.36-10.53.44-31,.44s-22.93-.08-31-.45c-7.49-.34-11.55-1.59-14.26-2.64a25.38,25.38,0,0,1-14.57-14.57c-1-2.71-2.3-6.77-2.65-14.26-.36-8.09-.44-10.52-.44-31s.08-22.93.44-31c.35-7.48,1.6-11.55,2.65-14.25A25.44,25.44,0,0,1,63,51.78c2.71-1.05,6.77-2.3,14.26-2.64,8.09-.37,10.52-.45,31-.45"/><path class="cls-2" d="M108.29,137.23a25.6,25.6,0,1,1,25.6-25.59A25.59,25.59,0,0,1,108.29,137.23Zm0-65a39.43,39.43,0,1,0,39.43,39.43,39.42,39.42,0,0,0-39.43-39.43m50.2-1.56a9.22,9.22,0,1,1-9.21-9.21,9.21,9.21,0,0,1,9.21,9.21"/></svg>