<svg id="Layer_1" data-name="Layer 1" xmlns="http://www.w3.org/2000/svg" xmlns:xlink="http://www.w3.org/1999/xlink" viewBox="0 0 1931.98 1939.07"><defs><style>.cls-1,.cls-12{fill:#568ea3;}.cls-2{fill:#fff;}.cls-2,.cls-5{stroke:#a67c52;stroke-width:9px;}.cls-11,.cls-12,.cls-13,.cls-14,.cls-16,.cls-17,.cls-18,.cls-19,.cls-2,.cls-20,.cls-21,.cls-22,.cls-4,.cls-5,.cls-9{stroke-miterlimit:10;}.cls-3{fill:url(#linear-gradient);}.cls-4,.cls-8{fill:#a50104;}.cls-11,.cls-12,.cls-13,.cls-14,.cls-16,.cls-17,.cls-18,.cls-19,.cls-20,.cls-21,.cls-22,.cls-4,.cls-9{stroke:#1e0b0e;}.cls-5,.cls-9{fill:#eaefbd;}.cls-14,.cls-6{fill:#ea9010;}.cls-7{fill:url(#linear-gradient-2);}.cls-10{fill:none;}.cls-11{fill:#dba237;}.cls-11,.cls-12,.cls-13,.cls-14{stroke-width:0.25px;}.cls-13,.cls-21{fill:#90be6d;}.cls-15{fill:#f4f4f4;}.cls-16{fill:url(#radial-gradient);}.cls-17{fill:url(#radial-gradient-2);}.cls-18{fill:url(#radial-gradient-3);}.cls-19{fill:url(#radial-gradient-4);}.cls-20{fill:url(#radial-gradient-5);}.cls-21{stroke-width:0.75px;}.cls-22{fill:url(#linear-gradient-3);}.cls-23{fill:url(#radial-gradient-6);}</style><linearGradient id="linear-gradient" x1="1449.6" y1="1105.86" x2="1403.69" y2="1245.13" gradientUnits="userSpaceOnUse"><stop offset="0.55" stop-color="#eaefbd"/><stop offset="1" stop-color="#ea9010"/></linearGradient><linearGradient id="linear-gradient-2" x1="872.14" y1="446.84" x2="884.94" y2="1073.77" gradientUnits="userSpaceOnUse"><stop offset="0.32" stop-color="#eaefbd"/><stop offset="0.41" stop-color="#dee8b2"/><stop offset="0.56" stop-color="#bdd795"/><stop offset="0.75" stop-color="#90be6d"/></linearGradient><radialGradient id="radial-gradient" cx="757.03" cy="610.66" r="45.44" gradientUnits="userSpaceOnUse"><stop offset="0" stop-color="#fff"/><stop offset="0.21" stop-color="#e6b9ba"/><stop offset="0.42" stop-color="#cf787a"/><stop offset="0.61" stop-color="#bd4547"/><stop offset="0.78" stop-color="#b02022"/><stop offset="0.91" stop-color="#a8090c"/><stop offset="1" stop-color="#a50104"/></radialGradient><radialGradient id="radial-gradient-2" cx="984.94" cy="615.36" r="45.51" xlink:href="#radial-gradient"/><radialGradient id="radial-gradient-3" cx="936.23" cy="625.13" r="45.51" xlink:href="#radial-gradient"/><radialGradient id="radial-gradient-4" cx="800.69" cy="624.69" r="45.44" xlink:href="#radial-gradient"/><radialGradient id="radial-gradient-5" cx="864.6" cy="639.52" r="45.06" xlink:href="#radial-gradient"/><linearGradient id="linear-gradient-3" x1="870.79" y1="485.61" x2="870.6" y2="95.79" gradientUnits="userSpaceOnUse"><stop offset="0" stop-color="#fff"/><stop offset="0.01" stop-color="#fefcf8"/><stop offset="0.14" stop-color="#f6ce96"/><stop offset="0.24" stop-color="#efad4e"/><stop offset="0.31" stop-color="#ec9821"/><stop offset="0.35" stop-color="#ea9010"/><stop offset="0.37" stop-color="#e5860f"/><stop offset="0.58" stop-color="#c33f09"/><stop offset="0.72" stop-color="#ad1205"/><stop offset="0.8" stop-color="#a50104"/></linearGradient><radialGradient id="radial-gradient-6" cx="869.66" cy="391.47" r="134.1" gradientUnits="userSpaceOnUse"><stop offset="0" stop-color="#eaefbd"/><stop offset="1" stop-color="#568ea3"/></radialGradient></defs><circle class="cls-1" cx="965.99" cy="969.53" r="957.55"/><path class="cls-2" d="M1311.23,1353.87c5.23,30.6-6.25,77.3-15.7,113.87-2.31,9-7.66,15.4-8.81,23.24-2.82,19.23-.21,60.72,17.53,69.49,16.66,8.22,29.17-6.1,38.47-9.19,16.92-5.64,34.8,9.24,52.26,5.61,19.54-4.06,26.61-22.84,35.91-22.64,10.9.24,23.18,4.61,34,6.64,7.48,1.4,29.22,3,42.81-6.9,4.78-3.49,16.64-18.42,6.22-31.4-7.47-9.28-23.74-23.26-23.15-30.29,5.86-70.21,8.06-181.89-9.41-226-14-35.41-49.45-66-76.59-89.87-22.86-20.14-36.26-68.49-48.51-96-56.65,34.24-125.42,101.09-159.11,158.06-13.16,22.27,17.19,18.69,29.53,40.84,7.26,13,27.27,32.74,46.73,51.19C1291.64,1327.72,1309.51,1343.79,1311.23,1353.87Z"/><path class="cls-3" d="M1405,1107.73c-11.41,13.39-27.35,22-41,33a136.9,136.9,0,0,0-47.8,80.25,59.54,59.54,0,0,1,36.38-19c.9,10.39-6.76,19.25-11.45,28.55-10.07,20-5.84,46.17,10,61.94-2.32-3.85-.51-9.11,2.86-12.09s7.89-4.21,12.23-5.36l26.93-7.14a298.43,298.43,0,0,1-34.08,37.08,118.27,118.27,0,0,0,50.67-22.42L1384,1308.1c25.53-4.83,51.38-12.39,71.61-28.69s33.75-43.05,28.19-68.43c9.63,12.93,10.34,31.84,1.7,45.44,25.38-23,34.4-62.33,21.59-94.11-5.21-12.9-13.72-25-14.49-38.87-.27-4.84.37-10-1.89-14.28-3.77-7.17-13.42-8.38-20-13.1s-9.93-13-11.88-21-3-16.31-6.74-23.61c-2.9-5.66-10.55-14.43-17.93-12.31s-6.8,14.55-8.11,20.54C1422.32,1076.89,1416.57,1094.16,1405,1107.73Z"/><path class="cls-2" d="M233.13,992.31c-6.89,14.49-13.28,33.75-17.53,49.25-7.49,27.41-12.28,55.76-12.74,84.66-.36,22.82,2.86,44.53,6.57,66.83,1,5.75-1.06,21.52-5.78,34-6.85,18-20.44,31.54-23.43,37.29-5.44,10.48-5.73,18.86-2.58,33.43,3.78,17.47,15.89,40.64,25.06,58.19,2.62-7,6.16-21.37,13.79-35.93,7.82-14.92,21.5-31.54,27.57-46,4.3-10.21,2.65-19.27,1.89-26.09-1.46-13-5.75-26.25-10.81-39.15-4.88-12.4-12.21-23.7-14.73-35.91-3.34-16.2-1.62-31.47,1-47.11,4.25-25.08,12.86-50.36,21.44-76.25,7.14-21.52,25.38-49.28,44.77-71.15S329.32,938.5,336.34,935c29.45-14.82,60.24-71.55,66.93-103.83-.48,2.4-16.41-13.71-20.47-12.63-8.54,2.27-16.82-1.19-23.49,4.34-16.22,13.44-45.41,51.09-58.47,67.66C274.53,923.86,250.12,956.62,233.13,992.31Z"/><path class="cls-2" d="M624.6,1305.18c8.51,23.79,14.95,48.34,18.21,71.83,8.08,58.26,10,104.25,5.79,162-1,13.61-9.18,39.88-3.32,52.21,4.81,10.13,19.7,24.85,30.05,29.17s19.41,5.06,30.33,7c24.75,4.32,40.27-7.92,46.21-8.68,11-1.4,31.64,19.81,53,9.7,6-2.84,10.94-8.63,16.85-8.17,15.16,1.19,34.94,10,49,.77,12.46-8.16,18.14-13.36,22.6-29.49,5.72-20.65-5.26-37.83-16.47-47.11-8.4-7-17.82-14.67-24.17-25.1-15.16-24.93-29.8-57.48-33.28-84.75-9.54-74.86-9.25-149.34-8.72-225.35-47.24-10.7-83.74-15.46-132-19.3-24.06-1.91-48.44-3.51-72.59-3.16-8.45.13-17.52.58-16.21,11s5.78,22.35,9.21,32.39C607.55,1254.93,615.77,1280.52,624.6,1305.18Z"/><path class="cls-2" d="M1440.41,999.25c9.93-12.28,19.41-24.49,28-36.32"/><path class="cls-2" d="M1706.42,566.65c-9.13,3.17-48.25,31.88-72,63.57-20.59,27.47-38.83,50.22-47.49,80.43-6.82,23.76-10.38,41.66-15.32,56.68-10,30.41-18.23,48.53-28.56,74.29-16,40-38,60.4-38.81,62.3-7.41,17.24-20.18,37.51-35.81,59l-28,36.32c-4.24,5.25-8.57,10.5-12.94,15.75-8.41,10.08-17,20.12-25.55,30-39.78,45.76-78.57,87-93.16,106.82-65.26,88.72-97.34,128.85-122,190.46-4.89,12.18-24.55,85.29-25.37,97.88-2.7,41.81-3.37,36.33-.85,74.55,1.08,16.36,29.71,66.19,33.71,79.66,11.86,40,2,67.44-79.49,54.81-38.45-5.08-96-13.31-104.68-14.13-3.23-.3-8-1.84-12.56-1.23-14.81,2-25.51,7.49-36.59,12.39-36.1,15.91-37.91-25.05-25.92-80.44,9.39-43.39,28.6-96.72,40.75-138.72,10.3-35.62,22.68-89.45,39.25-193.19-141.32,31.88-325.82,36.1-409.53-33.7-31.2,68.51-101.8,145.64-147.06,186.26-23.3,20.9-43.18,37-57.45,53.11-11,12.41-31.73,39.62-31.92,73.53-.1,18.77,9.38,40.26,15.07,56.93,8.6,25.22.14,40.77-5.11,46.64-16.3,18.25-38.44,15.5-62,9.79-23.77-5.78-58.23-26.55-78.35-39.36-31.35-20-55.39-45.08-60.11-77.07-2.44-16.48-.12-40.9,12.42-60.93,29.07-46.4,36.38-43,64.79-82.35,11.22-15.53,21.88-36,33.08-57.06,20.11-37.72,43-79.42,55-111.32,15-39.67,11.92-68.47,6-95.66-5.59-25.51-10.72-50.38-14.13-82.71-2.68-25.49-8.32-102,15.15-173.63,8.51-26,24.17-56,41.7-77.61,27.89-34.39,71.87-68,111.32-89.71,40.28-22.17,78.07-36.89,88.51-40.34,175.93-58,341.44-37.33,410.46-23.71,113.87,22.47,60.09,6.7,162.43,39.75,6.36,2.05,50-100.58,94.36-149,38-41.5,96.93-76.62,117.11-86.46,23.38-11.41,48.55-26.59,74.55-35.07,41-13.37,80.84-17.76,90.9-21.1,16.55-5.51,41.34-24.67,49.36-45.37,8.68-22.4-3.61-46-20.56-52.59-12.22-4.73-35.71-7.31-59.1.89-27.75,9.74-55.76,31.46-71.49,40.34-21.38,12.08-60.49,27.92-95.49,26.43-35.5-1.52-62.4-16.61-71-24-1.32-1.14-23.9-18.92-36.14-37.56-8.53-13-16.22-29.31-17.87-41-.53-3.75-4.08-5.55-1.91-8.43,2.85-3.79,25.59,2.09,34.21-5.74,22.07-20.08,46.07-20.44,43.53-2.17-.57,4.07.21,7.49.38,10.85a113.83,113.83,0,0,0,2,17.31c1.91,9,11,20.17,17.24,24,16,9.86,30,10.48,43.24,10.26,23.6-.4,26.12-10,54.63-29.51,15.87-10.84,48.39-33.58,66.51-44.81,24.62-15.25,56.19-20.08,93.7-21.57,35.11-1.4,75.45,17.27,91.91,31,14,11.67,32,29.95,41.1,46.93,14.33,26.79,11.78,57.68,10.86,66.69a218.63,218.63,0,0,1-22.34,74.81c-9.16,18-16.9,41.29-35.74,51.44C1553.6,508.15,1710.32,565.29,1706.42,566.65Z"/><path class="cls-4" d="M1444.66,1001.12c-2,6.94-6.47,12.9-12.94,15.75a22.08,22.08,0,0,1-10.77,1.72c-12.55-1-26.64-11-37.39-19.67a233,233,0,0,1-47.62-51.83c-22.83-33.92-43.21-68.82-58.73-107.83a277.89,277.89,0,0,1-16.71-63.74c-1.15-8.68-2.46-18.33-1.58-26.93.69-6.82,6.64-14.49-3.22-18.77-6.77-2.94-15,.62-19.5,6.48a33,33,0,0,0-6.88,20.75c1.86,58.41,23,107.58,47,153.66,13.09,25.1,29.07,47.7,46.08,68.93,19,23.77,39.82,45.45,68,59.88,6.24,3.19,10.64,5.6,15.72,7.3a54,54,0,0,0,11.22,2.4c11.41,1.31,26.11-1.61,35.36-8.43,8.69-6.4,15.51-15.29,20.17-26.93,4.35-10.86,3.79-17.92,3.83-29.62a53.67,53.67,0,0,0-4.07-19.44Z"/><path class="cls-5" d="M656.86,1056.29c120.77,60.71,269.32,62.94,391.86,5.89S1265.17,890,1296.44,758.5c5.68-23.91,8.79-51.22-5.52-71.21-13.57-18.95-38.42-25.29-61.18-30.3-140.58-30.94-282.84-62-426.73-58.29-115,3-232.75,30.07-330.37,92.91-55.75,35.89-59.22,53.49-37.15,114a460.27,460.27,0,0,0,80.44,138.67C554.85,990.48,602.84,1029.14,656.86,1056.29Z"/><path class="cls-6" d="M674.29,994.57c110.51,53.06,246.44,55,358.57,5.14s198.06-150.52,226.67-265.47c5.21-20.9,8-44.77-5-62.24-12.42-16.57-35.16-22.11-56-26.49-128.63-27-258.81-54.24-390.48-51-105.27,2.62-213,26.28-302.3,81.21-51,31.38-54.19,46.76-34,99.67a398.8,398.8,0,0,0,73.61,121.22A408.44,408.44,0,0,0,674.29,994.57Z"/><path class="cls-7" d="M709,954.54c99,50.36,220.72,52.21,321.14,4.88s177.39-142.85,203-251.94c4.66-19.84,7.21-42.49-4.52-59.07-11.11-15.73-31.48-21-50.14-25.14-115.2-25.67-231.79-51.48-349.71-48.36C734.48,577.4,638,599.86,558,652c-45.69,29.77-48.53,44.37-30.45,94.59a383.33,383.33,0,0,0,65.93,115C625.39,899.94,664.73,932,709,954.54Z"/><path class="cls-8" d="M1622.73,596.63c2.48-11.63,23.65-23.86,35.23-26.55s18.76-4.22,30.52-2.45a171.84,171.84,0,0,1-40.88-20.82c-17.7-12.24-32.1-18.57-33-40.07-.28-6.56-.19-15-6.32-17.34-3.75-1.43-8.13.66-10.46,3.92s-3,7.41-3.32,11.4c-.61,8.42-1.47,24.57,11.4,39.06C1623.41,563.53,1622.8,588.16,1622.73,596.63Z"/><path class="cls-9" d="M1708,406.16c16.57-25.36,25.52-34.07,29.28-64.14.45-3.59,4.67-37.38,6.59-40.45s5.75-5.26,9.19-4.11c4.7,1.57,3,44.14,3,49.11-.21,90.08-44.88,138.72-118,191.34-4.52,3.25-15.46,5.91-20.94,4.88-7.49-1.42-15.47-11.67-16.82-19.18-3.57-19.85-3-25,13.76-38.81s31.27-18.82,48.51-32.68C1674.24,442.73,1699.79,418.74,1708,406.16Z"/><line class="cls-10" x1="1400.7" y1="420.93" x2="1490.31" y2="387.15"/><ellipse class="cls-11" cx="1484.48" cy="377.2" rx="26.82" ry="9.41" transform="translate(-44.49 286.59) rotate(-10.87)"/><ellipse class="cls-12" cx="1484.48" cy="374.9" rx="23.95" ry="8.41" transform="translate(-44.06 286.55) rotate(-10.87)"/><path class="cls-4" d="M1355.36,549.58c-21.58,0-55.63-22.31-64.33-35a4.5,4.5,0,0,1,7.42-5.1c8.07,11.73,44.7,34.79,60.78,30.62,14.43-3.74,26.55-19.87,33.26-44.24,8-29.06,5.9-61.42-4.69-72.13a4.5,4.5,0,1,1,6.4-6.32c14.85,15,14.67,52.86,7,80.84-7.59,27.56-22.05,46-39.68,50.56A24.48,24.48,0,0,1,1355.36,549.58Z"/><path class="cls-4" d="M1441.5,458.58c-17.15,0-43.54-22.68-45.88-36.92a4.5,4.5,0,0,1,8.88-1.46c1.56,9.48,25.5,30.95,38.11,29.31,25.75-3.35,43.07-48.8,43.85-62.62a4.5,4.5,0,0,1,9,.51c-1,16.65-20.18,66.93-51.68,71A18.57,18.57,0,0,1,1441.5,458.58Z"/><ellipse class="cls-13" cx="1458.1" cy="383.69" rx="3.53" ry="2.94" transform="translate(-21.73 672.42) rotate(-25.78)"/><ellipse class="cls-13" cx="1512.1" cy="370.55" rx="3.62" ry="2.38"/><path class="cls-14" d="M1391.86,423.79c-1,3.76-5.23,6.95-8.7,7.33a6.16,6.16,0,0,0-4.35,2,5.87,5.87,0,0,0-3.2-3,11.63,11.63,0,0,1-4.44-2.55c-1.28-1.3-1.36-2.23-1.65-4a15.9,15.9,0,0,1,.51-8,8.92,8.92,0,0,1,5.53-5.57c2.44-.74,5.06-.13,7.53.47,2.71.66,7.09.72,8.06,3.83S1392.69,420.68,1391.86,423.79Z"/><path class="cls-13" d="M1389.88,421.63a9.08,9.08,0,0,1-7.12,6,5,5,0,0,0-3.55,1.61,4.87,4.87,0,0,0-2.62-2.48,9.48,9.48,0,0,1-3.63-2.08c-1-1.06-1.11-1.82-1.35-3.29a13.13,13.13,0,0,1,.42-6.56,7.32,7.32,0,0,1,4.52-4.55c2-.6,4.13-.11,6.16.39,2.21.53,5.79.58,6.59,3.13A14.42,14.42,0,0,1,1389.88,421.63Z"/><path class="cls-14" d="M1419.34,396.29c3.23,2.17,4.86,7.21,4.09,10.62a6.17,6.17,0,0,0,.45,4.76,5.87,5.87,0,0,0-3.91,2,11.63,11.63,0,0,1-3.86,3.36c-1.65.79-2.55.57-4.35.25a16,16,0,0,1-7.42-3.1,9,9,0,0,1-3.46-7c.1-2.55,1.53-4.83,2.91-7,1.5-2.34,3-6.46,6.25-6.37S1416.67,394.5,1419.34,396.29Z"/><path class="cls-13" d="M1416.65,397.46a9.06,9.06,0,0,1,3.34,8.68,5.06,5.06,0,0,0,.37,3.89,4.82,4.82,0,0,0-3.2,1.66,9.4,9.4,0,0,1-3.15,2.75c-1.34.65-2.08.47-3.55.21a13.22,13.22,0,0,1-6.07-2.54,7.31,7.31,0,0,1-2.83-5.75c.09-2.09,1.25-3.95,2.38-5.7,1.23-1.91,2.44-5.28,5.11-5.21A14.39,14.39,0,0,1,1416.65,397.46Z"/><path class="cls-14" d="M1409.17,411c1.49,3.59.06,8.69-2.47,11.1a6.23,6.23,0,0,0-2.26,4.22,5.84,5.84,0,0,0-4.38-.47,11.75,11.75,0,0,1-5.07.67c-1.81-.25-2.44-.94-3.76-2.2a15.91,15.91,0,0,1-4.47-6.69,8.93,8.93,0,0,1,1-7.78c1.49-2.06,3.94-3.17,6.27-4.19,2.55-1.12,6.07-3.74,8.73-1.85S1407.93,408,1409.17,411Z"/><path class="cls-13" d="M1406.28,410.48a9.07,9.07,0,0,1-2,9.08,5,5,0,0,0-1.84,3.44,4.83,4.83,0,0,0-3.59-.38,9.56,9.56,0,0,1-4.14.55c-1.48-.21-2-.77-3.08-1.8a13.11,13.11,0,0,1-3.65-5.47,7.32,7.32,0,0,1,.83-6.36c1.22-1.68,3.22-2.59,5.12-3.43,2.09-.91,5-3.05,7.14-1.51A14.36,14.36,0,0,1,1406.28,410.48Z"/><path class="cls-12" d="M1390.74,404.67a30.93,30.93,0,0,0,13.66-13,5.74,5.74,0,0,1,3.47,7.41c-1.19,2.8-4.56,5.5-6.79,7.57s-7.33,5.88-12.17,7a42.53,42.53,0,0,1-12.59,1.11c-1.58-.18-4.87-6.14-3.08-6.46a34.32,34.32,0,0,1,4.73-.14A33.78,33.78,0,0,0,1390.74,404.67Z"/><path class="cls-14" d="M1387.85,398.2a30.87,30.87,0,0,0,13.66-13,5.73,5.73,0,0,1,3.46,7.41c-1.19,2.8-4.55,5.5-6.78,7.57s-7.33,5.88-12.17,7a42.59,42.59,0,0,1-12.6,1.11c-1.58-.18-4.86-6.14-3.07-6.46a34.32,34.32,0,0,1,4.73-.14A33.78,33.78,0,0,0,1387.85,398.2Z"/><path class="cls-13" d="M1353.46,332.2c3,2.12,8.19,5.09,11.25,5.42,3.66.39,9.37-.79,12.84.08,6.11,1.52,11.15,3.29,15,6.33,5.72,4.54,9.75,9.81,11.36,17.52,1.89,9,1.58,18.77-3.61,26.31a32.13,32.13,0,0,1-12.06,10.58,34.34,34.34,0,0,1-17.51,4.13,32.7,32.7,0,0,1-19.37-8.07,33.82,33.82,0,0,1-10.81-23.58c-.25-6.62,2.21-13.67,5.61-19.35,1.47-2.47,3.93-4.5,4.9-7.1C1352.34,341,1352.82,335.92,1353.46,332.2Z"/><path class="cls-15" d="M1274.93,466.82c-30-26.75-71-26.07-106.22-6.64-34.41,19-50.64,73.76-46.46,112.86s32.87,76.19,54.91,108.75c74.71,110.36,301.2,220.13,339.3,211.93.7-25.78-77.64-79.54-107.75-129.2-7.66-16.85,38.25-9.19,51.58-39.31,6.86-15.51,4.58-37.6-9.19-54.61-18-22.25-54.33-35-75.41-61.65-8.75-11.07-11.14-41.19-21.1-50.38-11.91-11-20.36-7-19.58.68-1.67,6-31.33-21.92-31-22C1300,506.14,1298,487.44,1274.93,466.82Z"/><circle class="cls-6" cx="1442.15" cy="1037.47" r="22.28"/><circle class="cls-4" cx="1380.95" cy="1132.19" r="14.55"/><circle class="cls-4" cx="1501.97" cy="1133.47" r="14.55"/><circle class="cls-4" cx="1482.31" cy="1139.85" r="14.55"/><circle class="cls-4" cx="1460.1" cy="1144.19" r="14.55"/><circle class="cls-4" cx="1401.12" cy="1139.85" r="14.55"/><circle class="cls-4" cx="1424.1" cy="1144.19" r="14.55"/><circle class="cls-4" cx="1441.72" cy="1148.02" r="14.55"/><path class="cls-16" d="M741.68,641.45a120.55,120.55,0,0,0,6.12,10.82c4.74-3.44,5.72-5.94,10.33-7.54,2.55-.88,4.93.55,11,.5,7.43-.08,11.1.74,12.77,0,3.15-1.32,11.92-4.67,17.55-12,4.49-5.86,5.8-14.83,6.29-20.38C806.92,600,803.34,592,799,586.16c-8.3-11.22-25.37-11.62-38-14.81-9.92-2.5-20.87-3.62-30.8.07-13.71,5.09-20,21.07-22,36.07a24,24,0,0,0,10.35,22.4C726.82,635.6,740.69,639.35,741.68,641.45Z"/><path class="cls-17" d="M982.72,649.77a121.13,121.13,0,0,0,9.81,7.64c3.05-5,3-7.69,6.63-10.93,2-1.8,4.77-1.39,10.38-3.79,6.84-2.93,10.54-3.58,11.81-4.87,2.4-2.43,9.21-8.9,11.58-17.83,1.9-7.14-.34-15.92-2-21.24-3.91-12.36-10.29-18.37-16.49-22.07-12-7.17-27.89-1-40.82,1-10.13,1.51-20.66,4.68-28.41,11.91-10.7,10-10.4,27.16-6.41,41.74A24,24,0,0,0,957,648C966.75,650.08,981,648.21,982.72,649.77Z"/><path class="cls-18" d="M934,659.53a118.73,118.73,0,0,0,9.81,7.65c3.06-5,3-7.69,6.64-10.94,2-1.79,4.76-1.38,10.38-3.79,6.83-2.92,10.53-3.57,11.81-4.86,2.39-2.43,9.21-8.9,11.58-17.83,1.9-7.15-.34-15.92-2-21.24-3.91-12.36-10.3-18.37-16.5-22.08-12-7.16-27.89-1-40.82,1-10.12,1.51-20.66,4.68-28.41,11.91-10.7,10-10.39,27.15-6.41,41.73a24,24,0,0,0,18.18,16.71C918,659.85,932.29,658,934,659.53Z"/><path class="cls-19" d="M785.34,655.47a119.16,119.16,0,0,0,6.12,10.83c4.74-3.44,5.72-5.94,10.33-7.54,2.55-.88,4.93.55,11,.49,7.43-.07,11.1.75,12.77,0,3.15-1.32,11.92-4.67,17.55-12,4.49-5.86,5.8-14.83,6.29-20.38C850.58,614,847,606,842.7,600.19c-8.3-11.22-25.37-11.62-38.05-14.82-9.92-2.49-20.87-3.61-30.8.08-13.71,5.09-20,21.07-22,36.07a24,24,0,0,0,10.35,22.4C770.48,649.63,784.35,653.38,785.34,655.47Z"/><path class="cls-20" d="M856.58,671.49a121.35,121.35,0,0,0,8.41,9.17c3.84-4.43,4.23-7.09,8.36-9.68,2.28-1.44,4.93-.58,10.86-2,7.23-1.74,11-1.77,12.46-2.83,2.76-2,10.56-7.25,14.38-15.66,3.06-6.73,2.31-15.76,1.53-21.28-1.8-12.84-7.1-19.83-12.59-24.51-10.63-9-27.34-5.59-40.42-5.84-10.23-.2-21.14,1.18-30,7-12.21,8.06-14.76,25.06-13.25,40.1a24,24,0,0,0,15.15,19.49C840.79,669.14,855.15,669.67,856.58,671.49Z"/><ellipse class="cls-21" cx="869.66" cy="560.99" rx="137.02" ry="47.3"/><ellipse class="cls-6" cx="870.73" cy="551.95" rx="131.14" ry="38.25"/><ellipse class="cls-9" cx="869.66" cy="533.87" rx="99.46" ry="32.58"/><path class="cls-22" d="M709.17,463.06a51.72,51.72,0,0,1-20.67-41.44l4.59,6.2c1-5.26-1.46-10.49-3.84-15.29l-10.4-20.92c4.52,1.22,6.24,6.52,8.8,10.45s9.35,6.34,11.25,2.06l9.57,28.09c6.45-3.79,5.76-13.87,1.14-19.75s-11.73-9.15-17.57-13.82c-16.34-13.06-21.14-38.49-10.7-56.61-.62,3.82,5.68,5.56,8.23,2.64s1.77-7.51-.12-10.89-4.7-6.25-6.14-9.84-.93-8.51,2.53-10.27l2.27,2.8.89-26.4,13.66,34c4.15-1.35,8.07,3.36,8.2,7.72s-2,8.42-3,12.67-.26,9.62,3.66,11.53c4.9,2.38,10.63-3,10.88-8.47s-2.92-10.36-5.7-15.05c-11.92-20.16-18.49-44.06-15.13-67.23.74-5.06,2-10.21,5.07-14.3s8.29-6.9,13.29-5.86c-2.12,1.73-.68,5.67,2,6.31s5.4-1.26,6.65-3.7,1.34-5.28,1.41-8l.73-27.41a8.19,8.19,0,0,0,10.08-1.15,23.73,23.73,0,0,1,1.12-21.37l6.45,26.68c.48,2,1,3.95,1.38,5.93a100.2,100.2,0,0,1,1.72,29.42c-.6,6.67-.77,15.32,5.44,17.81,4.83,1.93,10.39-2,12.12-6.93s.73-10.31-.29-15.41l-5.63-28.14c-2.57-12.87-5.13-26.3-1.65-38.95s15-24.12,28.1-22.85c-1.71,4,5.06,7.27,8.44,4.5s3.5-7.87,2.83-12.18-1.8-8.93,0-12.91c2.47-5.44,5.76-9.45,9.44-14.16l4.23,4.22a19.94,19.94,0,0,1,6-22.51c.91,7.56,3.43,14.86,4.1,22.44s-.94,16-6.75,20.9l9.37-4.85-1.7,32.3c-.26,5,0,11,4.25,13.64,4.49,2.75,10.83-.73,12.49-5.72s-.2-10.53-3-15-6.62-8.21-9.39-12.69a33.59,33.59,0,0,1,19.1-49.86,7.49,7.49,0,1,0,7.72,12.71c3.63-2.83,3.88-8.26,2.83-12.74s-3.09-8.82-2.92-13.42,3.79-9.58,8.34-8.93l-.22,5c1.82,3.26,7.32.46,7.86-3.23s-1.45-7.25-1.86-11,2.35-8.41,5.92-7.33L878.53,86,880,100.28a10.33,10.33,0,0,1,13.42,1.22c3.56,3.92,3.41,10.17,1.07,14.92S888,124.77,884,128.24a10.38,10.38,0,0,0,16.8-11.68,29.84,29.84,0,0,1,5.38,32.18c-2.45,5.35-6.43,9.81-9.69,14.7s-5.87,10.68-5,16.49,6.48,11.15,12.22,9.9c6-1.29,8.72-8.56,8-14.62s-3.7-11.63-4.91-17.61.1-13.34,5.53-16.11l-.53,4c2.18,1.55,5.43-.68,5.8-3.33s-1.14-5.18-2.72-7.34-3.38-4.35-3.73-7c-.62-4.73,3.42-8.6,6.84-11.93s6.77-8.27,4.58-12.51l-.12,17.13c0,4.55.07,9.51,2.92,13.07s9.54,4.1,11.4-.06c-2.28,4.82-4.6,9.8-4.81,15.12s2.22,11.12,7.1,13.24c6.46,2.79,14.81-3.57,13.82-10.54,6.44,3.91,13.09,8,17.31,14.26,4.48,6.64,5.68,14.88,6.78,22.81,1.66,12.08,3.21,25-2,36-2.31,4.93-5.83,9.17-9,13.62s-6,9.34-6.61,14.75,1.45,11.43,6.2,14.1,12,.44,13.24-4.85-3.34-10.09-5.85-15c-5.22-10.21,0-24.35,10.64-28.69l3.3,6.18c3-.89,4.38-4.56,4-7.68s-1.88-6-2.76-9a22.48,22.48,0,0,1,8.55-24.17c3.12,2,3.06,6.57,1.91,10.09s-3,7.05-2.37,10.68c1.15,6.07,8.57,8.62,11.86,13.86,2.24,3.57,2.35,8.07,1.92,12.27s-1.32,8.41-.81,12.6,2.78,8.51,6.75,9.94,9.29-1.55,9-5.76c10.77,29.79,3.69,65.28-17.68,88.65-2.62,2.87-4.55,5.83-2.16,8.89a6.8,6.8,0,0,0,10.14.12c3.7-4.49.17-11.07,0-16.87-.26-7.35,6.14-14.27,13.48-14.6-3,1.66-.59,7,2.82,6.95s5.95-3.26,6.94-6.52,1-6.78,2.3-9.93c1.48-3.66,4.49-6.45,6.73-9.7s3.7-7.65,1.74-11.07l.17,16.16,4.23-.84c-5.73,2-8.42,9.91-5.13,15,2,3.11,5.8,5.35,6.16,9,.66,6.59-10,9.84-9.83,16.46,0,3.08,2.55,5.58,5.26,7.05s5.75,2.23,8.37,3.85a14.9,14.9,0,0,1,.56,25c.73,6.93-3.2,13.55-8.06,18.55s-10.72,8.93-15.4,14.08-8.19,12.13-6.76,18.94l10.74-1.07c-3.67-.23-6.1-4.57-5.22-8.14s4.21-6.12,7.74-7.13,7.29-.76,11-.49a19.13,19.13,0,0,1,9.81-19.05c-2.73,1.43-2.48,5.47-1.2,8.26s3.28,5.61,2.76,8.65c-.49,2.82-3,4.79-5.33,6.46s-4.85,3.6-5.39,6.41,2.5,6.14,5,4.68a47.2,47.2,0,0,1-20.19,39c-5,15.52-16.93,30.22-29.93,40.09S980.8,521.15,966,528c-21.79,10.14-44.13,20.14-68,23-26.29,3.17-52.74-2.51-78.61-8.15-24-5.24-48.47-10.64-69.72-23S711.84,487.49,709.17,463.06Z"/><path class="cls-6" d="M908.22,266.58c19.37,10,44.49,21.85,60.33,36.8,17.1,16.13,26.49,35.76,33.25,58.27,10.19,33.93,6.75,62.4-8.22,94.51-12.79,27.47-34.49,51.85-62.76,62.76-26.19,10.12-44,16.12-70.6,15.32-27.25-.82-59.06-12.78-78.34-32.05-21.69-21.7-32.29-37.36-41.64-68.65-6.27-21-8.35-42.09-4.41-63.67s33.3-63.37,50.06-77.52c17.1-14.44,20.39-13.56,40.52-23.35,13.48-6.56,19.13-17.27,25.59-24.08,12.54-13.21,11.86-24.14,18.5-24.1,6,0,6.82,14.19,18.67,26.52C895.63,254.06,898.13,261.38,908.22,266.58Z"/><path class="cls-23" d="M903.83,290.33c17.64,9.09,40.54,19.9,55,33.53,15.57,14.7,24.13,32.59,30.29,53.11,9.29,30.92,6.15,56.86-7.49,86.12-11.66,25-31.43,47.25-57.19,57.2-23.87,9.21-40.06,14.68-64.34,14-24.83-.74-53.82-11.64-71.39-29.2-19.77-19.78-29.43-34.05-37.94-62.56-5.72-19.15-7.61-38.36-4-58s30.35-57.76,45.62-70.65c15.59-13.16,18.58-12.36,36.93-21.28,12.28-6,17.43-15.74,23.32-21.95,11.43-12,10.81-22,16.85-21.95,5.52,0,6.22,12.93,17,24.17C892.35,278.92,894.63,285.59,903.83,290.33Z"/></svg>