<svg id="Layer_1" data-name="Layer 1" xmlns="http://www.w3.org/2000/svg" viewBox="0 0 242 234"><defs><style>.cls-1{fill:#4d4d4d;}</style></defs><path class="cls-1" d="M203.33,169.58H79.8c-8.64,0-15.67-7.38-15.67-16.47l.05-27.06a1.44,1.44,0,0,1,1.44-1.43h0a1.43,1.43,0,0,1,1.43,1.44l0,27.06c0,7.49,5.74,13.59,12.79,13.59H203.33c7.06,0,12.8-6.1,12.8-13.6V80.89c0-7.5-5.74-13.6-12.8-13.6H79.8c-7,0-12.79,6.1-12.79,13.6l0,20.33a1.43,1.43,0,0,1-1.43,1.44h0a1.44,1.44,0,0,1-1.44-1.43l-.05-20.34c0-9.09,7-16.47,15.67-16.47H203.33C212,64.42,219,71.8,219,80.89v72.22C219,162.2,212,169.58,203.33,169.58Z"/><path class="cls-1" d="M205,155.12a1.45,1.45,0,0,1-1.06.47,1.29,1.29,0,0,1-.94-.36l-41.81-36.35-12.9,11.22a10.14,10.14,0,0,1-13.36,0L122,118.92,80.18,155.23a1.41,1.41,0,0,1-.94.36,1.57,1.57,0,0,1-1.09-.47,1.48,1.48,0,0,1,.14-2L119.81,117,78.29,80.93a1.45,1.45,0,0,1-.11-2,1.4,1.4,0,0,1,2-.14l56.6,49.16a7.22,7.22,0,0,0,9.58,0L203,78.75a1.4,1.4,0,0,1,2,.14,1.41,1.41,0,0,1-.15,2L163.33,117l41.52,36.09A1.44,1.44,0,0,1,205,155.12Z"/><path class="cls-1" d="M59,92H12.43a1.44,1.44,0,0,1,0-2.87H59A1.44,1.44,0,1,1,59,92Z"/><path class="cls-1" d="M40.92,142.74H18.13a1.44,1.44,0,0,1,0-2.88H40.92a1.44,1.44,0,1,1,0,2.88Z"/><path class="cls-1" d="M72.26,115.93H29.53a1.44,1.44,0,1,1,0-2.87H72.26a1.44,1.44,0,1,1,0,2.87Z"/><path class="cls-1" d="M77.05,173.22l-1.75-.95A1.83,1.83,0,0,1,77.05,173.22Z"/></svg>