<svg id="Layer_1" data-name="Layer 1" xmlns="http://www.w3.org/2000/svg" viewBox="0 0 242 234"><defs><style>.cls-1{fill:#333;}.cls-2{fill:#999;}</style></defs><path class="cls-1" d="M139.53,48.63a2.83,2.83,0,0,1-.95-.16,2.92,2.92,0,0,1-1.93-2.06l-1.59-3.67a1.28,1.28,0,0,1,2.34-1L139,45.5a1.83,1.83,0,0,1,.08.25.4.4,0,0,0,.27.31.39.39,0,0,0,.4-.09,1.33,1.33,0,0,1,.19-.14l12.8-7.69a1.28,1.28,0,1,1,1.31,2.19L141.38,48A3,3,0,0,1,139.53,48.63Z"/><path class="cls-1" d="M139.53,71.57a3.09,3.09,0,0,1-.95-.15,3,3,0,0,1-1.93-2.07l-1.59-3.67a1.28,1.28,0,0,1,2.34-1L139,68.44a1.83,1.83,0,0,1,.08.25.4.4,0,0,0,.27.31.39.39,0,0,0,.4-.09l.19-.13,12.8-7.7a1.28,1.28,0,1,1,1.31,2.19l-12.71,7.64A3,3,0,0,1,139.53,71.57Z"/><path class="cls-1" d="M139.53,94.51a3.09,3.09,0,0,1-.95-.15,2.94,2.94,0,0,1-1.93-2.07l-1.59-3.67a1.28,1.28,0,0,1,2.34-1L139,91.38a2.41,2.41,0,0,1,.08.25.4.4,0,0,0,.27.31.4.4,0,0,0,.4-.08.85.85,0,0,1,.19-.14L152.78,84a1.27,1.27,0,1,1,1.31,2.18l-12.71,7.64A2.91,2.91,0,0,1,139.53,94.51Z"/><path class="cls-1" d="M82.05,173.09H38.1a1.92,1.92,0,0,1-1.91-1.92V2.3A1.92,1.92,0,0,1,38.1.38H164.91a1.92,1.92,0,0,1,1.91,1.92V111.44a1.92,1.92,0,0,1-3.83,0V4.21H40v165h42a1.92,1.92,0,0,1,0,3.83Z"/><path class="cls-1" d="M62.15,46.3a1.91,1.91,0,0,1,0-3.82l61.63-.2h0a1.91,1.91,0,1,1,0,3.82l-61.62.2Z"/><path class="cls-1" d="M61.67,70.51a1.91,1.91,0,0,1,0-3.82l62-.2h0a1.91,1.91,0,0,1,0,3.82l-62,.2Z"/><path class="cls-1" d="M61.18,94.72a1.91,1.91,0,1,1,0-3.82l62.46-.2h0a1.91,1.91,0,0,1,0,3.82l-62.46.2Z"/><path class="cls-1" d="M203.92,141.69,151.52,117l-2.86,0-29.08,14.44,8.57-4.2,3.64,1.82,18.33-9.1L201,144l-20.18,9.72,1.92,1v1.78l19.79-9.53v58.35l-49.1,24.55-.25-59.14,20.94-10.08V158.7l-1.83-.91-20.89,10.06.28.13a.39.39,0,0,0-.15,0h0a1.46,1.46,0,0,0-.6.12l.48-.23-50.53-23.39,22.43-11.14-3.7-1.85-22.2,11-1.82,2.95V205.5l1.87,3,52.86,25.14,2.89,0,50.8-25.4,1.83-2.95V144.69ZM98.85,147.16l51,23.62.26,59.1L98.85,205.5Z"/><polygon class="cls-2" points="175.1 158.08 172.72 156.9 121.84 131.48 128.15 128.38 131.35 129.98 181.72 155.26 181.72 177.41 178.03 176.33 175.1 180.13 175.1 158.08"/><path class="cls-2" d="M128.14,129.5l2.76,1.38,49,24.58.82.42v20.2l-1.76-.52-1.31-.38-.83,1.08-.72.94V157.46l-1.11-.55-1.82-.91-49-24.47-.08,0,4-2m0-2.23-8.57,4.2,3.7,1.85,49,24.47,1.83.91v24.37l4.3-5.59,4.32,1.27V154.64l-1.92-1-49-24.59-3.64-1.82Z"/></svg>