<svg id="Layer_1" data-name="Layer 1" xmlns="http://www.w3.org/2000/svg" viewBox="0 0 215 215"><defs><style>.cls-1{fill:#fff;}.cls-2{fill:#61a3aa;}</style></defs><circle class="cls-1" cx="107.5" cy="107.5" r="105.92"/><path class="cls-2" d="M139.84,117.56c-.26-.13-10.09-5-11.83-5.6a7,7,0,0,0-2.29-.5,3.89,3.89,0,0,0-3.31,2c-1,1.46-4,4.93-4.87,6-.12.13-.29.3-.38.3s-1.61-.63-2.07-.83c-10.54-4.58-18.54-15.59-19.64-17.44a1.1,1.1,0,0,1-.17-.39,3.29,3.29,0,0,1,.58-.68c.53-.53,1.11-1.23,1.68-1.9l.79-1A10.54,10.54,0,0,0,99.92,95l.22-.44a4.6,4.6,0,0,0-.13-4.32c-.23-.46-4.38-10.47-4.82-11.53C94.13,76.15,92.73,75,90.78,75L90,75c-.92,0-6,.7-8.17,2.1s-6.34,6.22-6.34,14.55c0,7.49,4.75,14.57,6.8,17.26,0,.07.14.21.28.4,7.82,11.43,17.57,19.89,27.45,23.84,9.52,3.8,14,4.24,16.58,4.24h0a24.51,24.51,0,0,0,2.7-.16l.48,0c3.29-.3,10.52-4,12.16-8.61,1.29-3.59,1.63-7.52.77-9A6.11,6.11,0,0,0,139.84,117.56Z"/><path class="cls-2" d="M108.7,40.11c-36.51,0-66.2,29.47-66.2,65.7A65.23,65.23,0,0,0,51.57,139L40.2,172.58a1.76,1.76,0,0,0,1.66,2.31,1.89,1.89,0,0,0,.53-.08l35-11.12a66.59,66.59,0,0,0,31.34,7.82c36.5,0,66.19-29.47,66.19-65.7S145.2,40.11,108.7,40.11Zm0,117.71a52.45,52.45,0,0,1-28.86-8.6,1.74,1.74,0,0,0-1-.29,2,2,0,0,0-.53.08l-17.52,5.57,5.66-16.68a1.76,1.76,0,0,0-.25-1.6,51.28,51.28,0,0,1-10-30.49c0-28.68,23.52-52,52.44-52s52.43,23.33,52.43,52S137.61,157.82,108.7,157.82Z"/></svg>