<svg id="Layer_1" data-name="Layer 1" xmlns="http://www.w3.org/2000/svg" viewBox="0 0 240 138"><defs><style>.cls-1,.cls-2{fill:#d71920;}.cls-2{fill-rule:evenodd;}</style></defs><g id="surface1"><path class="cls-1" d="M71.44,81.5h-6V73a4.22,4.22,0,0,0-1-3,3.91,3.91,0,0,0-3.15-1.13,4.94,4.94,0,0,0-2.73.89,3.2,3.2,0,0,0-1.32,3,3.41,3.41,0,0,0,1.28,3,4.56,4.56,0,0,0,2.61.89,7.7,7.7,0,0,0,2.91-.46v4.72a6,6,0,0,1-3.83,1,8.85,8.85,0,0,1-7.87-4.63A9.44,9.44,0,0,1,52.64,68a9.14,9.14,0,0,1,3.41-3.16,10.49,10.49,0,0,1,4.51-1.21,14.19,14.19,0,0,1,4.93.68A9.19,9.19,0,0,1,69.73,67a6.81,6.81,0,0,1,1.71,4.78ZM85.51,64V68.7H80.79c-.73,0-1.15.24-1.22.69s.49.87,1.22,1.11a13.37,13.37,0,0,1,4.27,2.28,4,4,0,0,1,1.45,3.06c.1,2-.48,3.51-1.74,4.36a7.73,7.73,0,0,1-4.49,1.3H73.66V76.6h5.61c.82,0,1.23-.24,1.23-.69s-.43-.86-1.3-1.15a15.86,15.86,0,0,1-2.59-1.07,5.83,5.83,0,0,1-1.81-1.56,4.94,4.94,0,0,1-.92-2.6,5,5,0,0,1,1.21-3.66c1-1.24,2.5-1.85,4.63-1.85Zm9-7.64v8.1a9.85,9.85,0,0,1,3.72-.82,6,6,0,0,1,3.4,1,6.35,6.35,0,0,1,2.2,2.48,7,7,0,0,1,.78,3.19V81.5H98.72V71.14a1.85,1.85,0,0,0-.64-1.52,2.39,2.39,0,0,0-1.54-.52,2.06,2.06,0,0,0-1.42.49,1.6,1.6,0,0,0-.56,1.27V81.5H88.62V56.38ZM110.82,56a3.48,3.48,0,0,1,2.6.93,3,3,0,0,1,1,2.23,3.4,3.4,0,0,1-.34,1.58A2.9,2.9,0,0,1,113,61.94a4.34,4.34,0,0,1-2,.53,3.45,3.45,0,0,1-3.41-3.15.2.2,0,0,0,.07-.11v0a3.56,3.56,0,0,1,1-2.18A2.93,2.93,0,0,1,110.82,56ZM114,64.09V81.5h-5.86V64.09Zm8.76,0V67c.7-2.19,2.43-3.18,5.2-2.93v5.16a6.86,6.86,0,0,0-3.58.8,2.76,2.76,0,0,0-.91,2.34V81.5h-5.94V64.09Zm11.43,0,2.57,11.6,2.38-11.6h6.09l-4.27,14c-.78,2.57-2.19,3.87-4.27,3.87-2.33,0-3.81-1.24-4.42-3.72l-4-14.12Zm32,17.41h-5.94V73a4.27,4.27,0,0,0-1-3A3.92,3.92,0,0,0,156,68.89a5,5,0,0,0-2.73.89,3.24,3.24,0,0,0-1.31,3,3.41,3.41,0,0,0,1.28,3,4.59,4.59,0,0,0,2.62.89,7.62,7.62,0,0,0,2.89-.46v4.72a5.9,5.9,0,0,1-3.82,1,8.73,8.73,0,0,1-4.66-1.27,9.1,9.1,0,0,1-3.22-3.36A8.62,8.62,0,0,1,146,72.75,8.78,8.78,0,0,1,147.36,68a9.12,9.12,0,0,1,3.43-3.16,10.45,10.45,0,0,1,4.5-1.21,14.27,14.27,0,0,1,4.94.68A9.21,9.21,0,0,1,164.46,67a6.77,6.77,0,0,1,1.71,4.78Zm22.61-25.12v16.3a8.54,8.54,0,0,1-3,7A11.24,11.24,0,0,1,171,78.78a11.27,11.27,0,0,1-1.63-2.9,10.43,10.43,0,0,1-.7-3.49,8.79,8.79,0,0,1,2.89-6.25,9.52,9.52,0,0,1,6.69-2.48,12.26,12.26,0,0,1,3,.43v5.23a5.49,5.49,0,0,0-2.38-.5,4.07,4.07,0,0,0-4.27,4,3.87,3.87,0,0,0,1.32,2.75,4.88,4.88,0,0,0,3,1.16,4,4,0,0,0,2.89-1.32,5,5,0,0,0,1.15-3.51V56.38h5.87"/><path class="cls-2" d="M52.66,46.28H187.35a20.86,20.86,0,0,1,20.79,20.79v3.86a20.86,20.86,0,0,1-20.79,20.79H52.66a20.86,20.86,0,0,1-20.8-20.79V67.07A20.86,20.86,0,0,1,52.66,46.28Zm0,3.35H187.35a17.48,17.48,0,0,1,17.44,17.44v3.86a17.48,17.48,0,0,1-17.44,17.44H52.66A17.48,17.48,0,0,1,35.22,70.93V67.07A17.48,17.48,0,0,1,52.66,49.63"/></g></svg>