<svg id="Layer_1" data-name="Layer 1" xmlns="http://www.w3.org/2000/svg" viewBox="0 0 240 138"><defs><style>.cls-1{fill:none;}.cls-2{fill:#573581;}.cls-2,.cls-3,.cls-4,.cls-5{isolation:isolate;}.cls-3{fill:#fdb933;}.cls-4,.cls-6{fill:#e63126;}.cls-7{fill:#fcb31c;}.cls-7,.cls-8{fill-rule:evenodd;}.cls-8{fill:#ed2224;}</style></defs><path class="cls-1" d="M107.77,35.68c-8.59-4.69-17.5-5.61-26.3-.74a14.25,14.25,0,0,1-2.7-6.71,40.82,40.82,0,0,1,14.46-3.32C101.59,27.3,105.85,31,107.77,35.68Z"/><path class="cls-1" d="M107.77,35.68c-8.59-4.69-17.5-5.61-26.3-.74a14.25,14.25,0,0,1-2.7-6.71,40.82,40.82,0,0,1,14.46-3.32C101.59,27.3,105.85,31,107.77,35.68Z"/><path class="cls-1" d="M107.77,35.68c-8.59-4.69-17.5-5.61-26.3-.74a14.25,14.25,0,0,1-2.7-6.71,40.82,40.82,0,0,1,14.46-3.32C101.59,27.3,105.85,31,107.77,35.68Z"/><path class="cls-1" d="M66.21,24.82v88.36H173.79V24.82Z"/><path class="cls-1" d="M93.53,63a24,24,0,0,1-12-.6c-3.57-2.16-5.58-5.72-5.91-11.12C75.74,41.79,82.49,38.56,91,40.6c-10,8.3-6.62,19.31,2.58,22.36Z"/><path class="cls-2" d="M93.53,63a24,24,0,0,1-12-.6c-3.57-2.16-5.58-5.72-5.91-11.12C75.74,41.79,82.49,38.56,91,40.6c-10,8.3-6.62,19.31,2.58,22.36Z"/><path class="cls-2" d="M107.77,35.68c-8.59-4.69-17.5-5.61-26.3-.74a14.25,14.25,0,0,1-2.7-6.71,40.82,40.82,0,0,1,14.46-3.32C101.59,27.3,105.85,31,107.77,35.68Z"/><path class="cls-1" d="M66.21,24.82v88.36H173.79V24.82Z"/><path class="cls-1" d="M95.87,37.06c-6.51-.3-12.18,1.23-16.42,5,5.62-2.54,11.9-3,19.89,2l19.19,13.1c13.23,9.5,26,14.27,37.24,4.94-11.14,2.79-19.58-1-28.68-8.95-10.16-7.45-21-14.66-31.22-16.14Z"/><path class="cls-3" d="M95.87,37.06c-6.51-.3-12.18,1.23-16.42,5,5.62-2.54,11.9-3,19.89,2l19.19,13.1c13.23,9.5,26,14.27,37.24,4.94-11.14,2.79-19.58-1-28.68-8.95-10.16-7.45-21-14.66-31.22-16.14Z"/><rect class="cls-1" x="66.21" y="24.82" width="107.58" height="88.37"/><path class="cls-1" d="M115.63,53.61c5.05-15.21-7.7-28.83-22.4-28.7C107.65,29.1,111.48,39,107.62,49.17c-5.73,11.95-14.17,16.56-26.2,13.16,12.27,8.36,28.25,5.41,34.21-8.72Z"/><path class="cls-4" d="M115.63,53.61c5.05-15.21-7.7-28.83-22.4-28.7C107.65,29.1,111.48,39,107.62,49.17c-5.73,11.95-14.17,16.56-26.2,13.16,12.27,8.36,28.25,5.41,34.21-8.72Z"/><rect class="cls-1" x="66.21" y="24.82" width="107.58" height="88.37"/><path class="cls-1" d="M159.78,52.74c-.85,11.95-7.72,11.54-16.07,9.81,4.21-1.9,6.82-5.7,7.12-12.13-.12-6.3-4.17-9.68-10.06-11.45C149.82,36.63,159.12,38.48,159.78,52.74Z"/><path class="cls-1" d="M159.78,52.74c-.85,11.95-7.72,11.54-16.07,9.81,4.21-1.9,6.82-5.7,7.12-12.13-.12-6.3-4.17-9.68-10.06-11.45C149.82,36.63,159.12,38.48,159.78,52.74Z"/><path class="cls-1" d="M144.3,89.86s.07.09.07.12-.07.69-.51.89c0,0,0,0-.07,0s0,.08-.08.12-.05,0-.09,0a.17.17,0,0,1-.12,0c-.05,0-.12,0-.15.07s0,0,0,.08-.07,0-.12,0-.07,0-.08,0-.07,0-.1,0,0,.3-.11.29-.13,0-.16,0-.1,0-.16.06,0,.14,0,.16l-.19,0a1.76,1.76,0,0,1-.23,0s-.09,0-.08-.05-.13-.42-.19-.5a.2.2,0,0,0-.09-.09.17.17,0,0,1-.12-.08s0-.06-.05-.05a.79.79,0,0,1-.26-.09h0s0-.07,0-.11-.07,0-.08-.08l0,0s0-.09,0-.1.05-.1.07-.13,0-.06,0-.08a.09.09,0,0,1,0-.12c0-.05,0-.08-.07-.12a5.47,5.47,0,0,1-.08-.76s0-.11.1-.11.06-.07.11-.13.34.09.32,0,0-.07,0-.09a.18.18,0,0,0,.09-.06s0-.06,0-.08,0,.06.09,0,.07-.08.12-.1a.22.22,0,0,1,.05-.11s0-.06,0-.09.11.06.16,0,0,0,0-.07.34-.21.41-.22.09-.08.15,0,.1-.05.14-.05,0,0,0,0,.06,0,.06,0,0,0,.06,0l0,0s0,.06.07,0,.05,0,.06,0,0,.06.06.06,0,0,.05,0,.06,0,.05.07,0,0,0,0,.07,0,.05,0,0,.05.07.05.05,0,0,.08,0,0,.07,0,.16.11.16.16.25.24.25.25a.54.54,0,0,1,.05.11l.11.26s0,.05,0,.07,0,0,.06,0,0,.11,0,.13S144.3,89.85,144.3,89.86Z"/><path class="cls-2" d="M159.78,52.74c-.85,11.95-7.72,11.54-16.07,9.81,4.21-1.9,6.82-5.7,7.12-12.13-.12-6.3-4.17-9.68-10.06-11.45C149.82,36.63,159.12,38.48,159.78,52.74Z"/><g class="cls-5"><path class="cls-6" d="M135.71,34.57c6.58-1.4,14.93.52,20,6.78-10.65-5.17-28.49-1.57-29.39,16.06l0,28.31c-4.17.21-7.49-1.35-7.61-5.08V57.51c.46-11.57,5.46-19.7,16.92-22.94Z"/></g><path class="cls-7" d="M122.46,95.71a2.79,2.79,0,0,0-1.25.4,3.33,3.33,0,0,0-1.3,2.85,3.1,3.1,0,0,0,1.41,2.9,2.66,2.66,0,0,0,1.15.27v2.13a4.13,4.13,0,0,1-1.83-.78,5.75,5.75,0,0,1-.59-.61V103c0,.11,0,.24,0,.36,0,.43,0,.87,0,1.3s0,.73,0,1.08,0,1,0,1.44c0,.13,0,.25,0,.36a2.86,2.86,0,0,1,0,.42c0,.06,0,.13-.07.18a.55.55,0,0,0-.27.4c0,.88-.07,1.8-.12,2.71a1.22,1.22,0,0,1-.1.51l-.19.24-.07.36s0,0-.06.06c0-.17,0-.36,0-.56v-.47l0-.06a11.29,11.29,0,0,0-.18,1.63s-.06,0-.09,0a1.88,1.88,0,0,1,0-.54.89.89,0,0,1-.14-.64l0-.63a1.75,1.75,0,0,1,0-.24.16.16,0,0,1-.15-.11s0,0,0,0c0-.34,0-.69.07-1,0-.09,0-.2,0-.31a12,12,0,0,0,.06-1.47c-.06,0,0-.15-.12-.14-.1.44-.12.94-.21,1.4,0,.11,0,.19,0,.29a.48.48,0,0,1,.13.37s0,.11-.09.14l0,.18c0,.09-.09.18-.13.27s-.06,0-.08,0a1.74,1.74,0,0,1,0-.61c0-.19,0-.41,0-.6,0-.8,0-1.55,0-2.36,0,0-.05,0-.07,0-.1.27,0,.6-.17.86a11,11,0,0,1,0-1.91c0-.5,0-1,0-1.57,0-.33-.14-.52-.14-.28a8,8,0,0,0,0,1.2c0,.73,0,1.51-.05,2.27,0,.33-.08.68,0,1a1.68,1.68,0,0,0,0,.5c0,.06,0,.14-.06.16s-.16,0-.14-.14,0-.11.08-.15a1.2,1.2,0,0,0-.05-.62c0-.21.09-.4.07-.62,0,0,0-.09,0-.11s0-.13,0-.19a1.36,1.36,0,0,0,0-.57c0-.12-.11-.23-.11-.36,0-.35,0-.63,0-1s0-.54,0-.81,0-.6,0-.89c0-.49,0-1,0-1.48,0,0,0,0,0-.07-.06.23-.2.1-.24,0a3.16,3.16,0,0,0,0-.43,1.88,1.88,0,0,0,0-.34c0-.55,0-1.1,0-1.62a17.55,17.55,0,0,1,.05-1.78v-.34c0-.54,0-1.1,0-1.65a3.8,3.8,0,0,0,0-.46s0,0,0,0a1.19,1.19,0,0,0-.11.38.08.08,0,0,1-.12,0,1.76,1.76,0,0,1-.06-.4,3.16,3.16,0,0,1,.07-.76l0,0a4,4,0,0,1,.19-1.24c0-.1.13-.12.21-.14s.23.17.3.27.26,0,.36-.06.13.18.2.25.17.09.27.09c.32,0,.12-.53.47-.43a.32.32,0,0,0,.34.17c.23.07.56.06.64.35a1.38,1.38,0,0,1,.09.53,3.24,3.24,0,0,0,0,.63c.13-.13.27-.27.34-.36a4.41,4.41,0,0,1,2.17-1.13v2.12Zm.16,0h-.16V93.58a4.45,4.45,0,0,1,1-.11,4.29,4.29,0,0,1,3.2,1.33A5.59,5.59,0,0,1,128,98.73a7.78,7.78,0,0,1-.41,2.52,4.38,4.38,0,0,1-4.38,3.07,4.62,4.62,0,0,1-.75-.06v-2.13h0a2.49,2.49,0,0,0,1-.2C125,101.2,125,99,125,98.8A3.34,3.34,0,0,0,123.78,96a2.13,2.13,0,0,0-1.16-.31Z"/><path class="cls-7" d="M144.37,90s-.07.69-.51.89c0,0,0,0-.07,0s0,.08-.08.12-.05,0-.09,0a.17.17,0,0,1-.12,0c-.05,0-.12,0-.15.07s0,0,0,.08-.07,0-.12,0-.07,0-.08,0-.07,0-.1,0,0,.3-.11.29-.13,0-.16,0-.1,0-.16.06,0,.14,0,.16l-.19,0a1.76,1.76,0,0,1-.23,0s-.09,0-.08-.05-.13-.42-.19-.5a.2.2,0,0,0-.09-.09.17.17,0,0,1-.12-.08s0-.06-.05-.05a.79.79,0,0,1-.26-.09h0s0-.07,0-.11-.07,0-.08-.08l0,0s0-.09,0-.1.05-.1.07-.13,0-.06,0-.08a.09.09,0,0,1,0-.12c0-.05,0-.08-.07-.12a5.47,5.47,0,0,1-.08-.76s0-.11.1-.11.06-.07.11-.13.34.09.32,0,0-.07,0-.09a.18.18,0,0,0,.09-.06s0-.06,0-.08,0,.06.09,0,.07-.08.12-.1a.22.22,0,0,1,.05-.11s0-.06,0-.09.11.06.16,0,0,0,0-.07.34-.21.41-.22.09-.08.15,0,.1-.05.14-.05,0,0,0,0,.06,0,.06,0,0,0,.06,0l0,0s0,.06.07,0,.05,0,.06,0,0,.06.06.06,0,0,.05,0,.06,0,.05.07,0,0,0,0,.07,0,.05,0,0,.05.07.05.05,0,0,.08,0,0,.07,0,.16.11.16.16.25.24.25.25a.54.54,0,0,1,.05.11l.11.26s0,.05,0,.07,0,0,.06,0,0,.11,0,.13,0,0,0,0S144.37,90,144.37,90Z"/><path class="cls-8" d="M87.7,90.9h0s0-.07,0-.11-.06,0-.08-.08l0,0a.08.08,0,0,0-.05-.1s.06-.1.09-.13a.15.15,0,0,0,0-.08.11.11,0,0,1,0-.12c0-.05,0-.08-.07-.12a7.58,7.58,0,0,1-.08-.76s0-.11.11-.11,0-.07.1-.13.34.09.32,0,0-.07,0-.09S88,89,88,89,88,89,88,88.93s0,.06.09,0,.07-.08.12-.1a.16.16,0,0,1,0-.11s0-.06,0-.09.11.06.15,0,0,0,0-.07.34-.21.42-.22.09-.08.15,0,.09-.05.12-.05,0,0,0,0,.07,0,.07,0,0,0,.06,0l0,0s0,.06.06,0,.06,0,.06,0,0,.06.07.06,0,0,0,0a.08.08,0,0,1,.05.07s0,0,0,0,.06,0,0,0,0,.05.07.05,0,0,0,.08,0,0,.07,0,.15.11.15.15.26.24.27.26l0,.1a2.24,2.24,0,0,0,.1.26s0,0,0,.08,0,0,.07,0,0,.11,0,.14,0,0,0,0,.06.08.07.12-.06.68-.52.88c0,0,0,0,0,0s0,.09-.09.12,0,0-.09,0a.29.29,0,0,1-.13,0s-.11,0-.14.07,0,.06,0,.09-.07,0-.11,0l-.1,0s-.06,0-.1,0,0,.29-.1.28-.14,0-.16,0-.11,0-.16.06,0,.13,0,.15l-.2,0a1.46,1.46,0,0,0-.21,0s-.1,0-.09-.06-.14-.41-.19-.49,0-.08-.09-.1A.17.17,0,0,1,88,91s0-.06,0,0a.61.61,0,0,1-.23-.09Z"/><path class="cls-7" d="M161.49,93.66h2.6v2h-2.63v4.43c0,.44,0,1.88,1.69,1.88a4,4,0,0,0,1-.15l.07,2.13a7.8,7.8,0,0,1-1.9.28,4.27,4.27,0,0,1-2.75-.9c-1-.94-1-2.5-.94-3.71V92.71c0-1.36,1.12-1.89,2.16-2.12h.65Z"/><path class="cls-7" d="M169.06,104.27a12.66,12.66,0,0,1-3.31-.44l0-.37a1.54,1.54,0,0,1,1.71-1.37,5.61,5.61,0,0,0,1.21.13c1.29,0,2-.54,2-1.12s-.39-.7-.77-.89c-.76-.34-1.57-.49-2.32-.82a2.91,2.91,0,0,1-1.95-2.68A2.83,2.83,0,0,1,166,95.2c.54-.78,1.77-1.71,4.09-1.71a11.78,11.78,0,0,1,2.94.41l-.19,2a7.87,7.87,0,0,0-2.34-.4,3.32,3.32,0,0,0-1.46.28,1,1,0,0,0-.59.83c0,.48.4.66.84.82.8.31,1.67.48,2.48.81a2.86,2.86,0,0,1,1.78,2.7,3,3,0,0,1-1.14,2.36,5.16,5.16,0,0,1-3.39,1Z"/><path class="cls-7" d="M134.4,95.39h-.29a6.63,6.63,0,0,0-2.9.74,2.74,2.74,0,0,0-.58.4l-.09-2.35a11,11,0,0,1,3.84-.7h0v1.92Zm0,8.74a5.31,5.31,0,0,1-1.25.14,4.23,4.23,0,0,1-3.44-1.55,3,3,0,0,1-.5-1.65,3,3,0,0,1,.55-1.72c1-1.37,3-1.65,4.63-1.7V99.4a3.73,3.73,0,0,0-1.43.41,1.9,1.9,0,0,0-.61.61,1.17,1.17,0,0,0-.18.65,1.35,1.35,0,0,0,.15.57,1.74,1.74,0,0,0,1.6.82,2.49,2.49,0,0,0,.47,0v1.72Zm2.28-1.53c-.14.21-.21.3-.31.43a4,4,0,0,1-2,1.1v-1.71a2.66,2.66,0,0,0,1.58-.93,3.42,3.42,0,0,0,.64-2.11h0a13.88,13.88,0,0,0-2.22,0V97.66h.5l1.66,0a4.85,4.85,0,0,0-.17-1.11,2.06,2.06,0,0,0-2-1.19V93.46a7.54,7.54,0,0,1,1.65.16,3.53,3.53,0,0,1,2.85,2.11,7,7,0,0,1,.28,2.48v2.47c0,.64,0,1.27,0,1.91,0,0,0,1.47,1.17,1.47h-2.47c-1.17,0-1.24-1.46-1.24-1.46Z"/><path class="cls-8" d="M71.4,95.43h-.29a6.81,6.81,0,0,0-2.9.73,3.44,3.44,0,0,0-.57.41l-.09-2.37a10.9,10.9,0,0,1,3.83-.69h0v1.92Zm0,8.75a5.25,5.25,0,0,1-1.25.14,4.19,4.19,0,0,1-3.42-1.54,3,3,0,0,1-.51-1.66,3.13,3.13,0,0,1,.54-1.71c1-1.37,3-1.66,4.64-1.7v1.75a4,4,0,0,0-1.44.41,1.67,1.67,0,0,0-.6.6,1.19,1.19,0,0,0-.2.66,1.58,1.58,0,0,0,.16.58,1.76,1.76,0,0,0,1.6.81,3.26,3.26,0,0,0,.47,0v1.7Zm2.29-1.53a2.13,2.13,0,0,1-.32.42,4,4,0,0,1-2,1.11v-1.72a2.69,2.69,0,0,0,1.59-.92,3.34,3.34,0,0,0,.63-2.11h0a15.16,15.16,0,0,0-2.22,0V97.7h.5c.55,0,1.1,0,1.66,0a3.81,3.81,0,0,0-.17-1.1,2.07,2.07,0,0,0-2-1.19V93.51a7.23,7.23,0,0,1,1.66.17,3.49,3.49,0,0,1,2.85,2.1,7.35,7.35,0,0,1,.28,2.49v2.47c0,.63,0,1.27,0,1.9,0,0,0,1.47,1.18,1.47H74.91c-1.17,0-1.23-1.46-1.22-1.46Z"/><path class="cls-8" d="M97.18,95.43H96.9a6.87,6.87,0,0,0-2.91.73,3.44,3.44,0,0,0-.57.41l-.08-2.36a10.9,10.9,0,0,1,3.83-.69h0Zm0,8.75a5.19,5.19,0,0,1-1.25.14,4.2,4.2,0,0,1-3.42-1.54,3,3,0,0,1-.52-1.66,3,3,0,0,1,.55-1.71c1-1.37,3-1.66,4.63-1.7v1.75a3.92,3.92,0,0,0-1.43.41,1.51,1.51,0,0,0-.6.6,1.19,1.19,0,0,0-.2.66,1.41,1.41,0,0,0,.16.58,1.75,1.75,0,0,0,1.59.81,3.28,3.28,0,0,0,.48,0v1.7Zm2.28-1.53a2.76,2.76,0,0,1-.3.42,4,4,0,0,1-2,1.11v-1.72a2.58,2.58,0,0,0,1.58-.92,3.49,3.49,0,0,0,.65-2.11h0a15.29,15.29,0,0,0-2.23,0V97.7h.51c.54,0,1.1,0,1.65,0a4.21,4.21,0,0,0-.17-1.1,2.06,2.06,0,0,0-2-1.19V93.51a7.23,7.23,0,0,1,1.66.17,3.47,3.47,0,0,1,2.84,2.1,6.82,6.82,0,0,1,.29,2.49v2.47c0,.63,0,1.27,0,1.9,0,0,0,1.47,1.18,1.47h-2.47c-1.17,0-1.23-1.46-1.23-1.46Z"/><path class="cls-7" d="M141.32,102.16a2.1,2.1,0,0,0,2.16,1.91h.73V93.58h-2.88v8.58Z"/><path class="cls-8" d="M81.41,104.32a12.15,12.15,0,0,1-3.32-.46l0-.36a1.54,1.54,0,0,1,1.7-1.37,5.93,5.93,0,0,0,1.23.14c1.28,0,2-.54,2-1.11a1.12,1.12,0,0,0-.76-.9c-.78-.34-1.58-.5-2.32-.82a2.81,2.81,0,0,1-1.54-4.18c.53-.8,1.77-1.71,4.09-1.71a12.23,12.23,0,0,1,2.94.39l-.2,2a7.82,7.82,0,0,0-2.34-.4,3.26,3.26,0,0,0-1.45.28.93.93,0,0,0-.59.83c0,.48.39.66.81.82.82.33,1.7.48,2.51.82A2.87,2.87,0,0,1,85.92,101a3,3,0,0,1-1.13,2.35,5.16,5.16,0,0,1-3.38,1Z"/><path class="cls-8" d="M114.46,95.86a23.34,23.34,0,0,1,.16,3.21v5.11H113.2c-.62-.27-1.19-.49-1.37-1.34V98.41a2.67,2.67,0,0,0-1-2.43,2.17,2.17,0,0,0-1.06-.23,2.33,2.33,0,0,0-1.93,1,4.37,4.37,0,0,0-.62,2.57l0,4.85h-2.86V93.71H107v1.61a4.09,4.09,0,0,1,1.34-1.18,5,5,0,0,1,2.49-.59,5.87,5.87,0,0,1,1.28.14,3.21,3.21,0,0,1,2.35,2.17Z"/><path class="cls-7" d="M156.64,100.08v0ZM155,104a1.77,1.77,0,0,1-1.19-1.29V98.28a2.59,2.59,0,0,0-1-2.42,2.07,2.07,0,0,0-1.05-.24,2.37,2.37,0,0,0-1.93.95,4.31,4.31,0,0,0-.61,2.57V104h-2.88l-.06-10.42H149l0,1.61A3.92,3.92,0,0,1,150.35,94a4.79,4.79,0,0,1,2.5-.6,6.07,6.07,0,0,1,1.28.15,3.19,3.19,0,0,1,2.34,2.16,42.39,42.39,0,0,1,.17,4.35v.57c0,.64,0,1.28,0,1.92a2,2,0,0,0,1.55,1.46h-2.84a1,1,0,0,1-.35,0Z"/><path class="cls-8" d="M87.62,102.16a2.11,2.11,0,0,0,2.16,1.91h.73V93.58H87.62Z"/></svg>