<svg id="Layer_1" data-name="Layer 1" xmlns="http://www.w3.org/2000/svg" viewBox="0 0 240 138"><defs><style>.cls-1,.cls-5{fill:#1b1918;}.cls-1,.cls-2,.cls-3,.cls-4{fill-rule:evenodd;}.cls-2{fill:#fab000;}.cls-3{fill:#e30016;}.cls-4{fill:#b4007b;}.cls-6{fill:none;stroke:#1b1918;stroke-miterlimit:10;stroke-width:3px;}</style></defs><path class="cls-1" d="M102.26,35.94a4.7,4.7,0,0,0-3.07-1.19c-.45.08-.76.42-.76,1.21,0,1.44-.2,3.94.83,5.15,0,0,2.79-2.26,3.2-2.47.55,2.5-1,3.73-1.5,5.76l.67-.29c1.15-.8,1.24.69,1.43-1l.23-2.46C103.48,38.62,103.78,37.16,102.26,35.94ZM117,57.48c0-6.26-5.91-7.49-5.91-14.35V38.07l.42-4.64a19.05,19.05,0,0,1,2.66-7.4,12.3,12.3,0,0,0-7.72.64c2,2.37,4.29,5.85,2.79,12.14-.61,2.52-1.53,4.7-1.53,7.28s3.38,4.58,4.71,6.42c.93,1.28,1.46,1.53,2.46,3,1.36,1.44,1.09,2.87,2.4,3.34Zm-16.3-11.2a2.74,2.74,0,0,0-1.55,2.61c2.56,0,4.25-.46,4.76-2.38C102.58,46.47,101.5,46,100.7,46.28Zm5.75.23v-.42c0-3.09,1.26-4.51,1.26-7.6v-3a8,8,0,0,0-4.58-7.47l-2.93,3.76c3.45,2.33,5,4.33,4.14,8.35l.59,6.67c.07,1.5-2.52,2.95-3.55,3.46-2.14,1.06-2.38.84-3.8,2.53a10.35,10.35,0,0,1,.53-5.24c1.07-2.65,2.54-2.1,2.91-7.07-1.37,2.21-1.68,2.69-2.5,3.92-1.9,2.88-2.61,7.18-3.46,9.24-1.47,3.21-5.92,8.17-5.92,12.23a6.06,6.06,0,0,0,6.16,6,4,4,0,0,0,5.24-1.32c-2.58.77-3.75.88-5-.38-.48.21-2.22.15-2.57-.88,0-.81.84-.29.84-1.69,0-2.06-1.26-2.41-1.26-3,0-2.46,5.75-6.76,8.44-6.76a5,5,0,0,1,4.64,3.8c-.77-.51-2.79-2.11-3.8-2.11-3.47,0-6.9,1.86-7.17,5.07,1.48-1,3.07-3,5.48-3s4,3.14,4.23,5.49c.78-.53,7.59-5.57,7.59-5.91,0-.12-3.17-5.07-3.65-6.05-.66-1.3-3.43-5.85-3.52-6.19,3.5.29,7.15,11,8.86,11,.59,0,.85-.57.85-1.26C114.47,53.43,106.45,50.82,106.45,46.51Zm0,11.82c-1.51-1-3-2.11-5.49-2.11-3.11,0-4.28,2.82-6.33,3.37.61-2.28,4.47-5.91,7.17-5.91A4.92,4.92,0,0,1,106.45,58.33Zm-6.34,5.9H98.85c-1.27,0-2.73.92-4.22,1.27.48.66.07.84,1.26.84h3.38c1.5,0,2,1.51,2.11,3l2.25-1.51C102.93,66.55,101.58,64.23,100.11,64.23Z"/><path class="cls-2" d="M133.66,30.42c-.53,2.31-2.51,8.22-4.15,12.54a33.76,33.76,0,0,0-1.65,4c-.67,2.43-.65,4.44-2,5.07-.46-.35-.46-2-.46-3,0-1.25,2-6.42,2.35-9.34.39-3.25,1.68-7.92,3.6-9.87-2.5-1.08-6.71-1.67-8.24-2.17,0,4-1.74,6.89-2.94,10.05-1.12,3-.8,4.89-.8,7.8,0,1.78,1.48,3.2,2.58,5.14a57.88,57.88,0,0,1,.56-8.72c.24-1.51.52-4.54,1.66-6s1.65-.64,1.36.79c-.89,4.46-2.09,9.15-2.26,13.4-.13,3.16.28,6.11.45,9.46.15,1.27.31,2.53.47,3.79l4.62,3.5c-.29-1.75-.48-3.28-.6-4.62a22,22,0,0,1,1.81-11.7c.62-1.27,1.46-2.49,2.2-3.89a38.3,38.3,0,0,0,2.52-6c1-2.33,3.25-5.77,3.25-8.83C136.62,31.56,135.07,30.7,133.66,30.42Z"/><path class="cls-3" d="M150.43,37.08l-2.62-1.33c-3.67,5.83-3.13,9.76-3.7,16A90.28,90.28,0,0,1,142,65.9l6.22-14.78A20.4,20.4,0,0,1,150.43,37.08Z"/><path class="cls-3" d="M117,44c0-3.41,3-8.71,3-13.93V27.2a15,15,0,0,0-4.23-.81c-.39,1.05-.71,2.34-1.1,3.4a38,38,0,0,0-1.42,7.44V40.6c.13,1.41.26,2.82.38,4.23.49,3.76,6,8.13,6,14.34,0,1.29,1,1.82,2.11,2.11v-3.8c0-8.58-4.64-9.63-4.64-13.08Z"/><path class="cls-4" d="M145,34.61l-3.8-1.71c-.21,1.66-5,11.93-5.92,13.35-3.38,5.47-5.05,11-3.55,17.16.52,2.18,1,4.31.58,5.71l2.67,2.1a5.11,5.11,0,0,1,1-2.42c1.26-1.75,2.94-1.29,4.06-5.17a36.33,36.33,0,0,0,1.32-7.25l-.34-11.56C141.06,41.18,143.67,37.18,145,34.61Zm-7.91,26.86c-.18,1-.44,3.19-1.55,3.19s-1.26-3-1.26-4.22V58.33c0-3.54,2-7.25,4.11-8.65C138,53.38,137.65,57.77,137.12,61.47Z"/><path class="cls-1" d="M115.45,95.77c-2.72-3.68-7.94-4.86-13.2-4.48H98.36v21.48l3.83.23h0c7.59.3,12-1.7,14-5.55A11.73,11.73,0,0,0,115.45,95.77Zm-3.14,10.72c-1.46,2.69-4.09,4-10.11,3.16l0-15.35c3.83-.15,7.54.74,9.52,3.26C113.58,99.87,113.68,104,112.31,106.49Z"/><rect class="cls-5" x="120.13" y="91.29" width="3.89" height="21.48"/><path class="cls-1" d="M138.22,101.51l-.36,2.94h4.75v4.73a6.26,6.26,0,0,1-3,.91,7.76,7.76,0,0,1-8.39-5.9,8.93,8.93,0,0,1,.72-6.37,7,7,0,0,1,3.65-3.17,8,8,0,0,1,8.14,1.91l2.37-2.9a11.92,11.92,0,0,0-9.56-2.6,11.32,11.32,0,0,0-5.33,20.19c4.3,3.1,10.87,2.41,15.15-.36v-9.38Z"/><path class="cls-1" d="M160,90.83h0A11.21,11.21,0,0,0,148.82,102v.19A11.21,11.21,0,0,0,160,113.38h0a11.2,11.2,0,0,0,11.17-11.18V102A11.2,11.2,0,0,0,160,90.83Zm.73,19.1h-.59c-3.67,0-6.8-3.34-7-7.43l0-.79c-.16-4.08,2.71-7.43,6.37-7.43h.59c3.67,0,6.81,3.35,7,7.43l0,.79C167.27,106.59,164.4,109.93,160.73,109.93Z"/><rect class="cls-5" x="68.83" y="91.08" width="3.89" height="21.48"/><polygon class="cls-1" points="95.02 91.29 95.02 112.44 92.67 113.12 81.77 100.63 79.48 98.02 79.48 112.77 75.83 112.77 75.83 91.81 77.37 91.29 78.19 91.02 78.43 91.29 81.77 95.04 91.36 105.83 91.36 91.29 95.02 91.29"/><path class="cls-1" d="M115.51,128h-1v-4.76c0-.38-.08-.67-.42-.57l1-.38c.1,0,.19.15.25.36a6.16,6.16,0,0,1,.13,1,9.79,9.79,0,0,1,.81-1,1.43,1.43,0,0,1,1.64-.2l-.17.65a1.37,1.37,0,0,0-1.35.19,5.56,5.56,0,0,0-.88.92Z"/><path class="cls-1" d="M121.56,122.22a2.42,2.42,0,0,0-.47,0,2.55,2.55,0,0,0-1.13.52c-.07-.28-.19-.5-.37-.52l-1,.38c.34-.1.44.19.42.57v8.2h1v-3.81a2.55,2.55,0,0,0,1.54.52,3,3,0,0,0,0-5.91Zm-.24,5.31A1.84,1.84,0,0,1,120,127v-3.58a1.91,1.91,0,0,1,1-.53,2,2,0,0,1,.34,0,2.38,2.38,0,0,1,0,4.7Z"/><path class="cls-1" d="M126.58,128h-1v-4.76c0-.38-.09-.67-.42-.57l1-.38c.11,0,.19.15.26.36a6.14,6.14,0,0,1,.12,1,9.89,9.89,0,0,1,.82-1,1.43,1.43,0,0,1,1.64-.2l-.17.65a1.38,1.38,0,0,0-1.36.19,5.76,5.76,0,0,0-.87.92Z"/><path class="cls-1" d="M148.21,127.18V119h-1v3.91a2.59,2.59,0,0,0-1.19-.57,2.42,2.42,0,0,0-.47,0,3,3,0,0,0,0,5.91,2.59,2.59,0,0,0,1.76-.7,1.49,1.49,0,0,0,1.52.65c0-.19.08-.36.14-.57A.59.59,0,0,1,148.21,127.18Zm-1-.26a1.89,1.89,0,0,1-1.42.69,2.38,2.38,0,0,1,0-4.7,2.07,2.07,0,0,1,.35,0,1.93,1.93,0,0,1,1.07.66Z"/><path class="cls-1" d="M130.07,122.32v3.51h1v-3.51Zm.48-2.75h-.1a.57.57,0,1,0,.1,0Z"/><path class="cls-1" d="M91.55,123.43a2.19,2.19,0,0,0,1.24-2,2,2,0,0,0-1.93-1.91H88.07v8.54h3a2.34,2.34,0,0,0,2.4-1.95A2.36,2.36,0,0,0,91.55,123.43ZM89,120.25h1.45a1.54,1.54,0,0,1,1.39,1.68,1.44,1.44,0,0,1-1,1.36H89Zm2.28,7.12H89v-3.29H91a1.66,1.66,0,0,1,1.5,1.82A1.58,1.58,0,0,1,91.32,127.37Z"/><path class="cls-1" d="M108,122.42h1v3.43c0,.62-.16,1.08.44,1.43a1.65,1.65,0,0,0,2.32-.73v-4.13h1v4.76a.58.58,0,0,0,.79.41c-.06.21-.09.38-.14.57a1.46,1.46,0,0,1-1.57-.75,2.56,2.56,0,0,1-3.31.33c-.51-.43-.48-.79-.48-1.39Z"/><path class="cls-1" d="M103.37,126.89a1.8,1.8,0,0,0,.69.45,2.35,2.35,0,0,0,1,.1h0l.14,0,.12,0a.79.79,0,0,0,.43-.3h0a1.19,1.19,0,0,0,.08-.16,1.24,1.24,0,0,0,0-.16.88.88,0,0,0-.33-.78,1.85,1.85,0,0,0-.27-.19l-.32-.17h0l-.35-.15a2.57,2.57,0,0,1-1.13-.71,1.35,1.35,0,0,1-.14-.22,1.6,1.6,0,0,1-.09-1.12,1.62,1.62,0,0,1,.6-.87,1.09,1.09,0,0,1,.23-.14h0l.15-.06.15,0h0a2.13,2.13,0,0,1,.84,0h0l.22,0,.2.06a2.79,2.79,0,0,1,.81.37l-.43.63a2.32,2.32,0,0,0-1.5-.4h0l-.07,0-.07,0h0l-.1.06a1,1,0,0,0-.3.51c-.18.66.44.93.93,1.13l.38.16h0a3.84,3.84,0,0,1,.4.21,2.76,2.76,0,0,1,.39.28,1.49,1.49,0,0,1,.31,2.08h0a1.85,1.85,0,0,1-1.3.7,2.39,2.39,0,0,1-2.3-.76Z"/><path class="cls-1" d="M97.23,127.46c-1.16-.2-1.76-1-1.81-2.47h3.35c.51,0,.82-.17.73-.75a2.6,2.6,0,0,0-.64-1.33,1.92,1.92,0,0,0-.86-.51,2.72,2.72,0,0,0-2.83.93,2.16,2.16,0,0,0-.38.68c-.55,1.51,0,3.53,1.64,4a3.1,3.1,0,0,0,3-.76c-.15-.17-.22-.3-.37-.46A2.41,2.41,0,0,1,97.23,127.46Zm1.56-3H95.46A1.67,1.67,0,0,1,98.79,124.44Z"/><path class="cls-1" d="M132.68,126.89a1.8,1.8,0,0,0,.69.45,2.33,2.33,0,0,0,1,.1h0l.13,0,.13,0a.73.73,0,0,0,.42-.3h0a.6.6,0,0,0,.08-.16,1.42,1.42,0,0,0,0-.16.9.9,0,0,0-.33-.78l-.27-.19a2.55,2.55,0,0,0-.33-.17h0l-.34-.15a2.6,2.6,0,0,1-1.14-.71,1.27,1.27,0,0,1-.13-.22,1.64,1.64,0,0,1,.5-2,1.49,1.49,0,0,1,.24-.14h0l.15-.06.15,0h0a2.19,2.19,0,0,1,.85,0h0l.22,0,.2.06a2.92,2.92,0,0,1,.81.37l-.43.63a2.33,2.33,0,0,0-1.5-.4h0l-.08,0-.07,0h0l-.09.06a1.05,1.05,0,0,0-.31.51c-.17.66.44.93.94,1.13l.38.16h0l.4.21a2.76,2.76,0,0,1,.39.28,1.51,1.51,0,0,1,.31,2.08h0a1.87,1.87,0,0,1-1.3.7,2.39,2.39,0,0,1-2.3-.76Z"/><path class="cls-1" d="M139.71,127.46c-1.17-.2-1.77-1-1.82-2.47h3.35c.51,0,.82-.17.74-.75a2.69,2.69,0,0,0-.65-1.33,1.92,1.92,0,0,0-.86-.51,2.69,2.69,0,0,0-2.82.93,2.19,2.19,0,0,0-.39.68c-.55,1.51,0,3.53,1.65,4a3.08,3.08,0,0,0,3-.76c-.15-.17-.22-.3-.37-.46A2.39,2.39,0,0,1,139.71,127.46Zm1.56-3h-3.34A1.68,1.68,0,0,1,141.27,124.44Z"/><path class="cls-6" d="M115.84,8.08A38.19,38.19,0,1,1,77.66,46.26,38.18,38.18,0,0,1,115.84,8.08Z"/></svg>