<svg id="Layer_1" data-name="Layer 1" xmlns="http://www.w3.org/2000/svg" viewBox="0 0 504 480"><defs><style>.cls-1{fill:#e2ba9f;}.cls-2{fill:#f5c396;}.cls-3{fill:#cc9e79;}.cls-4{fill:#2f323a;}.cls-5{fill:#fff;}</style></defs><rect class="cls-1" x="107.7" y="55.21" width="64.63" height="64.63" transform="translate(-23.97 68.21) rotate(-25.29)"/><polygon class="cls-2" points="200.68 66.55 182.54 102.83 155.32 45 178 9.85 200.68 66.55"/><polygon class="cls-3" points="155.32 46.14 97.49 72.22 122.44 27.99 178 9.85 155.32 46.14"/><polygon class="cls-3" points="90.7 227.9 50.03 228.65 4.65 197.07 57.97 209.37 90.7 227.9"/><polygon class="cls-2" points="108.34 191.51 90.2 227.79 57.97 209.37 85.66 134.81 108.34 191.51"/><polygon class="cls-1" points="57.97 209.37 5.15 197.18 29.62 152.68 85.66 134.81 57.97 209.37"/><path class="cls-2" d="M200.3,130.85h83.39a208,208,0,0,1,208,208v0a125,125,0,0,1-125,125H162.84a51.11,51.11,0,0,1-51.11-51.11V219.41A88.56,88.56,0,0,1,200.3,130.85Z"/><polygon class="cls-4" points="442.73 253.85 376.73 253.85 145.73 433.85 409.73 433.85 442.73 253.85"/><polygon class="cls-3" points="315.3 339.14 279.44 339.8 239.42 311.96 286.44 322.8 315.3 339.14"/><polygon class="cls-5" points="330.86 307.05 314.86 339.05 286.44 322.8 310.86 257.05 330.86 307.05"/><polygon class="cls-1" points="286.44 322.8 239.86 312.05 261.44 272.8 310.86 257.05 286.44 322.8"/><polygon class="cls-3" points="231.01 395.36 199.02 411.61 150.86 404.02 197.9 393.26 231.01 395.36"/><polygon class="cls-5" points="231 359.7 230.57 395.47 197.9 393.26 191.18 323.44 231 359.7"/><polygon class="cls-1" points="197.9 393.26 151.3 403.91 153.59 359.18 191.18 323.44 197.9 393.26"/><rect class="cls-3" x="381.73" y="263.66" width="23.44" height="24.2"/><polygon class="cls-5" points="412.73 277.27 405.17 287.85 405.17 263.66 412.73 259.12 412.73 277.27"/><polygon class="cls-1" points="405.17 263.66 382.49 263.66 391.56 259.12 412.73 259.12 405.17 263.66"/><rect class="cls-3" x="349.96" y="294.67" width="32.15" height="33.19"/><polygon class="cls-5" points="392.48 313.33 382.11 327.85 382.11 294.67 392.48 288.44 392.48 313.33"/><polygon class="cls-1" points="382.11 294.67 350.99 294.67 363.44 288.44 392.48 288.44 382.11 294.67"/><rect class="cls-5" x="306.13" y="382.85" width="37.22" height="1" transform="translate(-170.65 467.07) rotate(-59.32)"/><rect class="cls-5" x="337.73" y="365.69" width="1" height="11.31" transform="translate(-163.52 347.93) rotate(-45)"/><rect class="cls-5" x="317.69" y="369.85" width="17.09" height="1" transform="translate(-109.43 138.43) rotate(-20.6)"/></svg>