<svg id="Layer_1" data-name="Layer 1" xmlns="http://www.w3.org/2000/svg" viewBox="0 0 1088.29 1471.1"><defs><style>.cls-1{fill:#72d6bf;}.cls-2{fill:#2f323a;}.cls-3{fill:#5db59e;}.cls-4{fill:#fff;}.cls-5{fill:#604837;}.cls-6{fill:#cc9e79;}.cls-7{fill:#8e6f5a;}.cls-8{fill:#f5c396;}.cls-9{fill:#c6a187;}.cls-10{fill:#a0765a;}</style></defs><path class="cls-1" d="M551.86,42.6h0C287,42.6,72.35,257.27,72.35,522.08v860.43h959V522.08C1031.31,257.27,816.66,42.6,551.86,42.6ZM901.44,601.08H152.91V482.67H901.44Z"/><path class="cls-2" d="M297,775.6h0A132.68,132.68,0,0,1,429.68,908.28v316.59a0,0,0,0,1,0,0H164.32a0,0,0,0,1,0,0V908.28A132.68,132.68,0,0,1,297,775.6Z"/><rect class="cls-3" x="119.66" y="1245.88" width="262.73" height="31.53"/><polygon class="cls-4" points="385.01 1245.88 119.66 1245.88 164.32 1224.87 429.68 1224.87 385.01 1245.88"/><polygon class="cls-4" points="341.97 1298.43 76.62 1298.43 121.28 1277.41 386.63 1277.41 341.97 1298.43"/><rect class="cls-3" x="77.62" y="1298.43" width="262.73" height="31.53"/><polygon class="cls-4" points="297.31 1350.97 31.95 1350.97 76.62 1329.96 341.97 1329.96 297.31 1350.97"/><rect class="cls-3" x="32.96" y="1350.97" width="262.73" height="31.53"/><rect class="cls-2" x="504.01" y="953.34" width="454.52" height="223.32"/><polygon class="cls-5" points="914.5 1176.28 904.22 1176.28 904.22 1122.42 914.5 1107.32 914.5 1176.28"/><rect class="cls-6" x="704.35" y="1083.04" width="66.36" height="93.23"/><polygon class="cls-7" points="770.71 1083.04 704.35 1083.04 717.54 1079.59 783.48 1079.59 770.71 1083.04"/><polygon class="cls-5" points="783.48 1176.28 770.71 1176.28 770.71 1083.04 783.48 1079.59 783.48 1176.28"/><polygon class="cls-5" points="713.55 1176.28 706.03 1176.28 694.68 1176.6 713.59 1158.13 713.55 1176.28"/><polygon class="cls-7" points="694.68 1176.6 600.53 1176.18 619.45 1157.72 713.59 1158.13 694.68 1176.6"/><rect class="cls-6" x="550.66" y="1068.56" width="118.23" height="107.72"/><polygon class="cls-7" points="668.88 1068.56 550.66 1068.56 574.3 1052.79 692.53 1052.79 668.88 1068.56"/><polygon class="cls-5" points="692.53 1157.88 668.88 1176.28 668.88 1068.56 692.53 1052.79 692.53 1157.88"/><rect class="cls-6" x="558.54" y="1014.1" width="55.17" height="52.55"/><polygon class="cls-7" points="613.85 1014.1 558.37 1014.1 569.47 1006.68 624.95 1006.68 613.85 1014.1"/><polygon class="cls-5" points="624.95 1056.93 613.71 1066.6 613.71 1013.89 624.95 1006.68 624.95 1056.93"/><rect class="cls-6" x="779.45" y="1122.42" width="124.77" height="53.86"/><polygon class="cls-7" points="904.22 1122.42 779.45 1122.42 799.8 1107.32 914.5 1107.32 904.22 1122.42"/><rect class="cls-6" x="821.94" y="1075.12" width="82.28" height="43.83"/><polygon class="cls-7" points="904.22 1075.12 821.94 1075.12 833.23 1068.56 909.36 1068.56 904.22 1075.12"/><polygon class="cls-5" points="909.36 1112.47 904.22 1118.95 904.22 1075.12 909.36 1068.56 909.36 1112.47"/><rect class="cls-8" x="504.01" y="1324.67" width="134.76" height="134.76"/><polygon class="cls-9" points="638.77 1324.67 504.01 1324.67 521.76 1305.57 648.2 1305.57 638.77 1324.67"/><polygon class="cls-10" points="648.2 1437.05 638.77 1459.43 638.77 1324.67 648.2 1305.57 648.2 1437.05"/><rect class="cls-8" x="643.48" y="1387.92" width="111.32" height="59.94"/><polygon class="cls-9" points="754.8 1387.92 643.48 1387.92 658.47 1372.16 761.44 1372.16 754.8 1387.92"/><polygon class="cls-10" points="761.44 1429.85 754.8 1447.87 754.8 1387.92 761.44 1372.16 761.44 1429.85"/><rect class="cls-8" x="711.47" y="1326.46" width="38.91" height="57.83"/><polygon class="cls-9" points="750.37 1326.46 711.47 1326.46 715.89 1321.29 754.8 1321.29 750.37 1326.46"/><polygon class="cls-10" points="754.8 1375.4 750.37 1384.29 750.37 1326.46 754.8 1321.29 754.8 1375.4"/><rect class="cls-8" x="758.12" y="1398.8" width="100.09" height="63.47"/><polygon class="cls-9" points="858.21 1398.8 758.12 1398.8 771.3 1385.68 865.21 1385.68 858.21 1398.8"/><polygon class="cls-10" points="865.21 1439.34 858.21 1462.27 858.21 1398.8 865.21 1385.68 865.21 1439.34"/><rect class="cls-8" x="865.21" y="1407.2" width="83.24" height="33.08"/><polygon class="cls-9" points="948.45 1407.2 865.21 1407.2 865.21 1398.8 953.75 1398.8 948.45 1407.2"/><polygon class="cls-10" points="953.75 1426.1 948.45 1438.4 948.45 1405.32 953.75 1396.92 953.75 1426.1"/><polygon class="cls-2" points="901.44 482.67 901.44 523.28 220.61 523.28 220.61 601.08 152.91 601.08 152.91 482.67 901.44 482.67"/></svg>