<svg id="Layer_1" data-name="Layer 1" xmlns="http://www.w3.org/2000/svg" viewBox="0 0 242 234"><defs><style>.cls-1{fill:#4d4d4d;}</style></defs><path class="cls-1" d="M139.3,212.75H102.7a7,7,0,0,1-7-7v-2.8a7,7,0,0,1,7-7h36.6a7,7,0,0,1,7,7v2.8A7,7,0,0,1,139.3,212.75Zm-36.6-12.68a2.86,2.86,0,0,0-2.86,2.86v2.8a2.87,2.87,0,0,0,2.86,2.87h36.6a2.88,2.88,0,0,0,2.87-2.87v-2.8a2.87,2.87,0,0,0-2.87-2.86Z"/><path class="cls-1" d="M159.93,222.21H82.08A20.25,20.25,0,0,1,61.84,202V32A20.25,20.25,0,0,1,82.08,11.79h77.85A20.25,20.25,0,0,1,180.16,32V202A20.25,20.25,0,0,1,159.93,222.21ZM82.08,15.94A16.1,16.1,0,0,0,66,32V202a16.1,16.1,0,0,0,16.09,16.08h77.85A16.09,16.09,0,0,0,176,202V32a16.09,16.09,0,0,0-16.08-16.08Z"/><path class="cls-1" d="M153.2,190.81H88.8A15.87,15.87,0,0,1,73,175V46.16A15.87,15.87,0,0,1,88.8,30.31h64.4a15.86,15.86,0,0,1,15.85,15.85V175A15.86,15.86,0,0,1,153.2,190.81ZM88.8,34.46a11.72,11.72,0,0,0-11.7,11.7V175a11.71,11.71,0,0,0,11.7,11.69h64.4A11.71,11.71,0,0,0,164.9,175V46.16a11.71,11.71,0,0,0-11.7-11.7Z"/><path class="cls-1" d="M141.43,25.31H104.8a2.08,2.08,0,0,1,0-4.15h36.63a2.08,2.08,0,0,1,0,4.15Z"/><circle class="cls-1" cx="148.47" cy="23.23" r="2.26"/></svg>