<svg id="Layer_1" data-name="Layer 1" xmlns="http://www.w3.org/2000/svg" viewBox="0 0 245 188.77"><defs><style>.cls-1{fill:#fff;}</style></defs><path class="cls-1" d="M97.7,188.2a21.53,21.53,0,1,1,21.23-21.53A21.4,21.4,0,0,1,97.7,188.2Zm0-37.4a15.88,15.88,0,1,0,15.47,15.87A15.69,15.69,0,0,0,97.7,150.8Z"/><path class="cls-1" d="M198.56,188.2a21.53,21.53,0,1,1,21.23-21.53A21.4,21.4,0,0,1,198.56,188.2Zm0-37.4A15.88,15.88,0,1,0,214,166.67,15.68,15.68,0,0,0,198.56,150.8Z"/><path class="cls-1" d="M213.05,132.07h-129l-9.73-31.86H205.51L244,25.67,52.42,28.84l-7-22.92h-.06a2.75,2.75,0,0,0-2.42-2L3.57.77A2.89,2.89,0,0,0,.46,3.38,3,3,0,0,0,3.11,6.43l37.38,3L79.14,135.46l.06.23a2.88,2.88,0,0,0,2.76,2H213.05a2.9,2.9,0,0,0,2.88-2.82A2.86,2.86,0,0,0,213.05,132.07ZM54.43,34.5l180-3L202,94.55H73.61Z"/></svg>