<svg id="Layer_1" data-name="Layer 1" xmlns="http://www.w3.org/2000/svg" viewBox="0 0 170 191"><defs><style>.cls-1{fill:#fff;}</style></defs><path class="cls-1" d="M85.26,189.8c-16.37,0-31.68-2.31-43.11-6.52C24.48,176.77,20.77,167.57,20.77,161a64.5,64.5,0,0,1,129,0C149.76,180.89,117.36,189.8,85.26,189.8Zm0-86.14A57.4,57.4,0,0,0,27.93,161c0,14.06,29.54,21.65,57.33,21.65s57.33-7.59,57.33-21.65A57.4,57.4,0,0,0,85.26,103.66Z"/><path class="cls-1" d="M85.26,89.33a28.67,28.67,0,1,1,28.67-28.67A28.69,28.69,0,0,1,85.26,89.33Zm0-50.16a21.5,21.5,0,1,0,21.5,21.49A21.52,21.52,0,0,0,85.26,39.17Z"/></svg>