<svg id="Layer_1" data-name="Layer 1" xmlns="http://www.w3.org/2000/svg" viewBox="0 0 215 215"><defs><style>.cls-1{fill:#fff;}.cls-2{fill:#61a3aa;}</style></defs><path class="cls-1" d="M213.42,107.47a105.93,105.93,0,0,1-89.29,104.6q0-37.2,0-74.38H148.9l4.73-30.87H124.12v-20c0-8.44,4.12-16.67,17.34-16.67h13.4V43.84a163.29,163.29,0,0,0-23.8-2.08c-24.3,0-40.18,14.78-40.18,41.54v23.52h-27v30.87h27v74.38a105.9,105.9,0,1,1,122.54-104.6Z"/><path class="cls-2" d="M124.12,86.79v20h29.51l-4.73,30.87H124.12q0,37.19,0,74.38v0c-2.61.42-5.57.79-8.84,1-1.69.12-4.7.3-8.39.29a108.11,108.11,0,0,1-16-1.3V137.69h-27V106.82h27V83.3c0-26.76,15.88-41.54,40.18-41.54a163.29,163.29,0,0,1,23.8,2.08V70.12h-13.4C128.24,70.12,124.12,78.35,124.12,86.79Z"/></svg>