<svg id="Layer_1" data-name="Layer 1" xmlns="http://www.w3.org/2000/svg" viewBox="0 0 242 234"><defs><style>.cls-1{fill:#333;}.cls-2{fill:#4d4d4d;}</style></defs><path class="cls-1" d="M121,167.05a5.23,5.23,0,0,1-4.27-2.17L75.91,108.8a54.11,54.11,0,0,1,45-84H121a54.11,54.11,0,0,1,45.12,84l-1.21,1.91-39.64,54.18A5.22,5.22,0,0,1,121,167.05Zm0-138.58h-.08a50.46,50.46,0,0,0-42,78.3l2,2.93,38.79,53a1.69,1.69,0,0,0,2.66,0l40.72-55.92a50.45,50.45,0,0,0-42-78.34Z"/><path class="cls-1" d="M121,101.51A22.58,22.58,0,1,1,143.6,78.93,22.61,22.61,0,0,1,121,101.51ZM121,60A18.94,18.94,0,1,0,140,78.93,19,19,0,0,0,121,60Z"/><path class="cls-2" d="M212.64,209.17H29.36a7.79,7.79,0,0,1-6.86-11.49l26.66-49.44A7.79,7.79,0,0,1,56,144.15H72.63a1.82,1.82,0,1,1,0,3.64H56A4.14,4.14,0,0,0,52.37,150L25.71,199.41a4.15,4.15,0,0,0,3.65,6.12H212.64a4.15,4.15,0,0,0,3.64-6.13L189.38,150a4.16,4.16,0,0,0-3.65-2.17H169.41a1.82,1.82,0,0,1,0-3.64h16.32a7.81,7.81,0,0,1,6.85,4.06l26.9,49.45a7.79,7.79,0,0,1-6.84,11.51Z"/><path class="cls-2" d="M199.75,184.36a1.86,1.86,0,0,1-1.71,1.93l-20.58,1.06,3.2,6.41a1.79,1.79,0,0,1-.8,2.44,2.07,2.07,0,0,1-.8.18,1.8,1.8,0,0,1-1.64-1l-13.69-27.42L99.88,185.16l17.34,9.07a1.83,1.83,0,0,1,.8,2.44,1.88,1.88,0,0,1-1.64,1,1.72,1.72,0,0,1-.83-.22l-40.5-21.2L40,191a1.55,1.55,0,0,1-.69.14,1.81,1.81,0,0,1-.73-3.49l32.27-13.62-17.7-9.26a1.81,1.81,0,0,1-.77-2.44,1.83,1.83,0,0,1,2.48-.76L75.3,172.27l1.75.95,18.14,9.47a1.36,1.36,0,0,1,.29-.11L186,158.18a1.81,1.81,0,1,1,.94,3.49L167.3,167l8.37,16.79,22.15-1.13A1.79,1.79,0,0,1,199.75,184.36Z"/><path class="cls-2" d="M77.05,173.22l-1.75-.95A1.83,1.83,0,0,1,77.05,173.22Z"/></svg>