<svg id="Layer_1" data-name="Layer 1" xmlns="http://www.w3.org/2000/svg" viewBox="0 0 50 50"><defs><style>.cls-1{fill:#998675;}.cls-2{fill:none;}.cls-3{fill:#2f1a1a;}.cls-4{fill:#341a1a;}.cls-5{fill:#00a99d;}.cls-6{fill:#fbb03b;}.cls-7{fill:#fff;}.cls-8{fill:#29abe2;}</style></defs><circle class="cls-1" cx="25" cy="25" r="24.93"/><path class="cls-2" d="M25,50A25,25,0,1,1,50,25,25,25,0,0,1,25,50ZM25,.14A24.86,24.86,0,1,0,49.86,25,24.89,24.89,0,0,0,25,.14Z"/><path class="cls-3" d="M6.59,9.94l.25-.28,2,1.77-.24.29Zm1.88,1.4,1-1.16.27.23-1,1.17Z"/><path class="cls-3" d="M8.38,8l.28-.25,1.82,2L10.2,10Zm1.9.34A.45.45,0,0,0,10,8.16a.38.38,0,0,0-.3.12.36.36,0,0,0-.14.26.33.33,0,0,0,.11.27l-.28-.24a.63.63,0,0,1,0-.36.62.62,0,0,1,.17-.28.62.62,0,0,1,.5-.18.88.88,0,0,1,.51.32l.79.86-.28.25Z"/><path class="cls-3" d="M12.13,6.79a.4.4,0,0,0-.26-.18.36.36,0,0,0-.29.08.65.65,0,0,0-.16.17.5.5,0,0,0-.1.19H11a.86.86,0,0,1,.11-.33,1.13,1.13,0,0,1,.28-.3,1,1,0,0,1,.38-.17.59.59,0,0,1,.35,0,.76.76,0,0,1,.31.26l.73,1-.29.22ZM12,8.27A.57.57,0,0,1,11.56,8a.55.55,0,0,1-.12-.44.67.67,0,0,1,.31-.4l.44-.33.2.23-.46.34a.32.32,0,0,0-.14.18.29.29,0,0,0,.06.21.26.26,0,0,0,.21.12.5.5,0,0,0,.28-.12,1.22,1.22,0,0,0,.23-.23.15.15,0,0,0,0-.18l.19.19a.37.37,0,0,1,0,.18.65.65,0,0,1-.09.16l-.16.15A.9.9,0,0,1,12,8.27Z"/><path class="cls-3" d="M12.43,4.8l.32-.19,1.37,2.32-.33.2Zm1.13,1.61.25-1.53.39-.22-.43,2.15Zm.2-.55.08-.34,1.41.75-.35.21Z"/><path class="cls-3" d="M14.58,3.61l.34-.16.16.34L14.74,4Zm.33.7.34-.17.84,1.74L15.75,6Z"/><path class="cls-3" d="M19.39,3.12l.14.45a1.12,1.12,0,0,1,0,.54.87.87,0,0,1-.21.43,1.05,1.05,0,0,1-.43.27,1.17,1.17,0,0,1-.52,0A.78.78,0,0,1,18,4.62a1.12,1.12,0,0,1-.26-.44l-.23-.76a1.12,1.12,0,0,1,0-.54.83.83,0,0,1,.21-.43,1,1,0,0,1,.44-.27,1,1,0,0,1,.43,0,1,1,0,0,1,.4.17,1,1,0,0,1,.29.35l-.39.12a.79.79,0,0,0-.17-.19.63.63,0,0,0-.23-.08.6.6,0,0,0-.23,0A.56.56,0,0,0,18,2.7a.42.42,0,0,0-.12.27.68.68,0,0,0,0,.34l.23.76a.72.72,0,0,0,.16.27.5.5,0,0,0,.25.13.55.55,0,0,0,.31,0A.52.52,0,0,0,19.2,4a.83.83,0,0,0,0-.34l0-.11-.52.16-.11-.35Z"/><path class="cls-3" d="M20.89,4.2A.66.66,0,0,1,20.56,4a1,1,0,0,1-.19-.44l0-.21a1.18,1.18,0,0,1,0-.5.68.68,0,0,1,.22-.35A.82.82,0,0,1,21,2.27a.66.66,0,0,1,.42,0,.69.69,0,0,1,.32.29,1.45,1.45,0,0,1,.19.52l0,.13-1.27.23-.06-.3L21.51,3a.65.65,0,0,0-.18-.33.33.33,0,0,0-.3-.08.39.39,0,0,0-.3.2.59.59,0,0,0-.05.41l.05.24a.5.5,0,0,0,.19.34.46.46,0,0,0,.37.06.47.47,0,0,0,.22-.09.52.52,0,0,0,.17-.16l.29.2a1,1,0,0,1-.27.26.91.91,0,0,1-.34.14A.92.92,0,0,1,20.89,4.2Z"/><path class="cls-3" d="M22.65,2,23,2l.14,1.92L22.8,4Zm1.22.67a.43.43,0,0,0-.13-.31.4.4,0,0,0-.3-.08.41.41,0,0,0-.28.12.36.36,0,0,0-.08.28L23,2.35a.69.69,0,0,1,.22-.28.62.62,0,0,1,.8.05.83.83,0,0,1,.22.56l.09,1.16-.38,0Z"/><path class="cls-3" d="M25.47,3.77a.7.7,0,0,1-.28-.31A1.09,1.09,0,0,1,25.1,3V2.78a1.18,1.18,0,0,1,.11-.49.7.7,0,0,1,.29-.3A1,1,0,0,1,26,1.9a.8.8,0,0,1,.41.13.86.86,0,0,1,.25.36,1.53,1.53,0,0,1,.07.55v.12L25.38,3V2.72l.93,0a.58.58,0,0,0-.11-.37.35.35,0,0,0-.27-.14.42.42,0,0,0-.34.13.66.66,0,0,0-.13.4V3a.53.53,0,0,0,.12.37.45.45,0,0,0,.35.14.59.59,0,0,0,.23,0,.72.72,0,0,0,.21-.12l.24.25a1.15,1.15,0,0,1-.33.21,1.13,1.13,0,0,1-.36.06A1,1,0,0,1,25.47,3.77Z"/><path class="cls-3" d="M27.62,2l.37,0L27.75,4l-.37-.05Zm.88.47a.48.48,0,0,0-.17,0,.34.34,0,0,0-.42.32V2.41a.77.77,0,0,1,.27-.24.5.5,0,0,1,.32,0,.62.62,0,0,1,.23.07.52.52,0,0,1,.17.13l-.29.3A.38.38,0,0,0,28.5,2.51Z"/><path class="cls-3" d="M29.34,4.11a.55.55,0,0,1-.07-.48.53.53,0,0,1,.25-.38.7.7,0,0,1,.51,0l.53.12,0,.3L30,3.52a.35.35,0,0,0-.23,0,.29.29,0,0,0-.12.18.27.27,0,0,0,.05.24.49.49,0,0,0,.27.13,1.07,1.07,0,0,0,.33,0A.18.18,0,0,0,30.4,4l0,.27a.45.45,0,0,1-.14.1.58.58,0,0,1-.19,0,.52.52,0,0,1-.21,0A.79.79,0,0,1,29.34,4.11Zm1.22-.85a.4.4,0,0,0,0-.31.41.41,0,0,0-.26-.17.87.87,0,0,0-.23,0,.8.8,0,0,0-.21,0l-.23-.24a.71.71,0,0,1,.33-.14.91.91,0,0,1,.4,0,.79.79,0,0,1,.38.17.57.57,0,0,1,.2.29.77.77,0,0,1,0,.4l-.28,1.21-.35-.08Z"/><path class="cls-3" d="M31.92,4.39a.17.17,0,0,0,0,.12.12.12,0,0,0,.08.06l.16,0-.1.34-.22-.06a.45.45,0,0,1-.27-.23.52.52,0,0,1,0-.39l.66-2.1.36.12Z"/><path class="cls-3" d="M34.29,5.85a1.36,1.36,0,0,1-.24-.24,1.11,1.11,0,0,1-.17-.3l.33-.15a1.46,1.46,0,0,0,.22.33,1.4,1.4,0,0,0,.33.24.84.84,0,0,0,.45.1.36.36,0,0,0,.29-.2h0a.35.35,0,0,0,0-.24.44.44,0,0,0-.12-.19,1.72,1.72,0,0,0-.23-.2h0l0,0a2.33,2.33,0,0,1-.35-.29.59.59,0,0,1-.17-.32.65.65,0,0,1,.09-.45h0A.73.73,0,0,1,35,3.58a.7.7,0,0,1,.41-.1,1.39,1.39,0,0,1,.51.15l.24.15a1.34,1.34,0,0,1,.2.21,1,1,0,0,1,.17.26l-.32.17a1.64,1.64,0,0,0-.2-.29A.83.83,0,0,0,35.76,4a.63.63,0,0,0-.44-.09.36.36,0,0,0-.27.21h0a.32.32,0,0,0,0,.23.5.5,0,0,0,.13.19,2.39,2.39,0,0,0,.26.22h.05a1.78,1.78,0,0,1,.31.29.6.6,0,0,1,.15.32.68.68,0,0,1-.08.42h0a.67.67,0,0,1-.29.33.73.73,0,0,1-.42.09,1.43,1.43,0,0,1-.52-.15A2.36,2.36,0,0,1,34.29,5.85Z"/><path class="cls-3" d="M36.31,6.81a.6.6,0,0,1,.11-.38l1-1.69.32.2-1,1.69a.13.13,0,0,0,0,.11.08.08,0,0,0,0,.07l.15.1-.19.31-.18-.12A.42.42,0,0,1,36.31,6.81ZM37,5.12l.74.45-.18.29-.74-.45Z"/><path class="cls-3" d="M37.66,7.75a.58.58,0,0,1,0-.39,1,1,0,0,1,.19-.42L38,6.69a1,1,0,0,1,.34-.3.68.68,0,0,1,.39-.07.85.85,0,0,1,.4.18.89.89,0,0,1,.29.33.76.76,0,0,1,.05.39,1,1,0,0,1-.2.42l-.19.25a1,1,0,0,1-.34.31.65.65,0,0,1-.39.06.77.77,0,0,1-.4-.17A.81.81,0,0,1,37.66,7.75Zm.82.13a.5.5,0,0,0,.29-.21L39,7.41a.49.49,0,0,0,.12-.34.45.45,0,0,0-.49-.37.56.56,0,0,0-.3.22l-.19.25a.57.57,0,0,0-.12.35.39.39,0,0,0,.18.28A.35.35,0,0,0,38.48,7.88Z"/><path class="cls-3" d="M40.45,7.6l.28.25L39.44,9.28,39.16,9Zm.45.89a.45.45,0,0,0-.11-.14.35.35,0,0,0-.27-.11.34.34,0,0,0-.26.14l.22-.31a.72.72,0,0,1,.35,0,.53.53,0,0,1,.29.14.7.7,0,0,1,.16.19.66.66,0,0,1,.06.2l-.41.09A.41.41,0,0,0,40.9,8.49Z"/><path class="cls-3" d="M40.76,10.46a.75.75,0,0,1,0-.42,1.07,1.07,0,0,1,.28-.38l.16-.15a1,1,0,0,1,.43-.26.72.72,0,0,1,.41,0,.79.79,0,0,1,.37.25.72.72,0,0,1,.19.38.75.75,0,0,1-.08.43,1.63,1.63,0,0,1-.34.44l-.1.08-.87-1,.22-.2.64.69a.63.63,0,0,0,.18-.34.32.32,0,0,0-.09-.29.38.38,0,0,0-.33-.15.61.61,0,0,0-.37.18l-.18.17a.5.5,0,0,0-.19.34.54.54,0,0,0,.15.35.64.64,0,0,0,.19.13.46.46,0,0,0,.23.06v.36a1,1,0,0,1-.38-.1.78.78,0,0,1-.29-.21A1.07,1.07,0,0,1,40.76,10.46Z"/><path class="cls-4" d="M11.59,41.53l.3.24-1.57,1.92L10,43.45Zm-.44-.65,1.47,1.2-.23.28-1.47-1.2Z"/><path class="cls-4" d="M13,42.34l.32.2L11.8,44.79l-.31-.21Zm.13,1.91a.41.41,0,0,0,.09-.32.38.38,0,0,0-.19-.25.37.37,0,0,0-.29-.08.35.35,0,0,0-.23.17l.17-.33a.69.69,0,0,1,.34-.09.5.5,0,0,1,.31.1.58.58,0,0,1,.3.43.87.87,0,0,1-.18.58l-.65,1-.31-.21Z"/><path class="cls-4" d="M14.54,44.23l.33.18L14,46.1l-.33-.18Zm.37-.67.34.18-.19.33-.33-.18Z"/><path class="cls-4" d="M15.6,44.83,16,45l-.74,1.77-.35-.14ZM16.37,46a.48.48,0,0,0,0-.33.41.41,0,0,0-.22-.21.4.4,0,0,0-.3,0,.37.37,0,0,0-.2.22l.1-.36a.74.74,0,0,1,.32-.16.54.54,0,0,1,.33,0,.57.57,0,0,1,.28.22.52.52,0,0,1,.1.33,1.22,1.22,0,0,1-.09.42l-.45,1.07-.35-.14Zm1.06.45a.45.45,0,0,0,0-.34.37.37,0,0,0-.23-.21.33.33,0,0,0-.29,0,.42.42,0,0,0-.21.24l.07-.37a.86.86,0,0,1,.34-.18.65.65,0,0,1,.34,0,.69.69,0,0,1,.3.22.65.65,0,0,1,.1.34,1.18,1.18,0,0,1-.09.42l-.45,1.07L17,47.49Z"/><path class="cls-4" d="M18.84,46.08l.36.1-.7,2.61-.36-.1ZM18.89,48a.46.46,0,0,1-.13-.28l.13-.38a.38.38,0,0,0,0,.21.26.26,0,0,0,.09.16.35.35,0,0,0,.18.1.4.4,0,0,0,.31,0,.48.48,0,0,0,.19-.29l.1-.4a.43.43,0,0,0,0-.34.35.35,0,0,0-.25-.19.38.38,0,0,0-.21,0,.29.29,0,0,0-.16.09.48.48,0,0,0-.09.19l0-.37a.67.67,0,0,1,.29-.19.53.53,0,0,1,.33,0,.73.73,0,0,1,.31.18.5.5,0,0,1,.14.32,1.09,1.09,0,0,1,0,.43l-.11.4a.9.9,0,0,1-.18.38.57.57,0,0,1-.29.2.66.66,0,0,1-.37,0A.53.53,0,0,1,18.89,48Z"/><path class="cls-4" d="M21.21,45.88l.37,0-.41,2.66-.37-.05Zm.92,1.68a.42.42,0,0,0-.06-.32.38.38,0,0,0-.27-.16.4.4,0,0,0-.3.05.37.37,0,0,0-.14.26l0-.38a.64.64,0,0,1,.27-.22.59.59,0,0,1,.32,0,.62.62,0,0,1,.45.28.88.88,0,0,1,.08.6l-.18,1.15L22,48.72Z"/><path class="cls-4" d="M23.75,48.14a.53.53,0,0,0,.09.32.43.43,0,0,0,.29.12.44.44,0,0,0,.29-.09.34.34,0,0,0,.11-.27v.4a.55.55,0,0,1-.2.23.56.56,0,0,1-.34.08.61.61,0,0,1-.48-.22.84.84,0,0,1-.14-.59L23.43,47l.38,0ZM24.59,47H25l-.08,1.92H24.5Z"/><path class="cls-4" d="M27,46.18l.37,0,.35,2.67-.38.05Zm.52,2.3.72-.1a.57.57,0,0,0,.4-.16.39.39,0,0,0,.1-.32h0a.62.62,0,0,0-.08-.23.31.31,0,0,0-.17-.13.44.44,0,0,0-.26,0l-.82.1,0-.34.81-.1a.43.43,0,0,0,.3-.14.36.36,0,0,0,.07-.3.38.38,0,0,0-.15-.28A.53.53,0,0,0,28,46.4l-.76.1-.05-.35.83-.11a.93.93,0,0,1,.45,0,.56.56,0,0,1,.29.21.91.91,0,0,1,.14.38.82.82,0,0,1,0,.27.59.59,0,0,1-.14.22.56.56,0,0,1-.26.15.61.61,0,0,1,.3.08.8.8,0,0,1,.21.2.91.91,0,0,1,.1.29h0a.73.73,0,0,1-.05.39.62.62,0,0,1-.24.29.87.87,0,0,1-.4.14l-.87.11Z"/><path class="cls-4" d="M29.55,45.8l.37-.09.65,2.62-.37.09ZM31.06,47a.53.53,0,0,0-.18-.28.43.43,0,0,0-.32,0,.38.38,0,0,0-.25.16.35.35,0,0,0,0,.29l-.13-.35a.61.61,0,0,1,.16-.31.54.54,0,0,1,.29-.17.62.62,0,0,1,.52.08.91.91,0,0,1,.3.52L31.7,48l-.36.1Z"/><path class="cls-4" d="M32.78,46.9a.42.42,0,0,0,.2.26.34.34,0,0,0,.31,0,.37.37,0,0,0,.24-.19.39.39,0,0,0,0-.3l.16.37a.51.51,0,0,1-.1.29.58.58,0,0,1-.27.21.63.63,0,0,1-.54,0,.85.85,0,0,1-.36-.48L32,45.94l.35-.14Zm.33-1.36.35-.13.66,1.8-.35.13Z"/><path class="cls-4" d="M35.13,46.63a.61.61,0,0,1-.26-.3L34,44.54l.34-.16.85,1.79s0,.08.07.09a.14.14,0,0,0,.09,0l.16-.08.16.33-.2.09A.41.41,0,0,1,35.13,46.63Zm-1-1.5.78-.37.15.31-.79.37Z"/><path class="cls-4" d="M36.85,44.47a.37.37,0,0,0-.23-.2.37.37,0,0,0-.3,0,.65.65,0,0,0-.18.15.57.57,0,0,0-.12.18l-.33,0a.87.87,0,0,1,.14-.33,1.13,1.13,0,0,1,.31-.26.94.94,0,0,1,.4-.13.51.51,0,0,1,.34.08.71.71,0,0,1,.28.29l.62,1.06-.31.18Zm-.31,1.46a.6.6,0,0,1-.38-.3.54.54,0,0,1-.07-.45.68.68,0,0,1,.35-.37l.47-.28.17.25-.49.29a.36.36,0,0,0-.16.17.28.28,0,0,0,0,.21.28.28,0,0,0,.2.14A.56.56,0,0,0,37,45.5a.8.8,0,0,0,.25-.2.15.15,0,0,0,0-.18l.17.21a.47.47,0,0,1,0,.17.42.42,0,0,1-.11.15.79.79,0,0,1-.17.14A.94.94,0,0,1,36.54,45.93Z"/><path class="cls-4" d="M37.49,43.24l.3-.22,1.14,1.55-.3.22Zm1.39-.08A.49.49,0,0,0,38.6,43a.38.38,0,0,0-.3.08.39.39,0,0,0-.17.25.33.33,0,0,0,.08.28L38,43.31A.67.67,0,0,1,38,43a.54.54,0,0,1,.2-.27.6.6,0,0,1,.51-.12.88.88,0,0,1,.48.36l.69,1-.3.22Z"/><circle class="cls-5" cx="25" cy="25" r="20.44"/><path class="cls-6" d="M24.76,7.38a.56.56,0,0,1-.28.42,1.62,1.62,0,0,0-.41.32A.74.74,0,0,0,24,8.6a1.1,1.1,0,0,0,.62.9,1.19,1.19,0,0,0,.7.09,1.4,1.4,0,0,0,.65-.28,1.13,1.13,0,0,0,.44-.55.73.73,0,0,0-.1-.67,1.39,1.39,0,0,0-.49-.32,1.52,1.52,0,0,1-.44-.31A.75.75,0,0,1,25.1,7l-.26.37a1.77,1.77,0,0,1-.54.55"/><path class="cls-5" d="M15.25,11.17a23.78,23.78,0,0,0,10.06,2.16,23.75,23.75,0,0,0,9.79-2.16"/><path class="cls-7" d="M25.18,13.48a24.29,24.29,0,0,1-10-2.18.14.14,0,1,1,.12-.26,23.8,23.8,0,0,0,10,2.15A23.86,23.86,0,0,0,35,11a.14.14,0,1,1,.12.26,24.23,24.23,0,0,1-9.84,2.17Z"/><path class="cls-5" d="M18.34,10.31a16.32,16.32,0,0,0,6.87,1.48,16.28,16.28,0,0,0,6.68-1.48"/><path class="cls-7" d="M25.12,11.93a16.68,16.68,0,0,1-6.84-1.49.15.15,0,0,1-.07-.19.15.15,0,0,1,.19-.07,16.18,16.18,0,0,0,6.81,1.47,16.26,16.26,0,0,0,6.62-1.47.14.14,0,1,1,.12.26,16.51,16.51,0,0,1-6.74,1.49Z"/><path class="cls-5" d="M23.12,10.17a3.9,3.9,0,0,0,3.23,0"/><path class="cls-7" d="M24.74,10.66a4,4,0,0,1-1.68-.36.15.15,0,0,1-.07-.19.15.15,0,0,1,.19-.07,3.62,3.62,0,0,0,1.56.34h0A3.71,3.71,0,0,0,26.29,10a.15.15,0,0,1,.19.07.15.15,0,0,1-.07.19,4.12,4.12,0,0,1-1.65.36Z"/><path class="cls-7" d="M33.74,23.52c-.56,2.53-4.31,1.81-5.91,5.2-1.51,3.22,1,5.65-.56,10.69-.41,1.3-1.39,3.7-2.22,3.6-1.34-.16.32-6.75-3-13.44-2.59-5.27-6.06-6.15-5.62-9.14s4.14-5.17,7.41-5.37C29.42,14.71,34.43,20.33,33.74,23.52Z"/><path class="cls-8" d="M26.28,34.07l-.14,0c.29-1.43-.6-2.83-1.4-3.9l-.21-.27a6.94,6.94,0,0,1-1.78-3.55,3.26,3.26,0,0,1,1.59-3.07,2.84,2.84,0,0,1,3.37.53,2.48,2.48,0,0,1-.1,3.34,1.75,1.75,0,0,1-1.76.43,1.26,1.26,0,0,1-.72-.73,1,1,0,0,1,0-.86.92.92,0,0,1,.86-.48.81.81,0,0,1,.74.43l-.13.06a.67.67,0,0,0-.61-.35.81.81,0,0,0-.74.41.91.91,0,0,0,0,.74,1.11,1.11,0,0,0,.64.65A1.61,1.61,0,0,0,27.52,27a2.33,2.33,0,0,0,.08-3.14,2.7,2.7,0,0,0-3.19-.5,3.14,3.14,0,0,0-1.52,2.94,6.88,6.88,0,0,0,1.75,3.47l.21.28C25.67,31.15,26.57,32.58,26.28,34.07Z"/><path class="cls-8" d="M29.29,25.74a4,4,0,0,0-1.1-2.49,3.89,3.89,0,0,0-2.3-1.13l0-.14a4,4,0,0,1,3.52,3.75Z"/><path class="cls-8" d="M29.73,24.19a4.87,4.87,0,0,0-1-1.67,5.1,5.1,0,0,0-1.19-.93l.07-.12a4.72,4.72,0,0,1,1.22,1,5.17,5.17,0,0,1,1.06,1.72Z"/><path class="cls-8" d="M31.14,23.2a2.8,2.8,0,0,0-.31-1,2.62,2.62,0,0,0-.5-.65l.1-.11a3.13,3.13,0,0,1,.52.69,3,3,0,0,1,.33,1.08Z"/><path class="cls-6" d="M40.77,21.13c1.32.55,1.58.58,1.89.94.64.7.83,1.93.47,2.17-.8.52-4.58-3.57-4.3-3.92C38.9,20.23,39.17,20.46,40.77,21.13Z"/><path class="cls-7" d="M43,24.33c-.72,0-2.26-1.47-3.05-2.34-.31-.34-1.31-1.47-1.12-1.7s.15-.05.56.15.73.34,1.44.64h0l.78.32A2.61,2.61,0,0,1,42.7,22a2.65,2.65,0,0,1,.65,1.86.49.49,0,0,1-.2.39A.3.3,0,0,1,43,24.33Zm-4.09-4h0c-.06.07.26.62,1.12,1.57,1.19,1.31,2.69,2.55,3.11,2.27a.5.5,0,0,0,.15-.32,2.56,2.56,0,0,0-.62-1.77,2.52,2.52,0,0,0-1.1-.6l-.78-.32h0c-.71-.3-1.15-.51-1.44-.65A2.77,2.77,0,0,0,38.87,20.35Z"/><path class="cls-6" d="M37.09,26.39c-.35,1.1-.36,1.31-.62,1.59-.52.57-1.49.81-1.71.54-.48-.6,2.53-3.95,2.83-3.75C37.67,24.82,37.51,25.05,37.09,26.39Z"/><path class="cls-7" d="M35.09,28.68h0a.43.43,0,0,1-.34-.13c-.35-.44.84-2,1.6-2.79.32-.36,1.1-1.17,1.3-1s.05.13-.07.48-.23.61-.41,1.21h0c-.08.26-.15.47-.2.65a2.1,2.1,0,0,1-.43,1A2.16,2.16,0,0,1,35.09,28.68Zm2.46-3.88a8.83,8.83,0,0,0-2.18,2.3c-.5.71-.7,1.21-.57,1.38a.37.37,0,0,0,.26.1A2,2,0,0,0,36.43,28a2.08,2.08,0,0,0,.41-.92c0-.18.11-.39.2-.66.18-.59.32-1,.41-1.21a1.4,1.4,0,0,0,.11-.36Zm-.46,1.59Z"/><path class="cls-6" d="M41.54,29.22a13,13,0,0,1-3.38,5.2c-1.87,2-4.69,4.24-5.2,3.79s3.33-3.54,3.93-8.85c.43-3.71-.83-7.93-1.4-9.84-.83-2.82-1.67-4.33-1.1-4.78s3.21,1,4.76,2.81a12,12,0,0,1,2.67,6.18A11.86,11.86,0,0,1,41.54,29.22Z"/><path class="cls-7" d="M33.15,38.32a.31.31,0,0,1-.22-.07c-.25-.22.09-.7.72-1.57a15.35,15.35,0,0,0,3.19-7.33c.42-3.69-.85-8-1.4-9.82-.25-.85-.5-1.57-.72-2.2-.51-1.48-.79-2.3-.37-2.64.78-.62,3.28,1,4.84,2.83a12,12,0,0,1,2.68,6.21,11.91,11.91,0,0,1-.28,5.5,12.91,12.91,0,0,1-3.39,5.22C36.6,36.17,34,38.32,33.15,38.32Zm1.64-23.65a.54.54,0,0,0-.37.11c-.37.29-.08,1.13.4,2.51.22.64.47,1.36.72,2.21.55,1.84,1.83,6.15,1.41,9.86a15.37,15.37,0,0,1-3.22,7.38c-.53.74-.91,1.27-.73,1.43.42.38,3.06-1.57,5.13-3.79a13,13,0,0,0,3.36-5.18h0a11.88,11.88,0,0,0,.28-5.46,11.93,11.93,0,0,0-2.66-6.15C37.82,16.11,35.78,14.67,34.79,14.67Z"/><path class="cls-7" d="M38.12,22.66a1,1,0,0,1-.42-.11,1.2,1.2,0,0,1-.6-.8s0-.05,0-.06a.06.06,0,0,1,.07,0,1.14,1.14,0,0,0,.55.73.71.71,0,0,0,.54.07.67.67,0,0,0,.38-.42,1.09,1.09,0,0,0-.06-.93.05.05,0,0,1,0-.07.07.07,0,0,1,.07,0,1.26,1.26,0,0,1,.06,1,.77.77,0,0,1-.45.48A.64.64,0,0,1,38.12,22.66Z"/><path class="cls-7" d="M36.53,19.74a3.23,3.23,0,0,1-.79-.11.06.06,0,0,1,0-.07.06.06,0,0,1,.06,0A2.55,2.55,0,0,0,39,17.79a.06.06,0,0,1,.07,0,.07.07,0,0,1,0,.07,2.79,2.79,0,0,1-1.3,1.6A2.58,2.58,0,0,1,36.53,19.74Z"/><path class="cls-7" d="M37.84,24.35a1,1,0,0,1-.42-.11,1.25,1.25,0,0,1-.61-.8s0-.06,0-.06a.06.06,0,0,1,.07,0,1.12,1.12,0,0,0,.55.73.59.59,0,0,0,.92-.34,1.09,1.09,0,0,0-.06-.93.06.06,0,0,1,0-.07.05.05,0,0,1,.08,0,1.26,1.26,0,0,1,.06,1,.85.85,0,0,1-.45.48A.64.64,0,0,1,37.84,24.35Z"/><path class="cls-7" d="M40,22.66a1,1,0,0,1-.42-.11,1.2,1.2,0,0,1-.6-.8s0-.05,0-.06a.06.06,0,0,1,.07,0,1.14,1.14,0,0,0,.55.73.71.71,0,0,0,.54.07.67.67,0,0,0,.38-.42,1.09,1.09,0,0,0-.06-.93.05.05,0,0,1,0-.07.07.07,0,0,1,.07,0,1.26,1.26,0,0,1,.06,1,.77.77,0,0,1-.45.48A.64.64,0,0,1,40,22.66Z"/><path class="cls-7" d="M40.28,27.86a.81.81,0,0,1-.52-.21,1.27,1.27,0,0,1-.43-.9.06.06,0,0,1,.05-.06s.06,0,.06,0a1.11,1.11,0,0,0,.39.83.68.68,0,0,0,.51.19.79.79,0,0,0,.46-.33,1.19,1.19,0,0,0,.14-.93,0,0,0,0,1,0-.06.06.06,0,0,1,.07,0,1.27,1.27,0,0,1-.15,1,.81.81,0,0,1-.54.37Z"/><path class="cls-7" d="M40.85,25.33a.86.86,0,0,1-.43-.11,1.27,1.27,0,0,1-.6-.8s0-.05,0-.06,0,0,.06,0a1.14,1.14,0,0,0,.55.73.71.71,0,0,0,.54.07.68.68,0,0,0,.38-.41,1.15,1.15,0,0,0,0-.94,0,0,0,0,1,0-.07.06.06,0,0,1,.07,0,1.22,1.22,0,0,1,.06,1,.78.78,0,0,1-.44.48A.69.69,0,0,1,40.85,25.33Z"/><path class="cls-7" d="M39.44,24.63a.94.94,0,0,1-.42-.11,1.25,1.25,0,0,1-.61-.8s0-.06,0-.06a.06.06,0,0,1,.07,0,1.12,1.12,0,0,0,.55.72.71.71,0,0,0,.54.08.72.72,0,0,0,.38-.42,1.13,1.13,0,0,0-.06-.93.05.05,0,0,1,.09,0,1.26,1.26,0,0,1,.07,1,.85.85,0,0,1-.45.48A.64.64,0,0,1,39.44,24.63Z"/><path class="cls-7" d="M38.88,26.6a.84.84,0,0,1-.42-.12,1.2,1.2,0,0,1-.61-.79,0,0,0,0,1,0-.06s.06,0,.06,0a1.13,1.13,0,0,0,.56.73.69.69,0,0,0,.53.08.74.74,0,0,0,.39-.42,1.17,1.17,0,0,0-.06-.93,0,0,0,0,1,0-.07,0,0,0,0,1,.07,0,1.22,1.22,0,0,1,.06,1,.81.81,0,0,1-.44.48A.64.64,0,0,1,38.88,26.6Z"/><path class="cls-7" d="M38.32,28.57a.88.88,0,0,1-.43-.12,1.27,1.27,0,0,1-.6-.79.06.06,0,0,1,0-.07.05.05,0,0,1,.06,0,1.14,1.14,0,0,0,.55.73.67.67,0,0,0,.54.07.68.68,0,0,0,.38-.41,1.15,1.15,0,0,0,0-.94s0,0,0-.07a.05.05,0,0,1,.07,0,1.22,1.22,0,0,1,.06,1,.79.79,0,0,1-.44.47A.45.45,0,0,1,38.32,28.57Z"/><path class="cls-7" d="M38.06,31.21a.42.42,0,0,1-.2-.05.49.49,0,0,1-.19-.31.7.7,0,0,1,.12-.54.06.06,0,0,1,.08,0,0,0,0,0,1,0,.07.6.6,0,0,0-.11.46.38.38,0,0,0,.14.24.41.41,0,0,0,.29,0,.6.6,0,0,0,.35-.33.05.05,0,1,1,.1,0,.7.7,0,0,1-.42.39Z"/><path class="cls-7" d="M37.5,32.33a.31.31,0,0,1-.2,0,.42.42,0,0,1-.19-.3.69.69,0,0,1,.12-.55.06.06,0,0,1,.07,0,.06.06,0,0,1,0,.08.58.58,0,0,0-.11.46.34.34,0,0,0,.14.23.36.36,0,0,0,.29,0,.6.6,0,0,0,.35-.33.05.05,0,0,1,.07,0s0,.05,0,.07a.73.73,0,0,1-.42.39Z"/><path class="cls-7" d="M38.61,32.05l-.13,0a.46.46,0,0,1-.24-.27.66.66,0,0,1,0-.55.05.05,0,0,1,.07,0s0,.05,0,.07a.62.62,0,0,0,0,.48.33.33,0,0,0,.18.2.32.32,0,0,0,.28,0,.57.57,0,0,0,.29-.38s0-.05.06,0a0,0,0,0,1,0,.06.67.67,0,0,1-.34.46A.53.53,0,0,1,38.61,32.05Z"/><path class="cls-7" d="M39.31,31.07h-.06a.52.52,0,0,1-.29-.22.72.72,0,0,1-.07-.56.05.05,0,0,1,.07,0s0,0,0,.06a.59.59,0,0,0,0,.47.35.35,0,0,0,.22.17.33.33,0,0,0,.27-.08.59.59,0,0,0,.22-.44,0,0,0,0,1,.05-.05.06.06,0,0,1,0,.06.67.67,0,0,1-.26.51A.48.48,0,0,1,39.31,31.07Z"/><path class="cls-6" d="M40.84,27.32c1,1,1.21,1.18,1.36,1.63.3.9,0,2.1-.45,2.17-.94.16-2.75-5.11-2.36-5.32C39.49,25.75,39.65,26.07,40.84,27.32Z"/><path class="cls-7" d="M41.71,31.18c-.67,0-1.6-2.21-2-3.41-.15-.44-.61-1.88-.34-2,.09-.05.15,0,.45.36s.54.61,1.06,1.17l.59.61c.49.51.66.68.78,1a2.6,2.6,0,0,1-.16,2,.54.54,0,0,1-.33.28Zm-2.3-5.33c-.08,0,0,.67.4,1.89.56,1.67,1.43,3.41,1.93,3.33a.46.46,0,0,0,.26-.23A2.48,2.48,0,0,0,42.15,29c-.11-.34-.26-.49-.76-1l-.58-.61h0c-.53-.56-.85-.93-1.07-1.17S39.45,25.85,39.41,25.85Z"/><path class="cls-6" d="M34.08,39.05c.07,1.43.16,1.67,0,2.11-.36.88-1.39,1.59-1.76,1.36C31.49,42,33.52,36.85,34,37,34.07,37,34,37.32,34.08,39.05Z"/><path class="cls-7" d="M32.47,42.62a.38.38,0,0,1-.19,0c-.59-.35.16-2.72.65-3.92.17-.43.75-1.82,1-1.75.1,0,.11.12.11.57s0,.81.05,1.58h0c0,.34,0,.61,0,.84a2.44,2.44,0,0,1-.08,1.29,2.63,2.63,0,0,1-1.38,1.39A.79.79,0,0,1,32.47,42.62ZM33.94,37c-.1,0-.45.52-.92,1.69-.66,1.64-1.12,3.53-.69,3.79a.43.43,0,0,0,.35,0A2.52,2.52,0,0,0,34,41.14a2.61,2.61,0,0,0,.07-1.25c0-.22,0-.5,0-.84h0C34,38.28,34,37.79,34,37.47A2.41,2.41,0,0,0,34,37Z"/><path class="cls-6" d="M32,37.58c-1.37.42-1.63.42-2,.74-.71.64-1,1.84-.69,2.11C30.05,41,34.23,37.35,34,37,33.93,36.88,33.63,37.08,32,37.58Z"/><path class="cls-7" d="M29.53,40.55a.39.39,0,0,1-.25-.07.56.56,0,0,1-.15-.42A2.61,2.61,0,0,1,30,38.28a2.68,2.68,0,0,1,1.19-.51l.81-.24h0c.73-.22,1.19-.38,1.5-.49S34,36.86,34,37c.17.25-.94,1.27-1.29,1.58C31.89,39.29,30.27,40.55,29.53,40.55ZM32,37.63l-.81.24a2.61,2.61,0,0,0-1.15.49,2.57,2.57,0,0,0-.8,1.7.44.44,0,0,0,.12.33c.39.32,2-.76,3.32-1.94C33.63,37.6,34,37.08,34,37a2.29,2.29,0,0,0-.46.14c-.3.11-.76.27-1.5.49Z"/><path class="cls-6" d="M9.22,21.37c-1.32.56-1.58.59-1.9.94-.63.71-.82,1.94-.46,2.17.8.53,4.58-3.57,4.3-3.92C11.09,20.48,10.81,20.7,9.22,21.37Z"/><path class="cls-7" d="M6.83,24.53a.54.54,0,0,1-.19-.4,2.61,2.61,0,0,1,.64-1.85,2.59,2.59,0,0,1,1.14-.64l.78-.32h0c.7-.29,1.14-.5,1.43-.64s.5-.23.57-.15c.19.24-.82,1.37-1.13,1.71-.78.86-2.33,2.34-3,2.34A.42.42,0,0,1,6.83,24.53Zm3.85-3.75c-.29.14-.73.34-1.44.64h0l-.78.32c-.67.27-.87.35-1.1.61a2.53,2.53,0,0,0-.62,1.77.42.42,0,0,0,.15.32c.42.28,1.91-1,3.11-2.27.86-1,1.17-1.5,1.12-1.57h0A2,2,0,0,0,10.68,20.78Z"/><path class="cls-6" d="M12.9,26.63c.34,1.11.35,1.32.61,1.6.52.56,1.5.81,1.71.53.48-.6-2.52-4-2.83-3.75C12.32,25.06,12.48,25.3,12.9,26.63Z"/><path class="cls-7" d="M13.47,28.27a2.16,2.16,0,0,1-.42-1c-.06-.17-.12-.39-.2-.65h0c-.19-.59-.32-1-.41-1.21s-.15-.42-.08-.47,1,.68,1.3,1c.76.83,1.95,2.36,1.6,2.8a.45.45,0,0,1-.34.13h0A2.18,2.18,0,0,1,13.47,28.27Zm-1-3.22a1.4,1.4,0,0,0,.11.36c.09.24.22.62.41,1.21.08.26.14.48.2.65a1.94,1.94,0,0,0,.4.92,2.06,2.06,0,0,0,1.37.63.3.3,0,0,0,.26-.09c.14-.17-.07-.67-.56-1.38a8.65,8.65,0,0,0-2.18-2.3Zm.47,1.58Z"/><path class="cls-6" d="M8.45,29.46a12.8,12.8,0,0,0,3.37,5.2c1.87,2,4.69,4.25,5.2,3.8s-3.32-3.54-3.93-8.86c-.42-3.7.84-7.93,1.4-9.84.84-2.82,1.67-4.33,1.11-4.78-.73-.58-3.21,1-4.76,2.82A11.76,11.76,0,0,0,8.17,24,11.68,11.68,0,0,0,8.45,29.46Z"/><path class="cls-7" d="M11.78,34.7A13,13,0,0,1,8.4,29.48,11.68,11.68,0,0,1,8.12,24a12,12,0,0,1,2.68-6.21c1.55-1.78,4.06-3.44,4.83-2.82.42.34.14,1.15-.37,2.63-.22.64-.46,1.36-.72,2.21-.54,1.83-1.82,6.12-1.4,9.82a15.4,15.4,0,0,0,3.2,7.33c.62.87,1,1.35.72,1.57a.38.38,0,0,1-.22.07C15.94,38.57,13.38,36.41,11.78,34.7Zm-.9-16.87A11.87,11.87,0,0,0,8.22,24a11.74,11.74,0,0,0,.28,5.46h0a12.91,12.91,0,0,0,3.36,5.18c2.07,2.21,4.7,4.16,5.13,3.79.17-.16-.21-.69-.74-1.43A15.52,15.52,0,0,1,13,29.61c-.42-3.72.85-8,1.4-9.86.26-.86.5-1.58.72-2.21.48-1.39.77-2.22.41-2.52a.66.66,0,0,0-.38-.11C14.21,14.91,12.16,16.36,10.88,17.83Z"/><path class="cls-7" d="M11.86,22.91a.9.9,0,0,0,.43-.12,1.22,1.22,0,0,0,.6-.79,0,0,0,0,0,0-.06s-.06,0-.06,0a1.12,1.12,0,0,1-.55.73.72.72,0,0,1-.54.08.74.74,0,0,1-.39-.42,1.17,1.17,0,0,1,.06-.93.05.05,0,0,0-.09-.05,1.22,1.22,0,0,0-.06,1,.84.84,0,0,0,.44.48A.64.64,0,0,0,11.86,22.91Z"/><path class="cls-7" d="M13.46,20a2.64,2.64,0,0,0,.78-.11.06.06,0,0,0,0-.06.06.06,0,0,0-.07,0A2.56,2.56,0,0,1,11,18s0,0-.06,0,0,0,0,.06a2.71,2.71,0,0,0,1.3,1.61A2.65,2.65,0,0,0,13.46,20Z"/><path class="cls-7" d="M12.14,24.6a.88.88,0,0,0,.43-.12,1.27,1.27,0,0,0,.6-.79.06.06,0,0,0,0-.07s-.05,0-.06,0a1.14,1.14,0,0,1-.55.73.67.67,0,0,1-.54.07.68.68,0,0,1-.38-.41,1.15,1.15,0,0,1,.05-.94s0-.05,0-.07a.05.05,0,0,0-.07,0,1.22,1.22,0,0,0-.06,1,.79.79,0,0,0,.44.47A.65.65,0,0,0,12.14,24.6Z"/><path class="cls-7" d="M10,22.91a.9.9,0,0,0,.43-.12A1.22,1.22,0,0,0,11,22a0,0,0,0,0,0-.06s-.06,0-.06,0a1.12,1.12,0,0,1-.55.73.72.72,0,0,1-.54.08.74.74,0,0,1-.39-.42,1.17,1.17,0,0,1,.06-.93.05.05,0,0,0-.09-.05,1.22,1.22,0,0,0-.06,1,.84.84,0,0,0,.44.48A.64.64,0,0,0,10,22.91Z"/><path class="cls-7" d="M9.71,28.11a.89.89,0,0,0,.52-.21,1.26,1.26,0,0,0,.42-.91,0,0,0,0,0-.1,0,1.19,1.19,0,0,1-.39.83.71.71,0,0,1-.51.18.67.67,0,0,1-.46-.33,1.1,1.1,0,0,1-.14-.92.06.06,0,0,0,0-.07.05.05,0,0,0-.06,0,1.22,1.22,0,0,0,.15,1,.84.84,0,0,0,.53.38Z"/><path class="cls-7" d="M9.14,25.58a1,1,0,0,0,.42-.11,1.25,1.25,0,0,0,.61-.8s0-.06,0-.06a.06.06,0,0,0-.07,0,1.12,1.12,0,0,1-.55.73.71.71,0,0,1-.54.08A.72.72,0,0,1,8.59,25a1.13,1.13,0,0,1,.06-.93.06.06,0,0,0,0-.07,0,0,0,0,0-.07,0,1.26,1.26,0,0,0-.07,1,.85.85,0,0,0,.45.48A.64.64,0,0,0,9.14,25.58Z"/><path class="cls-7" d="M10.55,24.88a.87.87,0,0,0,.42-.12,1.27,1.27,0,0,0,.6-.79.06.06,0,0,0,0-.07.06.06,0,0,0-.06,0,1.12,1.12,0,0,1-.55.73.67.67,0,0,1-.54.07.68.68,0,0,1-.38-.41,1.09,1.09,0,0,1,.06-.93.07.07,0,0,0,0-.08.05.05,0,0,0-.07,0,1.22,1.22,0,0,0-.06,1,.79.79,0,0,0,.44.47A.49.49,0,0,0,10.55,24.88Z"/><path class="cls-7" d="M11.11,26.84a.85.85,0,0,0,.42-.11,1.2,1.2,0,0,0,.6-.8s0-.05,0-.06a.06.06,0,0,0-.07,0,1.14,1.14,0,0,1-.55.73.67.67,0,0,1-.54.07.68.68,0,0,1-.38-.41,1.11,1.11,0,0,1,.06-.94.06.06,0,0,0,0-.07.07.07,0,0,0-.07,0,1.26,1.26,0,0,0-.06,1,.77.77,0,0,0,.45.48A.64.64,0,0,0,11.11,26.84Z"/><path class="cls-7" d="M11.67,28.81a1,1,0,0,0,.42-.11,1.25,1.25,0,0,0,.61-.8.05.05,0,0,0,0-.06.06.06,0,0,0-.07,0,1.1,1.1,0,0,1-.55.72.67.67,0,0,1-.54.08.72.72,0,0,1-.38-.42,1.13,1.13,0,0,1,.06-.93.05.05,0,0,0-.09,0,1.26,1.26,0,0,0-.07,1,.82.82,0,0,0,.45.48A.64.64,0,0,0,11.67,28.81Z"/><path class="cls-7" d="M11.93,31.45a.35.35,0,0,0,.2-.05.44.44,0,0,0,.19-.3.67.67,0,0,0-.13-.54.05.05,0,0,0-.07,0,.05.05,0,0,0,0,.08.55.55,0,0,1,.1.46.29.29,0,0,1-.42.24.59.59,0,0,1-.36-.33s0,0-.06,0a0,0,0,0,0,0,.06.7.7,0,0,0,.41.4Z"/><path class="cls-7" d="M12.49,32.58a.46.46,0,0,0,.2,0,.49.49,0,0,0,.19-.31.67.67,0,0,0-.13-.54,0,0,0,0,0-.07,0,0,0,0,0,0,0,.07.6.6,0,0,1,.11.46.35.35,0,0,1-.15.24.38.38,0,0,1-.28,0,.57.57,0,0,1-.35-.33.05.05,0,0,0-.07,0,.05.05,0,0,0,0,.07.68.68,0,0,0,.42.39A.51.51,0,0,0,12.49,32.58Z"/><path class="cls-7" d="M11.38,32.3l.12,0a.45.45,0,0,0,.25-.27.69.69,0,0,0,0-.56.07.07,0,0,0-.07,0,.05.05,0,0,0,0,.07.56.56,0,0,1,0,.47.3.3,0,0,1-.47.17.6.6,0,0,1-.28-.39.06.06,0,0,0-.11,0,.67.67,0,0,0,.35.45A.44.44,0,0,0,11.38,32.3Z"/><path class="cls-7" d="M10.68,31.32h.06a.43.43,0,0,0,.28-.22.66.66,0,0,0,.07-.55s0-.05-.06,0a.06.06,0,0,0,0,.07.56.56,0,0,1-.06.47.34.34,0,0,1-.21.17.38.38,0,0,1-.27-.09.59.59,0,0,1-.22-.43.06.06,0,0,0-.06-.05.06.06,0,0,0-.05.06.7.7,0,0,0,.26.5A.48.48,0,0,0,10.68,31.32Z"/><path class="cls-6" d="M9.14,27.57c-1,1-1.21,1.17-1.35,1.62-.3.91,0,2.11.45,2.18.94.15,2.75-5.11,2.35-5.32C10.49,26,10.33,26.31,9.14,27.57Z"/><path class="cls-7" d="M8.23,31.42a.55.55,0,0,1-.34-.28,2.66,2.66,0,0,1-.15-2c.11-.36.28-.53.78-1l.58-.61c.53-.55.85-.92,1.06-1.16s.36-.42.46-.37c.26.14-.2,1.58-.34,2-.41,1.19-1.33,3.4-2,3.4Zm2-5c-.21.24-.53.61-1.06,1.17h0l-.59.6c-.49.52-.64.67-.75,1A2.52,2.52,0,0,0,8,31.08a.41.41,0,0,0,.27.23c.49.09,1.36-1.65,1.93-3.33.4-1.21.47-1.84.39-1.88A1.63,1.63,0,0,0,10.24,26.44Z"/><path class="cls-6" d="M15.91,39.29c-.08,1.43-.16,1.68,0,2.12.36.88,1.38,1.58,1.75,1.36.82-.49-1.22-5.68-1.65-5.58C15.91,37.22,16,37.56,15.91,39.29Z"/><path class="cls-7" d="M17.27,42.82a2.64,2.64,0,0,1-1.39-1.39,2.73,2.73,0,0,1-.08-1.3c0-.22,0-.5,0-.84h0c.05-.76.05-1.25.05-1.57s0-.55.11-.58c.29-.06.88,1.33,1,1.76.48,1.2,1.24,3.56.65,3.91a.31.31,0,0,1-.2,0A.75.75,0,0,1,17.27,42.82ZM16,37.24a1.91,1.91,0,0,0,0,.48c0,.32,0,.81-.05,1.58h0c0,.34,0,.61-.05.84A2.5,2.5,0,0,0,16,41.39a2.55,2.55,0,0,0,1.32,1.33.44.44,0,0,0,.36,0c.43-.25,0-2.14-.7-3.78-.47-1.17-.82-1.7-.92-1.7Z"/><path class="cls-6" d="M18,37.83c1.37.41,1.63.42,2,.74.7.64,1,1.84.68,2.11-.74.6-4.92-3.08-4.68-3.46C16.06,37.13,16.35,37.32,18,37.83Z"/><path class="cls-7" d="M17.24,38.78c-.34-.31-1.45-1.34-1.29-1.59.06-.08.15,0,.58.1s.76.26,1.49.49h0l.81.23a2.66,2.66,0,0,1,1.2.52,2.7,2.7,0,0,1,.83,1.78.54.54,0,0,1-.16.41.37.37,0,0,1-.25.08C19.71,40.8,18.09,39.53,17.24,38.78Zm.75-.9-1.5-.49a2.11,2.11,0,0,0-.45-.14c0,.08.32.59,1.27,1.45,1.32,1.18,2.94,2.26,3.33,1.94a.42.42,0,0,0,.11-.33,2.51,2.51,0,0,0-.8-1.7c-.25-.24-.46-.3-1.15-.49L18,37.88Z"/></svg>