<svg id="Layer_1" data-name="Layer 1" xmlns="http://www.w3.org/2000/svg" viewBox="0 0 55 50"><defs><style>.cls-1{fill:#998675;}.cls-2{fill:none;}.cls-3{fill:#2f1a1a;}.cls-4{fill:#341a1a;}.cls-5{fill:#00a99d;}.cls-6{fill:#fbb03b;}.cls-7{fill:#fff;}.cls-8{fill:#29abe2;}</style></defs><circle class="cls-1" cx="27.5" cy="25" r="23.32"/><path class="cls-2" d="M27.5,48.39A23.39,23.39,0,1,1,50.89,25,23.41,23.41,0,0,1,27.5,48.39Zm0-46.65A23.26,23.26,0,1,0,50.76,25,23.29,23.29,0,0,0,27.5,1.74Z"/><path class="cls-3" d="M10.27,10.92l.24-.27,1.89,1.66-.23.26ZM12,12.22l1-1.09.26.22-1,1.09Z"/><path class="cls-3" d="M12,9.08l.27-.24,1.7,1.86-.26.24Zm1.78.32a.38.38,0,0,0-.28-.15.35.35,0,0,0-.27.11A.38.38,0,0,0,13,9.6a.36.36,0,0,0,.11.26l-.27-.23a.62.62,0,0,1,0-.33A.47.47,0,0,1,13,9a.53.53,0,0,1,.46-.16.78.78,0,0,1,.49.29l.73.8-.26.24Z"/><path class="cls-3" d="M15.43,8a.39.39,0,0,0-.24-.17.41.41,0,0,0-.27.08.75.75,0,0,0-.15.16.38.38,0,0,0-.09.18h-.32a.68.68,0,0,1,.11-.32.91.91,0,0,1,.25-.27,1,1,0,0,1,.36-.17.61.61,0,0,1,.33,0,.73.73,0,0,1,.28.25l.69.93-.27.2Zm-.14,1.38a.51.51,0,0,1-.38-.24.48.48,0,0,1-.12-.41.69.69,0,0,1,.29-.38l.41-.3.19.21-.43.32a.28.28,0,0,0-.13.17.23.23,0,0,0,.05.2.26.26,0,0,0,.2.11.53.53,0,0,0,.26-.12.89.89,0,0,0,.22-.21.17.17,0,0,0,0-.17l.18.18a.47.47,0,0,1,0,.17.37.37,0,0,1-.08.15,1,1,0,0,1-.15.14A.76.76,0,0,1,15.29,9.36Z"/><path class="cls-3" d="M15.74,6.1l.3-.18L17.32,8.1,17,8.28ZM16.8,7.61,17,6.18,17.39,6,17,8ZM17,7.09l.08-.32,1.32.71-.33.19Z"/><path class="cls-3" d="M17.75,5l.32-.15.15.32-.32.15Zm.31.65.32-.15.78,1.62-.31.15Z"/><path class="cls-3" d="M22.22,4.54l.13.42a1,1,0,0,1,0,.5.78.78,0,0,1-.19.41,1,1,0,0,1-.41.25,1,1,0,0,1-.48,0,.81.81,0,0,1-.39-.2,1.09,1.09,0,0,1-.25-.42l-.22-.71a1.09,1.09,0,0,1,0-.5.88.88,0,0,1,.2-.41A.89.89,0,0,1,21,3.66a1,1,0,0,1,.41,0,1,1,0,0,1,.37.16,1.09,1.09,0,0,1,.27.33l-.36.11a.55.55,0,0,0-.17-.17A.39.39,0,0,0,21.33,4a.49.49,0,0,0-.45.16.5.5,0,0,0-.11.26.6.6,0,0,0,0,.32l.22.71a.58.58,0,0,0,.15.25.48.48,0,0,0,.23.13.72.72,0,0,0,.29,0,.49.49,0,0,0,.24-.15A.44.44,0,0,0,22,5.39a.73.73,0,0,0,0-.32L22,5l-.49.16-.1-.33Z"/><path class="cls-3" d="M23.63,5.54a.6.6,0,0,1-.32-.22.91.91,0,0,1-.17-.41l0-.2a1,1,0,0,1,0-.46.56.56,0,0,1,.2-.33.79.79,0,0,1,.38-.18.75.75,0,0,1,.4,0,.73.73,0,0,1,.3.28,1.48,1.48,0,0,1,.18.49l0,.11-1.19.23-.06-.28.87-.16A.61.61,0,0,0,24,4.13a.31.31,0,0,0-.28-.07.37.37,0,0,0-.28.18.55.55,0,0,0,0,.39l0,.23a.48.48,0,0,0,.18.31.45.45,0,0,0,.35.06.7.7,0,0,0,.2-.08A.87.87,0,0,0,24.37,5l.27.19a1,1,0,0,1-.26.25,1,1,0,0,1-.32.13A.87.87,0,0,1,23.63,5.54Z"/><path class="cls-3" d="M25.27,3.53l.35,0,.14,1.79-.35,0Zm1.14.62a.43.43,0,0,0-.12-.29.43.43,0,0,0-.54,0,.35.35,0,0,0-.08.27l-.06-.35a.52.52,0,0,1,.2-.26.44.44,0,0,1,.29-.11.52.52,0,0,1,.46.15.78.78,0,0,1,.2.53l.09,1.09-.35,0Z"/><path class="cls-3" d="M27.91,5.13a.55.55,0,0,1-.26-.28,1,1,0,0,1-.09-.44v-.2a1.15,1.15,0,0,1,.1-.45.61.61,0,0,1,.27-.28.69.69,0,0,1,.41-.09.6.6,0,0,1,.38.12.68.68,0,0,1,.24.33,1.64,1.64,0,0,1,.07.52v.12l-1.21,0V4.16l.88,0a.65.65,0,0,0-.11-.34.29.29,0,0,0-.26-.13.34.34,0,0,0-.31.12.53.53,0,0,0-.12.37v.23a.45.45,0,0,0,.11.34.4.4,0,0,0,.33.13.51.51,0,0,0,.21,0,.67.67,0,0,0,.2-.12L29,5a1,1,0,0,1-.3.19,1.06,1.06,0,0,1-.34.06A.77.77,0,0,1,27.91,5.13Z"/><path class="cls-3" d="M29.92,3.51l.35.05-.22,1.78-.35,0Zm.82.45a.28.28,0,0,0-.16,0,.32.32,0,0,0-.39.3V3.86a.65.65,0,0,1,.25-.22.44.44,0,0,1,.3-.05.65.65,0,0,1,.21.06.34.34,0,0,1,.16.13l-.26.28A.35.35,0,0,0,30.74,4Z"/><path class="cls-3" d="M31.5,5.44A.5.5,0,0,1,31.43,5a.56.56,0,0,1,.23-.36.75.75,0,0,1,.48,0l.5.11,0,.28-.52-.11a.32.32,0,0,0-.22,0,.27.27,0,0,0-.11.17.24.24,0,0,0,.05.22.39.39,0,0,0,.25.12,1,1,0,0,0,.31,0,.17.17,0,0,0,.13-.11l0,.25a.42.42,0,0,1-.14.09.47.47,0,0,1-.17,0l-.2,0A.75.75,0,0,1,31.5,5.44Zm1.14-.8a.46.46,0,0,0,0-.29.42.42,0,0,0-.24-.15.81.81,0,0,0-.22,0,.46.46,0,0,0-.2,0L31.74,4a.67.67,0,0,1,.3-.13,1,1,0,0,1,.38,0,1,1,0,0,1,.36.16.67.67,0,0,1,.19.28.77.77,0,0,1,0,.37l-.25,1.13-.33-.07Z"/><path class="cls-3" d="M33.94,5.71a.2.2,0,0,0,0,.11.09.09,0,0,0,.06.06l.16,0-.1.32-.2-.07A.43.43,0,0,1,33.6,6a.58.58,0,0,1,0-.37l.62-1.95.34.1Z"/><path class="cls-3" d="M36.13,7.06a1.58,1.58,0,0,1-.22-.23.92.92,0,0,1-.16-.27l.31-.15a1.1,1.1,0,0,0,.2.31,1.07,1.07,0,0,0,.32.22A.8.8,0,0,0,37,7a.32.32,0,0,0,.26-.19h0a.27.27,0,0,0,0-.21.32.32,0,0,0-.1-.18A1.66,1.66,0,0,0,37,6.26h0l0,0A3.42,3.42,0,0,1,36.6,6a.64.64,0,0,1-.16-.29.68.68,0,0,1,.08-.42h0a.75.75,0,0,1,.27-.31.63.63,0,0,1,.39-.09,1.34,1.34,0,0,1,.47.13,1.31,1.31,0,0,1,.42.34,1.43,1.43,0,0,1,.16.24l-.3.17a1.17,1.17,0,0,0-.19-.27.84.84,0,0,0-.24-.18.7.7,0,0,0-.4-.08.35.35,0,0,0-.26.2h0a.25.25,0,0,0,0,.22.58.58,0,0,0,.11.18l.25.2h0l0,0a1.94,1.94,0,0,1,.29.26.59.59,0,0,1,.14.3.61.61,0,0,1-.08.4h0a.75.75,0,0,1-.27.31.7.7,0,0,1-.39.08,1.22,1.22,0,0,1-.49-.14A1.49,1.49,0,0,1,36.13,7.06Z"/><path class="cls-3" d="M38,8a.51.51,0,0,1,.1-.35L39.1,6l.3.19-1,1.58a.22.22,0,0,0,0,.1.08.08,0,0,0,.05.07l.14.09-.18.29-.17-.11A.39.39,0,0,1,38,8Zm.64-1.59.69.43-.17.27-.69-.42Z"/><path class="cls-3" d="M39.29,8.83a.59.59,0,0,1,0-.37.86.86,0,0,1,.18-.39l.17-.24a1,1,0,0,1,.32-.28.58.58,0,0,1,.36-.06.84.84,0,0,1,.38.16.8.8,0,0,1,.27.32.55.55,0,0,1,0,.36.86.86,0,0,1-.18.39L40.62,9a.91.91,0,0,1-.32.28.68.68,0,0,1-.37.07.88.88,0,0,1-.37-.17A.78.78,0,0,1,39.29,8.83Zm.77.12a.46.46,0,0,0,.27-.2l.18-.24a.48.48,0,0,0,.11-.32.39.39,0,0,0-.16-.27.34.34,0,0,0-.3-.07.42.42,0,0,0-.27.2l-.18.24a.46.46,0,0,0-.11.32.35.35,0,0,0,.16.26A.38.38,0,0,0,40.06,9Z"/><path class="cls-3" d="M41.91,8.68l.26.23L41,10.25,40.7,10Zm.42.83a.63.63,0,0,0-.11-.13.32.32,0,0,0-.25-.1.31.31,0,0,0-.24.12l.2-.28a.77.77,0,0,1,.33,0,.56.56,0,0,1,.28.13.75.75,0,0,1,.14.17.76.76,0,0,1,.06.2l-.38.08A.4.4,0,0,0,42.33,9.51Z"/><path class="cls-3" d="M42.2,11.35a.7.7,0,0,1,0-.38,1.09,1.09,0,0,1,.26-.37l.15-.14a1.07,1.07,0,0,1,.4-.24.65.65,0,0,1,.39,0,.74.74,0,0,1,.35.23.6.6,0,0,1,.17.36.73.73,0,0,1-.07.4,1.43,1.43,0,0,1-.32.41l-.09.08-.82-.9.21-.19.59.65a.65.65,0,0,0,.18-.32.31.31,0,0,0-.09-.27.36.36,0,0,0-.31-.14.55.55,0,0,0-.35.17l-.16.15a.5.5,0,0,0-.18.32.48.48,0,0,0,.14.33.83.83,0,0,0,.18.13.54.54,0,0,0,.22,0l0,.33a1.05,1.05,0,0,1-.35-.08,1,1,0,0,1-.28-.2A1.07,1.07,0,0,1,42.2,11.35Z"/><path class="cls-4" d="M15,40.47l.27.22-1.46,1.79-.28-.22Zm-.42-.61L15.91,41l-.21.26-1.37-1.12Z"/><path class="cls-4" d="M16.25,41.22l.29.19-1.39,2.11-.29-.2ZM16.37,43a.36.36,0,0,0-.09-.54A.43.43,0,0,0,16,42.4a.37.37,0,0,0-.22.16l.16-.31a.79.79,0,0,1,.32-.08.53.53,0,0,1,.3.09.56.56,0,0,1,.27.41.87.87,0,0,1-.16.54l-.61.91-.29-.2Z"/><path class="cls-4" d="M17.74,43l.31.17-.86,1.58-.31-.17Zm.35-.63.31.17-.17.31-.31-.17Z"/><path class="cls-4" d="M18.75,43.57l.32.14-.69,1.66-.32-.13Zm.72,1.07a.38.38,0,0,0,0-.31.33.33,0,0,0-.2-.2.34.34,0,0,0-.28,0,.32.32,0,0,0-.19.2l.1-.34a.69.69,0,0,1,.3-.14.55.55,0,0,1,.31,0,.59.59,0,0,1,.26.2.54.54,0,0,1,.09.31,1.18,1.18,0,0,1-.08.39l-.42,1-.33-.13Zm1,.41a.38.38,0,0,0,0-.31.32.32,0,0,0-.21-.2.34.34,0,0,0-.28,0,.45.45,0,0,0-.19.23l.07-.35a.86.86,0,0,1,.31-.17.58.58,0,0,1,.32,0,.67.67,0,0,1,.28.21.54.54,0,0,1,.09.31.83.83,0,0,1-.08.39l-.42,1L20,46.06Z"/><path class="cls-4" d="M21.8,44.74l.34.09-.65,2.45-.34-.09Zm.05,1.82a.47.47,0,0,1-.12-.27l.12-.36a.37.37,0,0,0,.07.36.38.38,0,0,0,.18.09.36.36,0,0,0,.29,0,.46.46,0,0,0,.17-.26l.09-.38a.43.43,0,0,0,0-.32.33.33,0,0,0-.23-.18.34.34,0,0,0-.2,0,.28.28,0,0,0-.15.08.44.44,0,0,0-.09.18l.06-.35a.76.76,0,0,1,.26-.18.65.65,0,0,1,.31,0,.64.64,0,0,1,.29.17.53.53,0,0,1,.14.3,1,1,0,0,1,0,.4l-.1.38a1.2,1.2,0,0,1-.17.36.59.59,0,0,1-.27.18.69.69,0,0,1-.35,0A.51.51,0,0,1,21.85,46.56Z"/><path class="cls-4" d="M24,44.54l.35.05L24,47.08l-.35,0Zm.86,1.58a.44.44,0,0,0-.05-.31.34.34,0,0,0-.26-.14.42.42,0,0,0-.28,0,.38.38,0,0,0-.13.24l0-.35a.72.72,0,0,1,.25-.21.55.55,0,0,1,.31,0,.58.58,0,0,1,.42.26.83.83,0,0,1,.07.56l-.16,1.08-.35,0Z"/><path class="cls-4" d="M26.4,46.65a.45.45,0,0,0,.08.3.37.37,0,0,0,.27.11A.33.33,0,0,0,27,47a.32.32,0,0,0,.11-.26v.38a.5.5,0,0,1-.19.22.53.53,0,0,1-.31.07.57.57,0,0,1-.45-.21.77.77,0,0,1-.14-.55l0-1.09.36,0Zm.78-1.06h.35l-.08,1.8H27.1Z"/><path class="cls-4" d="M29.47,44.81l.35-.05.33,2.5-.34,0ZM30,47l.68-.09a.58.58,0,0,0,.37-.15.35.35,0,0,0,.08-.3h0a.48.48,0,0,0-.07-.21.28.28,0,0,0-.16-.12.46.46,0,0,0-.24,0l-.77.1,0-.31.76-.1a.41.41,0,0,0,.28-.13.38.38,0,0,0,.07-.29.36.36,0,0,0-.15-.26.51.51,0,0,0-.34-.05l-.72.09,0-.32.78-.1a.73.73,0,0,1,.42,0,.54.54,0,0,1,.27.2.73.73,0,0,1,.13.35.65.65,0,0,1,0,.24.46.46,0,0,1-.13.22.59.59,0,0,1-.23.14.5.5,0,0,1,.27.07.61.61,0,0,1,.2.19.62.62,0,0,1,.09.27h0a.65.65,0,0,1,0,.37.66.66,0,0,1-.22.28.9.9,0,0,1-.38.13l-.81.11Z"/><path class="cls-4" d="M31.85,44.44l.34-.09.62,2.45-.34.08Zm1.41,1.12a.41.41,0,0,0-.17-.26.36.36,0,0,0-.29,0,.34.34,0,0,0-.24.15.31.31,0,0,0,0,.27l-.12-.33a.67.67,0,0,1,.15-.29.59.59,0,0,1,.75-.08.76.76,0,0,1,.29.48l.27,1.06-.34.09Z"/><path class="cls-4" d="M34.87,45.46a.4.4,0,0,0,.19.24.36.36,0,0,0,.29,0,.37.37,0,0,0,.22-.18.34.34,0,0,0,0-.28l.15.35a.48.48,0,0,1-.09.27.49.49,0,0,1-.25.19.58.58,0,0,1-.5,0,.78.78,0,0,1-.34-.45l-.38-1,.33-.13Zm.3-1.28.33-.13.63,1.69-.33.12Z"/><path class="cls-4" d="M37.1,45.18a.57.57,0,0,1-.24-.28l-.81-1.67.32-.15.81,1.67a.18.18,0,0,0,.06.08.07.07,0,0,0,.09,0l.15-.07.15.3-.19.09A.42.42,0,0,1,37.1,45.18Zm-1-1.4.73-.35.14.29-.73.35Z"/><path class="cls-4" d="M38.7,43.15a.39.39,0,0,0-.22-.19.41.41,0,0,0-.28,0,.75.75,0,0,0-.17.14.62.62,0,0,0-.11.17l-.31,0a.67.67,0,0,1,.13-.3,1,1,0,0,1,.29-.25.83.83,0,0,1,.37-.13.5.5,0,0,1,.32.08A.65.65,0,0,1,39,43l.59,1-.29.17Zm-.28,1.36a.5.5,0,0,1-.36-.27.53.53,0,0,1-.07-.43.68.68,0,0,1,.32-.34l.44-.26.17.23-.46.27a.32.32,0,0,0-.15.16.22.22,0,0,0,0,.2.21.21,0,0,0,.18.12.47.47,0,0,0,.27-.08.73.73,0,0,0,.24-.19.15.15,0,0,0,0-.17l.16.2a.75.75,0,0,1,0,.16.71.71,0,0,1-.1.14.76.76,0,0,1-.17.13A.71.71,0,0,1,38.42,44.51Z"/><path class="cls-4" d="M39.28,42l.29-.21,1.07,1.45-.28.21Zm1.3-.08a.46.46,0,0,0-.25-.18.42.42,0,0,0-.29.09.36.36,0,0,0-.16.23.34.34,0,0,0,.08.26l-.24-.25a.61.61,0,0,1,0-.33.51.51,0,0,1,.18-.25.55.55,0,0,1,.48-.12.82.82,0,0,1,.45.34l.66.87-.29.22Z"/><circle class="cls-5" cx="27.5" cy="25" r="19.13"/><path class="cls-6" d="M27.28,8.52a.53.53,0,0,1-.27.39,1.36,1.36,0,0,0-.38.3.69.69,0,0,0-.11.45,1,1,0,0,0,.57.84,1.16,1.16,0,0,0,.66.09,1.4,1.4,0,0,0,.61-.27,1.08,1.08,0,0,0,.41-.51.67.67,0,0,0-.09-.63,1.23,1.23,0,0,0-.46-.3,1.5,1.5,0,0,1-.42-.29.69.69,0,0,1-.2-.44l-.25.34a1.74,1.74,0,0,1-.5.51"/><path class="cls-5" d="M18.38,12.06a22.42,22.42,0,0,0,9.41,2,22.51,22.51,0,0,0,9.16-2"/><path class="cls-7" d="M27.67,14.22a22.56,22.56,0,0,1-9.35-2,.13.13,0,0,1-.06-.17.13.13,0,0,1,.17-.07,22.23,22.23,0,0,0,9.36,2,22.14,22.14,0,0,0,9.1-2,.14.14,0,0,1,.18.07.13.13,0,0,1-.07.17,22.51,22.51,0,0,1-9.2,2Z"/><path class="cls-5" d="M21.27,11.26a15.3,15.3,0,0,0,6.43,1.38A15.33,15.33,0,0,0,34,11.26"/><path class="cls-7" d="M27.61,12.77a15.47,15.47,0,0,1-6.39-1.39.14.14,0,0,1-.07-.18.14.14,0,0,1,.18-.06,15.21,15.21,0,0,0,6.37,1.37,15.21,15.21,0,0,0,6.19-1.37.14.14,0,0,1,.18.06.14.14,0,0,1-.07.18,15.38,15.38,0,0,1-6.3,1.39Z"/><path class="cls-5" d="M25.74,11.13a3.62,3.62,0,0,0,3,0"/><path class="cls-7" d="M27.25,11.59a3.84,3.84,0,0,1-1.56-.34.14.14,0,0,1-.07-.18A.14.14,0,0,1,25.8,11a3.45,3.45,0,0,0,1.45.32h0A3.77,3.77,0,0,0,28.71,11a.13.13,0,0,1,.17.06.14.14,0,0,1-.06.18,3.76,3.76,0,0,1-1.55.34Z"/><path class="cls-7" d="M35.67,23.62c-.51,2.37-4,1.69-5.52,4.86-1.41,3,1,5.29-.52,10-.39,1.21-1.31,3.47-2.08,3.37-1.26-.15.29-6.31-2.79-12.58-2.42-4.93-5.67-5.75-5.26-8.54s3.87-4.84,6.93-5C31.64,15.38,36.33,20.63,35.67,23.62Z"/><path class="cls-8" d="M28.7,33.48l-.13,0c.26-1.34-.56-2.65-1.32-3.65l-.19-.25a6.65,6.65,0,0,1-1.67-3.32,3.07,3.07,0,0,1,1.5-2.88,2.63,2.63,0,0,1,3.14.5A2.32,2.32,0,0,1,29.94,27a1.65,1.65,0,0,1-1.65.41,1.2,1.2,0,0,1-.67-.69,1,1,0,0,1,0-.8.86.86,0,0,1,.81-.45.74.74,0,0,1,.69.4l-.12.06a.64.64,0,0,0-.57-.33.79.79,0,0,0-.7.38.87.87,0,0,0,0,.69,1,1,0,0,0,.6.61,1.49,1.49,0,0,0,1.51-.38A2.17,2.17,0,0,0,29.93,24a2.49,2.49,0,0,0-3-.47,2.93,2.93,0,0,0-1.43,2.75,6.54,6.54,0,0,0,1.64,3.25l.2.25C28.13,30.75,29,32.09,28.7,33.48Z"/><path class="cls-8" d="M31.51,25.7a3.65,3.65,0,0,0-3.17-3.4v-.13a3.83,3.83,0,0,1,2.23,1.1,3.92,3.92,0,0,1,1.07,2.42Z"/><path class="cls-8" d="M31.93,24.24a4.67,4.67,0,0,0-2.08-2.43l.07-.11a4.88,4.88,0,0,1,1.13.89,4.75,4.75,0,0,1,1,1.6Z"/><path class="cls-8" d="M33.24,23.31a2.49,2.49,0,0,0-.29-1,2.72,2.72,0,0,0-.46-.61l.09-.09a2.79,2.79,0,0,1,.49.64,2.52,2.52,0,0,1,.3,1Z"/><path class="cls-6" d="M42.25,21.38c1.24.51,1.48.55,1.78.88.59.66.76,1.81.43,2-.75.49-4.29-3.34-4-3.67C40.5,20.54,40.76,20.75,42.25,21.38Z"/><path class="cls-7" d="M44.3,24.38c-.67,0-2.11-1.39-2.85-2.19-.29-.32-1.23-1.38-1.05-1.6s.14,0,.53.14.68.32,1.34.6h0l.73.3a2.41,2.41,0,0,1,1.06.59A2.46,2.46,0,0,1,44.67,24a.53.53,0,0,1-.19.37A.35.35,0,0,1,44.3,24.38Zm-3.82-3.73h0c0,.07.25.58,1.05,1.47,1.12,1.22,2.52,2.38,2.91,2.13a.45.45,0,0,0,.14-.3A2.36,2.36,0,0,0,44,22.29a2.41,2.41,0,0,0-1-.57l-.73-.3h0c-.66-.28-1.07-.47-1.35-.6A2.19,2.19,0,0,0,40.48,20.65Z"/><path class="cls-6" d="M38.81,26.3c-.33,1-.33,1.23-.58,1.49-.48.53-1.39.76-1.6.5-.45-.56,2.37-3.69,2.65-3.51C39.35,24.83,39.2,25.05,38.81,26.3Z"/><path class="cls-7" d="M36.94,28.45h0a.38.38,0,0,1-.32-.12c-.32-.41.79-1.83,1.5-2.61.3-.33,1-1.1,1.22-1s0,.12-.07.45-.21.57-.38,1.12h0l-.19.61a1.77,1.77,0,0,1-1.73,1.53Zm2.3-3.64a8.09,8.09,0,0,0-2,2.16c-.46.66-.66,1.13-.53,1.29a.37.37,0,0,0,.25.09,1.94,1.94,0,0,0,1.28-.59,2,2,0,0,0,.38-.87c0-.16.1-.36.18-.61.18-.55.3-.9.38-1.13a1.37,1.37,0,0,0,.11-.33Zm-.43,1.49Z"/><path class="cls-6" d="M43,28.94a12.1,12.1,0,0,1-3.15,4.87c-1.75,1.88-4.39,4-4.87,3.55s3.11-3.31,3.68-8.28c.39-3.47-.78-7.42-1.31-9.21-.79-2.64-1.57-4.05-1-4.47s3,1,4.46,2.63a11.12,11.12,0,0,1,2.49,5.79A10.91,10.91,0,0,1,43,28.94Z"/><path class="cls-7" d="M35.12,37.46a.32.32,0,0,1-.2-.06c-.23-.21.09-.66.67-1.47a14.37,14.37,0,0,0,3-6.86c.39-3.45-.8-7.47-1.31-9.18-.24-.8-.47-1.47-.67-2.07-.48-1.38-.74-2.14-.35-2.46.73-.58,3.07,1,4.52,2.64a11.2,11.2,0,0,1,2.51,5.81A11,11,0,0,1,43,29a12.14,12.14,0,0,1-3.17,4.88C38.36,35.45,36,37.46,35.12,37.46Zm1.54-22.13a.56.56,0,0,0-.35.11c-.34.27-.07,1,.38,2.35.2.59.44,1.27.67,2.07.52,1.72,1.71,5.75,1.32,9.22a14.49,14.49,0,0,1-3,6.91c-.49.69-.85,1.19-.69,1.33.4.35,2.87-1.47,4.8-3.54a12.12,12.12,0,0,0,3.14-4.85h0a11.05,11.05,0,0,0,.27-5.11,11.18,11.18,0,0,0-2.49-5.76C39.5,16.68,37.58,15.33,36.66,15.33Z"/><path class="cls-7" d="M39.78,22.81a.85.85,0,0,1-.4-.1,1.14,1.14,0,0,1-.56-.75s0-.05,0-.06a.05.05,0,0,1,.06,0,1.09,1.09,0,0,0,.52.68.65.65,0,0,0,.5.07.67.67,0,0,0,.36-.39,1.06,1.06,0,0,0,0-.87,0,0,0,0,1,0-.07,0,0,0,0,1,.06,0,1.16,1.16,0,0,1,.06,1,.75.75,0,0,1-.41.44A.63.63,0,0,1,39.78,22.81Z"/><path class="cls-7" d="M38.29,20.08a2.43,2.43,0,0,1-.74-.11,0,0,0,0,1,0-.06,0,0,0,0,1,.06,0,2.38,2.38,0,0,0,3-1.63s0,0,.06,0,0,0,0,.06a2.57,2.57,0,0,1-1.21,1.5A2.48,2.48,0,0,1,38.29,20.08Z"/><path class="cls-7" d="M39.51,24.39a.75.75,0,0,1-.39-.11,1.14,1.14,0,0,1-.57-.74.05.05,0,0,1,0-.06s0,0,.06,0a1.07,1.07,0,0,0,.51.68.68.68,0,0,0,.51.07.67.67,0,0,0,.36-.39A1,1,0,0,0,40,23a.05.05,0,0,1,.09-.05,1.14,1.14,0,0,1,.06.95.75.75,0,0,1-.42.45A.58.58,0,0,1,39.51,24.39Z"/><path class="cls-7" d="M41.54,22.81a.85.85,0,0,1-.4-.1,1.19,1.19,0,0,1-.57-.75.06.06,0,0,1,0-.06.05.05,0,0,1,.06,0,1,1,0,0,0,.52.68.65.65,0,0,0,.5.07.67.67,0,0,0,.36-.39,1,1,0,0,0-.06-.87.05.05,0,0,1,0-.07,0,0,0,0,1,.06,0,1.16,1.16,0,0,1,.06,1,.73.73,0,0,1-.42.44A.52.52,0,0,1,41.54,22.81Z"/><path class="cls-7" d="M41.8,27.68a.75.75,0,0,1-.49-.2,1.15,1.15,0,0,1-.4-.85.05.05,0,0,1,.05-.05,0,0,0,0,1,0,.05,1,1,0,0,0,.36.77.65.65,0,0,0,.48.18.69.69,0,0,0,.43-.31,1.07,1.07,0,0,0,.13-.86s0-.06,0-.06.06,0,.06,0a1.17,1.17,0,0,1-.14.95.8.8,0,0,1-.5.35Z"/><path class="cls-7" d="M42.32,25.31a.84.84,0,0,1-.39-.1,1.19,1.19,0,0,1-.57-.75.06.06,0,0,1,0-.06.05.05,0,0,1,.06,0,1,1,0,0,0,.52.68.65.65,0,0,0,.5.07.67.67,0,0,0,.36-.39,1,1,0,0,0-.06-.87.05.05,0,0,1,.09-.05,1.16,1.16,0,0,1,.06,1,.76.76,0,0,1-.42.44A.58.58,0,0,1,42.32,25.31Z"/><path class="cls-7" d="M41,24.66a.89.89,0,0,1-.4-.11,1.17,1.17,0,0,1-.56-.75s0-.05,0-.06.06,0,.06,0a1.07,1.07,0,0,0,.52.68.68.68,0,0,0,.51.07.65.65,0,0,0,.35-.39,1.06,1.06,0,0,0-.05-.87.06.06,0,0,1,0-.07.07.07,0,0,1,.07,0,1.19,1.19,0,0,1,0,1,.72.72,0,0,1-.41.44A.58.58,0,0,1,41,24.66Z"/><path class="cls-7" d="M40.48,26.5a.86.86,0,0,1-.39-.11,1.19,1.19,0,0,1-.57-.75.06.06,0,0,1,0-.06.05.05,0,0,1,.06,0,1,1,0,0,0,.51.68.64.64,0,0,0,.51.07A.67.67,0,0,0,41,26a1,1,0,0,0-.06-.87A.07.07,0,0,1,41,25a.06.06,0,0,1,.07,0,1.16,1.16,0,0,1,.06,1,.73.73,0,0,1-.42.44A.41.41,0,0,1,40.48,26.5Z"/><path class="cls-7" d="M40,28.34a.86.86,0,0,1-.4-.11,1.18,1.18,0,0,1-.56-.74s0-.06,0-.06.06,0,.06,0a1.07,1.07,0,0,0,.52.68.61.61,0,0,0,.5.07.64.64,0,0,0,.36-.39,1.06,1.06,0,0,0,0-.87s0-.05,0-.07a0,0,0,0,1,.06,0,1.13,1.13,0,0,1,.06.95.77.77,0,0,1-.41.45A.63.63,0,0,1,40,28.34Z"/><path class="cls-7" d="M39.72,30.81a.38.38,0,0,1-.19,0,.43.43,0,0,1-.18-.28.67.67,0,0,1,.12-.51,0,0,0,0,1,.07,0s0,0,0,.07a.51.51,0,0,0-.1.43.34.34,0,0,0,.13.22.35.35,0,0,0,.27,0,.59.59,0,0,0,.33-.31,0,0,0,0,1,.06,0,.05.05,0,0,1,0,.07.66.66,0,0,1-.39.36Z"/><path class="cls-7" d="M39.19,31.86a.35.35,0,0,1-.18-.05.38.38,0,0,1-.18-.28.63.63,0,0,1,.11-.51A0,0,0,0,1,39,31a0,0,0,0,1,0,.07.56.56,0,0,0-.1.43.32.32,0,0,0,.14.22.33.33,0,0,0,.26,0,.53.53,0,0,0,.33-.31.05.05,0,0,1,.07,0,.06.06,0,0,1,0,.07.63.63,0,0,1-.39.36A.45.45,0,0,1,39.19,31.86Z"/><path class="cls-7" d="M40.23,31.6l-.12,0a.42.42,0,0,1-.22-.25.63.63,0,0,1,0-.52s0,0,.07,0a.07.07,0,0,1,0,.07.52.52,0,0,0,0,.44.27.27,0,0,0,.17.19.31.31,0,0,0,.26,0,.53.53,0,0,0,.27-.36s0-.05.06,0a.05.05,0,0,1,0,.06.67.67,0,0,1-.32.43A.53.53,0,0,1,40.23,31.6Z"/><path class="cls-7" d="M40.89,30.68h-.06a.43.43,0,0,1-.27-.2A.67.67,0,0,1,40.5,30a0,0,0,0,1,.06,0s0,0,0,.06a.56.56,0,0,0,.06.44.35.35,0,0,0,.2.16.37.37,0,0,0,.25-.08.53.53,0,0,0,.2-.41s0-.05.06,0a0,0,0,0,1,0,.05.68.68,0,0,1-.24.48A.5.5,0,0,1,40.89,30.68Z"/><path class="cls-6" d="M42.32,27.18c.92,1,1.13,1.09,1.27,1.51.28.85,0,2-.42,2-.88.14-2.58-4.78-2.2-5C41.06,25.7,41.21,26,42.32,27.18Z"/><path class="cls-7" d="M43.13,30.78c-.63,0-1.49-2.07-1.87-3.19-.14-.41-.57-1.75-.32-1.88.09-.05.15,0,.43.34s.5.57,1,1.09l.55.57c.46.48.62.64.73,1a2.47,2.47,0,0,1-.15,1.83.52.52,0,0,1-.31.27Zm-2.14-5c-.08.05,0,.63.37,1.77.52,1.57,1.34,3.2,1.8,3.12a.45.45,0,0,0,.25-.22,2.37,2.37,0,0,0,.13-1.75c-.1-.31-.24-.45-.7-.93l-.55-.57h0c-.5-.52-.8-.87-1-1.1A2,2,0,0,0,41,25.79Z"/><path class="cls-6" d="M36,38.14c.07,1.34.15,1.57,0,2-.33.82-1.29,1.48-1.64,1.27-.76-.45,1.14-5.3,1.55-5.21C36,36.2,35.91,36.52,36,38.14Z"/><path class="cls-7" d="M34.49,41.48a.34.34,0,0,1-.18,0c-.55-.33.15-2.54.6-3.67.17-.4.71-1.7,1-1.64.1,0,.1.11.11.54s0,.75,0,1.47h0c0,.32,0,.58.05.79A2.52,2.52,0,0,1,36,40.14a2.48,2.48,0,0,1-1.3,1.3A.66.66,0,0,1,34.49,41.48Zm1.37-5.26c-.09,0-.42.5-.85,1.59-.62,1.54-1.06,3.3-.65,3.54a.41.41,0,0,0,.33,0,2.43,2.43,0,0,0,1.24-1.25A2.33,2.33,0,0,0,36,38.93c0-.21,0-.46-.05-.78h0c0-.72,0-1.18,0-1.48a2.4,2.4,0,0,0,0-.45Z"/><path class="cls-6" d="M34,36.77c-1.28.39-1.53.4-1.86.69-.66.6-1,1.72-.63,2,.69.56,4.6-2.88,4.37-3.24C35.85,36.11,35.58,36.3,34,36.77Z"/><path class="cls-7" d="M31.74,39.55a.36.36,0,0,1-.24-.07.58.58,0,0,1-.14-.39,2.48,2.48,0,0,1,.78-1.66A2.36,2.36,0,0,1,33.26,37l.75-.23h0c.69-.21,1.12-.36,1.4-.46s.49-.17.54-.08-.89,1.19-1.21,1.48C34,38.37,32.43,39.55,31.74,39.55ZM34,36.82l-.76.22a2.07,2.07,0,0,0-1.82,2.05.37.37,0,0,0,.11.31c.36.3,1.87-.71,3.11-1.82.89-.79,1.24-1.28,1.19-1.35a1.53,1.53,0,0,0-.42.13c-.29.1-.72.25-1.41.46Z"/><path class="cls-6" d="M12.73,21.61c-1.23.51-1.47.55-1.77.88-.59.66-.77,1.8-.43,2,.74.49,4.28-3.34,4-3.67C14.48,20.77,14.23,21,12.73,21.61Z"/><path class="cls-7" d="M10.5,24.56a.52.52,0,0,1-.18-.37,2.49,2.49,0,0,1,.6-1.74A2.54,2.54,0,0,1,12,21.86c.2-.08.44-.17.73-.3h0c.67-.28,1.08-.47,1.35-.6s.47-.22.53-.14-.76,1.28-1.05,1.6c-.74.8-2.19,2.19-2.85,2.19A.38.38,0,0,1,10.5,24.56Zm3.6-3.51c-.27.13-.68.32-1.35.6h0c-.29.13-.53.22-.73.3a2.35,2.35,0,0,0-1,.57,2.32,2.32,0,0,0-.58,1.66.41.41,0,0,0,.14.3c.39.25,1.79-.91,2.9-2.13.81-.89,1.11-1.4,1-1.47h0A2.15,2.15,0,0,0,14.1,21.05Z"/><path class="cls-6" d="M16.18,26.53c.32,1,.33,1.23.57,1.49.49.53,1.4.76,1.6.5C18.8,28,16,24.83,15.71,25,15.63,25.06,15.78,25.28,16.18,26.53Z"/><path class="cls-7" d="M16.72,28.05c-.2-.2-.25-.38-.4-.9l-.19-.61h0c-.17-.55-.3-.89-.38-1.12s-.14-.4-.07-.45.91.63,1.22,1c.7.78,1.82,2.2,1.49,2.61a.38.38,0,0,1-.32.12h0A2,2,0,0,1,16.72,28.05Zm-1-3a1.66,1.66,0,0,0,.1.33c.08.23.21.58.38,1.13l.19.61a1.82,1.82,0,0,0,.38.87,1.92,1.92,0,0,0,1.28.59.34.34,0,0,0,.24-.09c.13-.16-.06-.63-.52-1.29a8.26,8.26,0,0,0-2-2.16Zm.44,1.48Z"/><path class="cls-6" d="M12,29.17A11.9,11.9,0,0,0,15.17,34c1.75,1.88,4.39,4,4.87,3.55s-3.12-3.31-3.68-8.28c-.4-3.47.78-7.42,1.31-9.21.78-2.64,1.56-4.05,1-4.47s-3,1-4.45,2.63a11.12,11.12,0,0,0-2.5,5.79A10.94,10.94,0,0,0,12,29.17Z"/><path class="cls-7" d="M15.13,34.07A12.12,12.12,0,0,1,12,29.19,11.08,11.08,0,0,1,11.7,24a11.2,11.2,0,0,1,2.51-5.81c1.46-1.67,3.8-3.22,4.53-2.64.39.32.13,1.08-.35,2.46-.2.6-.44,1.27-.67,2.07-.51,1.71-1.71,5.72-1.31,9.18a14.27,14.27,0,0,0,3,6.86c.58.81.9,1.26.67,1.47a.33.33,0,0,1-.21.06C19,37.69,16.63,35.68,15.13,34.07Zm-.84-15.78a11.18,11.18,0,0,0-2.49,5.76,11,11,0,0,0,.26,5.11h0A12.13,12.13,0,0,0,15.21,34c1.93,2.07,4.4,3.89,4.79,3.54.17-.14-.19-.64-.68-1.33a14.49,14.49,0,0,1-3-6.91c-.4-3.47.8-7.5,1.31-9.22.24-.8.47-1.48.68-2.07.44-1.3.71-2.08.37-2.35a.48.48,0,0,0-.35-.11C17.41,15.56,15.49,16.91,14.29,18.29Z"/><path class="cls-7" d="M15.21,23a.88.88,0,0,0,.4-.1,1.17,1.17,0,0,0,.56-.75s0-.05,0-.06a.06.06,0,0,0-.06,0,1,1,0,0,1-.51.68.68.68,0,0,1-.51.07.65.65,0,0,1-.35-.39,1.06,1.06,0,0,1,.05-.87.06.06,0,0,0,0-.07.07.07,0,0,0-.07,0,1.19,1.19,0,0,0-.05,1A.72.72,0,0,0,15,23,.58.58,0,0,0,15.21,23Z"/><path class="cls-7" d="M16.7,20.31a2.29,2.29,0,0,0,.73-.11s.05,0,0-.06a0,0,0,0,0-.06,0,2.46,2.46,0,0,1-1.84-.18,2.52,2.52,0,0,1-1.17-1.45s0,0-.06,0a0,0,0,0,0,0,.06A2.57,2.57,0,0,0,15.52,20,2.45,2.45,0,0,0,16.7,20.31Z"/><path class="cls-7" d="M15.47,24.62a.76.76,0,0,0,.4-.11,1.13,1.13,0,0,0,.56-.74,0,0,0,0,0,0-.06,0,0,0,0,0-.06,0,1.12,1.12,0,0,1-.52.68.65.65,0,0,1-.5.07.67.67,0,0,1-.36-.39,1.06,1.06,0,0,1,0-.87,0,0,0,0,0,0-.07,0,0,0,0,0-.06,0,1.14,1.14,0,0,0-.06.95.77.77,0,0,0,.41.45A.63.63,0,0,0,15.47,24.62Z"/><path class="cls-7" d="M13.45,23a.88.88,0,0,0,.4-.1,1.17,1.17,0,0,0,.56-.75s0-.05,0-.06-.06,0-.06,0a1.09,1.09,0,0,1-.52.68.68.68,0,0,1-.51.07.65.65,0,0,1-.35-.39,1.06,1.06,0,0,1,.05-.87s0-.06,0-.07a.07.07,0,0,0-.07,0,1.19,1.19,0,0,0-.05,1,.72.72,0,0,0,.41.44A.58.58,0,0,0,13.45,23Z"/><path class="cls-7" d="M13.19,27.91a.77.77,0,0,0,.49-.2,1.18,1.18,0,0,0,.4-.85.05.05,0,0,0-.05-.05,0,0,0,0,0,0,.05,1.06,1.06,0,0,1-.36.77.66.66,0,0,1-.48.18.65.65,0,0,1-.43-.31,1,1,0,0,1-.13-.86,0,0,0,0,0,0-.06,0,0,0,0,0-.06,0,1.21,1.21,0,0,0,.14.95.83.83,0,0,0,.5.35Z"/><path class="cls-7" d="M12.66,25.54a.85.85,0,0,0,.4-.1,1.17,1.17,0,0,0,.56-.75,0,0,0,0,0,0-.06,0,0,0,0,0-.06,0,1.12,1.12,0,0,1-.52.68.65.65,0,0,1-.5.07.67.67,0,0,1-.36-.39,1.06,1.06,0,0,1,0-.87,0,0,0,0,0,0-.07,0,0,0,0,0-.06,0,1.16,1.16,0,0,0-.06,1,.75.75,0,0,0,.41.44A.63.63,0,0,0,12.66,25.54Z"/><path class="cls-7" d="M14,24.88a.84.84,0,0,0,.39-.1,1.15,1.15,0,0,0,.57-.75.06.06,0,0,0,0-.06.05.05,0,0,0-.06,0,1,1,0,0,1-.51.68.68.68,0,0,1-.51.07.67.67,0,0,1-.36-.39,1,1,0,0,1,.06-.87.05.05,0,0,0-.09-.05,1.16,1.16,0,0,0-.06,1,.73.73,0,0,0,.42.44A.58.58,0,0,0,14,24.88Z"/><path class="cls-7" d="M14.5,26.73a.86.86,0,0,0,.4-.11,1.17,1.17,0,0,0,.56-.75s0-.05,0-.06-.06,0-.06,0a1.07,1.07,0,0,1-.52.68.61.61,0,0,1-.5.07.67.67,0,0,1-.36-.39,1.06,1.06,0,0,1,0-.87s0-.05,0-.07a0,0,0,0,0-.06,0,1.16,1.16,0,0,0-.06,1,.75.75,0,0,0,.41.44A.43.43,0,0,0,14.5,26.73Z"/><path class="cls-7" d="M15,28.57a.82.82,0,0,0,.39-.11,1.16,1.16,0,0,0,.57-.74,0,0,0,0,0,0-.06,0,0,0,0,0-.06,0,1,1,0,0,1-.51.68.64.64,0,0,1-.51.07.62.62,0,0,1-.35-.39,1.06,1.06,0,0,1,.05-.87.07.07,0,0,0,0-.07.05.05,0,0,0-.07,0,1.17,1.17,0,0,0-.06.95.81.81,0,0,0,.42.45A.58.58,0,0,0,15,28.57Z"/><path class="cls-7" d="M15.27,31a.41.41,0,0,0,.19-.05.47.47,0,0,0,.18-.28.67.67,0,0,0-.12-.51,0,0,0,0,0-.07,0,0,0,0,0,0,0,.07.55.55,0,0,1,.1.43.32.32,0,0,1-.14.22.33.33,0,0,1-.26,0,.53.53,0,0,1-.33-.31.05.05,0,0,0-.07,0,.06.06,0,0,0,0,.07.63.63,0,0,0,.39.36A.45.45,0,0,0,15.27,31Z"/><path class="cls-7" d="M15.79,32.09a.37.37,0,0,0,.37-.33.64.64,0,0,0-.12-.51,0,0,0,0,0-.07,0s0,.05,0,.07a.52.52,0,0,1,.1.43.34.34,0,0,1-.13.22.35.35,0,0,1-.27,0,.59.59,0,0,1-.33-.31,0,0,0,0,0-.06,0,.06.06,0,0,0,0,.07.66.66,0,0,0,.39.36Z"/><path class="cls-7" d="M14.76,31.83l.11,0a.44.44,0,0,0,.23-.25.6.6,0,0,0,0-.52A0,0,0,0,0,15,31a.06.06,0,0,0,0,.07.56.56,0,0,1,0,.44.3.3,0,0,1-.17.19.31.31,0,0,1-.26,0,.54.54,0,0,1-.28-.36s0-.05-.05,0-.05,0,0,.06a.64.64,0,0,0,.32.43A.46.46,0,0,0,14.76,31.83Z"/><path class="cls-7" d="M14.1,30.91h.06a.39.39,0,0,0,.26-.2.63.63,0,0,0,.07-.52,0,0,0,0,0-.06,0s0,0,0,.06a.52.52,0,0,1-.05.44.38.38,0,0,1-.2.16.36.36,0,0,1-.25-.08.57.57,0,0,1-.21-.41s0-.05,0,0a0,0,0,0,0-.05,0,.64.64,0,0,0,.24.47A.47.47,0,0,0,14.1,30.91Z"/><path class="cls-6" d="M12.66,27.4c-.92,1-1.13,1.1-1.26,1.52-.28.85,0,2,.42,2,.88.14,2.57-4.78,2.2-5C13.93,25.93,13.78,26.23,12.66,27.4Z"/><path class="cls-7" d="M11.81,31a.56.56,0,0,1-.32-.27,2.52,2.52,0,0,1-.14-1.83c.11-.33.26-.49.73-1l.55-.57c.49-.52.79-.86,1-1.09s.34-.39.42-.34c.25.13-.18,1.47-.32,1.88C13.35,28.94,12.48,31,11.86,31Zm1.88-4.67c-.2.23-.5.58-1,1.1h0l-.55.57c-.46.48-.61.62-.71.93a2.36,2.36,0,0,0,.14,1.75.42.42,0,0,0,.25.22c.46.08,1.27-1.55,1.8-3.12.38-1.14.45-1.73.37-1.77A2.3,2.3,0,0,0,13.69,26.34Z"/><path class="cls-6" d="M19,38.37c-.07,1.34-.14,1.57,0,2,.34.82,1.3,1.48,1.64,1.27.77-.45-1.14-5.3-1.55-5.21C19,36.43,19.08,36.75,19,38.37Z"/><path class="cls-7" d="M20.27,41.67a2.45,2.45,0,0,1-1.3-1.3,2.4,2.4,0,0,1-.07-1.21c0-.21,0-.47,0-.79h0c0-.72,0-1.17,0-1.47s0-.52.1-.54c.27-.06.82,1.24,1,1.64.45,1.13,1.16,3.34.61,3.67a.34.34,0,0,1-.18,0A.66.66,0,0,1,20.27,41.67Zm-1.15-5.22a1.33,1.33,0,0,0,0,.45c0,.3,0,.76-.05,1.48h0c0,.32,0,.57-.05.78a2.42,2.42,0,0,0,.07,1.17,2.39,2.39,0,0,0,1.24,1.25.41.41,0,0,0,.33,0c.4-.24,0-2-.65-3.54-.44-1.09-.77-1.59-.86-1.59Z"/><path class="cls-6" d="M21,37c1.28.39,1.52.4,1.85.69.66.6,1,1.72.64,2-.69.56-4.6-2.88-4.37-3.24C19.13,36.34,19.41,36.53,21,37Z"/><path class="cls-7" d="M20.24,37.89c-.32-.29-1.36-1.25-1.21-1.48s.14-.06.54.08.72.25,1.4.46h0l.76.23a2.36,2.36,0,0,1,1.12.48,2.48,2.48,0,0,1,.78,1.66.54.54,0,0,1-.15.39.35.35,0,0,1-.23.07C22.56,39.78,21,38.6,20.24,37.89Zm.71-.84c-.69-.21-1.12-.36-1.41-.46a1.64,1.64,0,0,0-.42-.13c-.05.07.3.56,1.19,1.35,1.23,1.11,2.74,2.12,3.11,1.82a.41.41,0,0,0,.11-.31,2.07,2.07,0,0,0-1.83-2L21,37.05Z"/></svg>