<svg id="Layer_1" data-name="Layer 1" xmlns="http://www.w3.org/2000/svg" viewBox="0 0 170 191"><defs><style>.cls-1{fill:#fff;}.cls-2{fill:#999;}</style></defs><path class="cls-1" d="M162.87,74.14a7.81,7.81,0,0,0-.72-5.3L145.24,36.51a8.07,8.07,0,0,0-7-4.27H29.81a7.87,7.87,0,0,0-7,4.27L5.86,68.84A7.31,7.31,0,0,0,5.15,74a6.1,6.1,0,0,0-.24,1.74V182.45a7.92,7.92,0,0,0,7.9,7.9H155.12a7.87,7.87,0,0,0,7.9-7.9V75.72A9.63,9.63,0,0,0,162.87,74.14Zm-133.06-34H138.2l14.47,27.67H15.26ZM155.12,182.45H12.81V80.38H155.12Z"/><polygon class="cls-2" points="99.54 32 99.54 127.11 83.97 116.43 68.47 127.11 68.47 32 99.54 32"/></svg>