<svg id="Layer_1" data-name="Layer 1" xmlns="http://www.w3.org/2000/svg" viewBox="0 0 242 234"><defs><style>.cls-1{fill:#333;}</style></defs><path class="cls-1" d="M33.7,21.55v31a1.82,1.82,0,1,0,3.64,0V25.2h31V42.5a3.74,3.74,0,0,0,3.75,3.71H98.46a3.72,3.72,0,0,0,3.71-3.71V25.2H136V52.58a1.82,1.82,0,1,0,3.64,0V25.2h35.62V42.5a3.72,3.72,0,0,0,3.71,3.71h26.33A3.74,3.74,0,0,0,209,42.5V25.2h29.2V95.52H178.94a3.73,3.73,0,0,0-3.71,3.72v17.19a3.74,3.74,0,0,0,3.71,3.75h26.33a3.75,3.75,0,0,0,3.76-3.75V99.16h29.2V170.4H137.79a1.82,1.82,0,0,0,0,3.64H241.88V21.55Zm64.83,21a.08.08,0,0,1-.07.07H72.12a.08.08,0,0,1-.07-.07V25.27a.08.08,0,0,1,.07-.07H98.46a.08.08,0,0,1,.07.07Zm106.82,0a.09.09,0,0,1-.08.07H178.94a.08.08,0,0,1-.07-.07V25.27a.08.08,0,0,1,.07-.07h26.33a.08.08,0,0,1,.08.07Zm0,56.74v17.19c0,.07,0,.07-.08.07H178.94s-.07,0-.07-.07V99.24a.09.09,0,0,1,.07-.08h26.33A.09.09,0,0,1,205.35,99.24Z"/><path class="cls-1" d="M25.87,120.89a2.25,2.25,0,0,1-.68-.11,2.1,2.1,0,0,1-1.38-1.48l-1.14-2.63a.91.91,0,0,1,1.67-.73l1.18,2.71a.78.78,0,0,1,.05.18.3.3,0,0,0,.2.22.28.28,0,0,0,.29-.06l.13-.1,9.17-5.51a.92.92,0,0,1,1.26.31.91.91,0,0,1-.32,1.25l-9.11,5.47A2,2,0,0,1,25.87,120.89Z"/><path class="cls-1" d="M25.87,137.33a2,2,0,0,1-.68-.12,2.08,2.08,0,0,1-1.38-1.48l-1.14-2.63a.91.91,0,1,1,1.67-.72l1.18,2.7a1.21,1.21,0,0,1,.05.18.28.28,0,0,0,.2.22.28.28,0,0,0,.29-.06l.13-.1,9.17-5.51a.91.91,0,0,1,1.26.32.91.91,0,0,1-.32,1.25l-9.11,5.47A2.08,2.08,0,0,1,25.87,137.33Z"/><path class="cls-1" d="M25.87,153.76a2.25,2.25,0,0,1-.68-.11,2.1,2.1,0,0,1-1.38-1.48l-1.14-2.63a.91.91,0,0,1,1.67-.73l1.18,2.71a1.21,1.21,0,0,1,.05.18.3.3,0,0,0,.2.22.28.28,0,0,0,.29-.06l.13-.1,9.17-5.51a.92.92,0,0,1,1.26.31.91.91,0,0,1-.32,1.25l-9.11,5.48A2.07,2.07,0,0,1,25.87,153.76Z"/><path class="cls-1" d="M51.75,118.2a1.37,1.37,0,1,1,0-2.74l44.15-.15h0a1.37,1.37,0,0,1,0,2.74l-44.15.15Z"/><path class="cls-1" d="M51.41,135.54a1.37,1.37,0,0,1,0-2.74l44.45-.14h0a1.37,1.37,0,0,1,0,2.74l-44.45.14Z"/><path class="cls-1" d="M51.06,152.89a1.37,1.37,0,1,1,0-2.74L95.8,150h0a1.37,1.37,0,0,1,0,2.74l-44.75.15Z"/><rect class="cls-1" x="209.01" y="80.91" width="6.39" height="6.39"/><rect class="cls-1" x="224.53" y="80.91" width="6.39" height="6.39"/><rect class="cls-1" x="209.01" y="157.61" width="6.39" height="6.39"/><rect class="cls-1" x="224.53" y="157.61" width="6.39" height="6.39"/><path class="cls-1" d="M.12,69.05v153.4H127.05V69.05Zm47.75,3.71a.08.08,0,0,1,.07-.07H77.88a.07.07,0,0,1,.07.07v9a.08.08,0,0,1-.07.07H47.94a.08.08,0,0,1-.07-.07Zm.07,12.71H77.88a3.71,3.71,0,0,0,3.71-3.64H113.5v125.1H13.71V81.83H44.23A3.73,3.73,0,0,0,47.94,85.47Zm75.46,133.3H3.8V72.69H44.23v5.46H10.07V210.57H117.14V78.15H81.59V72.69H123.4Z"/></svg>