<svg id="Layer_1" data-name="Layer 1" xmlns="http://www.w3.org/2000/svg" viewBox="0 0 235 162"><defs><style>.cls-1{fill:#693a7c;}</style></defs><path class="cls-1" d="M124.73,56.74l48.76,23v56.36l-47.28,23.63L77,136.31V80.44l47.71-23.7M126,54l-2.68,0L75.65,77.69,74,80.44v55.87l1.75,2.78,49.19,23.4,2.69,0,47.28-23.64,1.7-2.74V79.72L174.79,77,126,54Z"/><path class="cls-1" d="M126,104.54a1.65,1.65,0,0,1-.65-.14L76.85,82a1.53,1.53,0,1,1,1.29-2.78l48.47,22.44a1.54,1.54,0,0,1-.64,2.93Z"/><path class="cls-1" d="M126.26,161.13a1.54,1.54,0,0,1-1.54-1.53l-.23-56.67a1.54,1.54,0,0,1,1.53-1.55h0a1.55,1.55,0,0,1,1.54,1.53l.23,56.68a1.53,1.53,0,0,1-1.53,1.54Z"/><path class="cls-1" d="M126,104.46a1.54,1.54,0,0,1-1.38-.87,1.53,1.53,0,0,1,.72-2L173.3,78.46a1.53,1.53,0,0,1,2,.72,1.55,1.55,0,0,1-.72,2L126.69,104.3A1.47,1.47,0,0,1,126,104.46Z"/><polygon class="cls-1" points="155.07 88.99 155.07 111.42 151.06 110.24 147.04 115.44 147.04 92.76 96.31 67.42 104.29 63.51 155.07 88.99"/><path class="cls-1" d="M55.87,60a1,1,0,0,1-1-1V53.22a1,1,0,0,1,2,0V59A1,1,0,0,1,55.87,60Z"/><path class="cls-1" d="M55.87,11.75a1,1,0,0,1-1-1V5a1,1,0,0,1,2,0v5.76A1,1,0,0,1,55.87,11.75Z"/><path class="cls-1" d="M71.32,18H70.9a1,1,0,0,1-1-1,1,1,0,0,1,.37-.79l4-4a1,1,0,1,1,1.45,1.45Z"/><path class="cls-1" d="M36.78,52.1a1,1,0,0,1-.73-1.75l4.08-4.07a1,1,0,0,1,1.44,0,1,1,0,0,1,0,1.45L37.5,51.8A1,1,0,0,1,36.78,52.1Z"/><path class="cls-1" d="M40.86,18h-.43L36.05,13.6a1,1,0,0,1,1.45-1.45l4,4a1,1,0,0,1,.34.76A1,1,0,0,1,40.86,18Z"/><path class="cls-1" d="M75,52.1a1,1,0,0,1-.72-.3l-4.08-4.07a1,1,0,0,1,1.45-1.45l4.07,4.07a1,1,0,0,1,0,1.45A1,1,0,0,1,75,52.1Z"/><path class="cls-1" d="M34.63,33H28.87a1,1,0,1,1,0-2.05h5.76a1,1,0,1,1,0,2.05Z"/><path class="cls-1" d="M82.88,33H77.12a1,1,0,0,1,0-2.05h5.76a1,1,0,0,1,0,2.05Z"/><path class="cls-1" d="M55.87,64.45A32.47,32.47,0,1,1,88.34,32,32.51,32.51,0,0,1,55.87,64.45Zm0-62.89A30.42,30.42,0,1,0,86.29,32,30.46,30.46,0,0,0,55.87,1.56Z"/><path class="cls-1" d="M58.53,32a2.66,2.66,0,1,1-5.31,0,2.48,2.48,0,0,1,.07-.61,2.65,2.65,0,0,1,5.15-.06A2.46,2.46,0,0,1,58.53,32Z"/><path class="cls-1" d="M55.65,33a1,1,0,0,1-.39-2l11.8-4.95A1,1,0,1,1,67.85,28L56.05,33A1.1,1.1,0,0,1,55.65,33Z"/><path class="cls-1" d="M54.17,32.51a1,1,0,0,1-.54-.15L35,20.85A1,1,0,1,1,36.1,19.1L54.71,30.62a1,1,0,0,1-.54,1.89Z"/><path class="cls-1" d="M186.77,35.37a1,1,0,0,1-.37-.07,106.6,106.6,0,0,0-12.23-4,1,1,0,0,1,.52-2,106.15,106.15,0,0,1,12.46,4.1,1,1,0,0,1-.38,2Z"/><path class="cls-1" d="M164.68,29.24h-.17a104.71,104.71,0,0,0-19.06-1.37h0a1,1,0,0,1,0-2.05,107.84,107.84,0,0,1,19.42,1.4,1,1,0,0,1,.85,1.17A1,1,0,0,1,164.68,29.24Z"/><path class="cls-1" d="M141.89,37a3.32,3.32,0,0,1-1.67-.45l-5.47-3.15a1,1,0,0,1,1-1.78l5.46,3.15a1.27,1.27,0,0,0,1.92-1.09V19.21a1.25,1.25,0,0,0-.64-1.1,1.27,1.27,0,0,0-1.28,0l-12.53,7.24a1.27,1.27,0,0,0,0,2.21l2.06,1.2a1,1,0,1,1-1,1.77l-2.06-1.2a3.34,3.34,0,0,1,0-5.76l12.54-7.23a3.33,3.33,0,0,1,5,2.87V33.7A3.33,3.33,0,0,1,141.89,37Z"/><path class="cls-1" d="M210.43,74.47h-.09a1,1,0,0,1-.93-1.11,39,39,0,0,0-14.5-33.2,1,1,0,0,1,1.27-1.61,40.61,40.61,0,0,1,15.27,35A1,1,0,0,1,210.43,74.47Z"/></svg>