<svg id="Layer_1" data-name="Layer 1" xmlns="http://www.w3.org/2000/svg" viewBox="0 0 170 191"><defs><style>.cls-1{fill:#fff;}</style></defs><path class="cls-1" d="M155.84,148.68,94.16,86.92a40.2,40.2,0,0,0,1.18-9.82A44.23,44.23,0,0,0,51.16,33,42.77,42.77,0,0,0,35,36.09a2.38,2.38,0,0,0-.71.24h-.08A3.17,3.17,0,0,0,33,37.2H33a2.34,2.34,0,0,0-.47.55A2.76,2.76,0,0,0,32,38.86a3.83,3.83,0,0,0-.08,1.9,4.45,4.45,0,0,0,1,2.06L61.14,71,45,87.16,16.8,59a3.48,3.48,0,0,0-1.27-.87,3.19,3.19,0,0,0-1.5-.32,3.21,3.21,0,0,0-1.51.32,4.57,4.57,0,0,0-1.27.79l-.07.08v.08a3.46,3.46,0,0,0-.8,1.19A42.87,42.87,0,0,0,7,77.1a44.2,44.2,0,0,0,44.18,44.19,42.18,42.18,0,0,0,8.39-.87l62.32,62.23a24,24,0,1,0,34-34Zm-5.54,28.43c-6.1,6-16.79,6.1-22.89,0L64.15,113.92a3.66,3.66,0,0,0-.56-.55,3.26,3.26,0,0,0-1.26-.87,3.67,3.67,0,0,0-2.46-.16,39.33,39.33,0,0,1-8.71,1A36.31,36.31,0,0,1,14.9,77.1a32.41,32.41,0,0,1,.95-7.84L42.21,95.55a3.83,3.83,0,0,0,5.55,0L69.53,73.78a3.92,3.92,0,0,0,0-5.62L43.16,41.79a34.17,34.17,0,0,1,8-.87A36.3,36.3,0,0,1,87.43,77.1a37.53,37.53,0,0,1-1.27,9.51c-.08.15-.08.31-.16.47a3.94,3.94,0,0,0-.16,1,3.27,3.27,0,0,0,.24,1.27,3,3,0,0,0,.63,1,.81.81,0,0,0,.32.55l63.27,63.35a16.35,16.35,0,0,1,0,22.88Z"/></svg>