<svg id="Layer_1" data-name="Layer 1" xmlns="http://www.w3.org/2000/svg" viewBox="0 0 215 215"><defs><style>.cls-1{fill:#fff;}.cls-2{fill:#61a3aa;}</style></defs><circle class="cls-1" cx="107.5" cy="107.5" r="105.92"/><path class="cls-2" d="M80.89,165.8c54.13,0,83.72-44.86,83.72-83.75,0-1.28,0-2.54-.08-3.81A59.75,59.75,0,0,0,179.21,63a58.76,58.76,0,0,1-16.9,4.64,29.54,29.54,0,0,0,12.94-16.28,59.16,59.16,0,0,1-18.68,7.14,29.46,29.46,0,0,0-50.15,26.84A83.53,83.53,0,0,1,45.77,54.59a29.48,29.48,0,0,0,9.11,39.3A29.23,29.23,0,0,1,41.56,90.2c0,.13,0,.25,0,.38a29.42,29.42,0,0,0,23.61,28.85,29.32,29.32,0,0,1-13.29.51,29.44,29.44,0,0,0,27.49,20.44,59.67,59.67,0,0,1-43.57,12.2A83.28,83.28,0,0,0,80.9,165.8"/></svg>