<svg id="Layer_1" data-name="Layer 1" xmlns="http://www.w3.org/2000/svg" viewBox="0 0 235 162"><defs><style>.cls-1{fill:#693a7c;}</style></defs><path class="cls-1" d="M154.24.92H80.77A16.66,16.66,0,0,0,64.14,17.55v90.14a16.65,16.65,0,0,0,16.63,16.62H94L82.83,155.58l12.86-4.83,8.73,10.33,9.76-36.77h7.2l9.76,36.77,8.73-10.33,12.87,4.83-11.17-31.27h12.67a16.64,16.64,0,0,0,16.62-16.62V17.55A16.65,16.65,0,0,0,154.24.92ZM103.72,158,96.15,149,85.3,153.07l10.27-28.76h17.08Zm46.54-4.88L139.41,149,131.84,158l-8.92-33.64H140Zm18.37-45.38a14.41,14.41,0,0,1-14.39,14.4H80.77a14.42,14.42,0,0,1-14.4-14.4V17.55a14.41,14.41,0,0,1,14.4-14.4h73.47a14.4,14.4,0,0,1,14.39,14.4Z"/><path class="cls-1" d="M151.22,32.05H83.79a1.11,1.11,0,1,1,0-2.22h67.43a1.11,1.11,0,1,1,0,2.22Z"/><path class="cls-1" d="M151.22,49.83H83.79a1.11,1.11,0,1,1,0-2.22h67.43a1.11,1.11,0,1,1,0,2.22Z"/><path class="cls-1" d="M151.22,67.62H83.79a1.11,1.11,0,1,1,0-2.22h67.43a1.11,1.11,0,1,1,0,2.22Z"/><path class="cls-1" d="M116.3,84.66H84.06a1.11,1.11,0,1,1,0-2.22H116.3a1.11,1.11,0,0,1,0,2.22Z"/><path class="cls-1" d="M167.65,91.52a1.29,1.29,0,0,0-.09-.16"/><path class="cls-1" d="M168.64,93.69a.78.78,0,0,0,0-.14"/><path class="cls-1" d="M162.23,93.36a13.71,13.71,0,1,1-13.71-13.71,13.57,13.57,0,0,1,6.91,1.87,1.11,1.11,0,0,1-1.13,1.91A11.48,11.48,0,1,0,160,93.36a11.31,11.31,0,0,0-.6-3.65L147.3,97.34a3.28,3.28,0,0,1-1.94.75,3.46,3.46,0,0,1-1-.13,3,3,0,0,1-2.11-2.07l-1.82-3.73a1.31,1.31,0,0,1,.65-1.76,1.37,1.37,0,0,1,1.8.63l1.86,3.84a1.14,1.14,0,0,1,.09.26.39.39,0,0,0,.3.3.42.42,0,0,0,.42-.09.87.87,0,0,1,.2-.15l12.56-7.91.75-.47a1.37,1.37,0,0,1,1.54,0l.54,1.11h0c.13.3.25.6.35.9A13.68,13.68,0,0,1,162.23,93.36Z"/><path class="cls-1" d="M161.13,88l-.54-1.11A8.75,8.75,0,0,1,161.13,88Z"/><path class="cls-1" d="M161.13,88l-.54-1.11A8.75,8.75,0,0,1,161.13,88Z"/></svg>